<svg width="214" height="70" viewBox="0 0 214 70" fill="none" xmlns="http://www.w3.org/2000/svg">
<path d="M45.2399 37.9252H38.8729V43.7242C38.8729 45.8677 38.548 47.7597 37.9011 49.4002C37.2512 51.0407 36.3449 52.4126 35.1793 53.5186C34.0136 54.6218 32.6029 55.4507 30.9527 56.0051C29.2997 56.5567 27.47 56.8339 25.4607 56.8339C23.4514 56.8339 21.6217 56.5567 19.9687 56.0051C18.3157 55.4535 16.8992 54.6247 15.7164 53.5186C14.5337 52.4154 13.6188 51.0407 12.9719 49.4002C12.3249 47.7597 12 45.8677 12 43.7242V25.89C12 23.7465 12.3221 21.8545 12.9719 20.214C13.6188 18.5735 14.5337 17.2016 15.7164 16.0956C16.8992 14.9924 18.3157 14.1635 19.9687 13.6091C21.6217 13.0575 23.4514 12.7802 25.4607 12.7802C27.47 12.7802 29.2997 13.0575 30.9527 13.6091C32.6057 14.1607 34.0136 14.9895 35.1793 16.0956C36.3449 17.2016 37.2512 18.5735 37.9011 20.214C38.548 21.8545 38.8729 23.7465 38.8729 25.89V29.594H45.2399V16.7272C45.2399 15.1667 45.7244 13.992 46.6962 13.1947C47.6681 12.4001 48.7853 12 50.0479 12C50.6635 12 51.262 12.1057 51.8462 12.3172C52.4305 12.5287 52.9464 12.8288 53.4024 13.2175C53.8555 13.6062 54.2203 14.0949 54.4968 14.678C54.7704 15.2639 54.91 15.9441 54.91 16.7243V52.907C54.91 55.585 52.744 57.7542 50.0764 57.7542C47.4059 57.7542 45.2427 55.5821 45.2427 52.907V37.9223L45.2399 37.9252ZM21.5276 43.9671C21.5276 45.6247 21.8924 46.8508 22.6221 47.6454C23.3517 48.4428 24.2979 48.84 25.4635 48.84C26.6292 48.84 27.5783 48.4428 28.305 47.6454C29.0346 46.8508 29.3994 45.6219 29.3994 43.9671V25.6442C29.3994 23.9866 29.0346 22.7605 28.305 21.966C27.5754 21.1714 26.6292 20.7713 25.4635 20.7713C24.2979 20.7713 23.3488 21.1686 22.6221 21.966C21.8924 22.7633 21.5276 23.9894 21.5276 25.6442V43.9671Z" fill="#A8C9F4"/>
<path d="M87.0304 47.5708V53.0297C87.0304 55.7734 84.8103 57.9998 82.0742 57.9998C79.3382 57.9998 77.118 55.7734 77.118 53.0297V47.5708H63.4151C61.9587 47.5708 60.9128 47.165 60.2801 46.3533C59.6474 45.5416 59.3339 44.6328 59.3339 43.6239C59.3339 43.1352 59.408 42.6579 59.5533 42.1863C59.6987 41.7147 59.9324 41.286 60.2573 40.8945C60.5822 40.5058 61.0011 40.1971 61.5198 39.9685C62.0385 39.7427 62.6684 39.6284 63.4151 39.6284H100.733C101.477 39.6284 102.11 39.7427 102.629 39.9685C103.147 40.1971 103.569 40.5058 103.891 40.8945C104.213 41.2832 104.45 41.7147 104.595 42.1863C104.741 42.6579 104.815 43.1352 104.815 43.6239C104.815 44.6299 104.498 45.5416 103.866 46.3533C103.236 47.165 102.19 47.5708 100.731 47.5708H87.0276H87.0304ZM67.8355 29.1994V27.2988C67.8355 25.544 68.2801 24.2779 69.1722 23.4976C70.0614 22.7174 71.2869 22.3287 72.8401 22.3287C74.3934 22.3287 75.5619 22.726 76.4369 23.5234C77.3118 24.3207 77.7479 25.5783 77.7479 27.2988V29.1994H86.3977V27.2988C86.3977 25.544 86.8423 24.2779 87.7344 23.4976C88.6236 22.7174 89.8491 22.3287 91.4024 22.3287C92.9556 22.3287 94.1241 22.726 94.9991 23.5234C95.8741 24.3207 96.3101 25.5783 96.3101 27.2988V29.1994H99.7131C100.426 29.1994 101.041 29.3137 101.56 29.5395C102.079 29.7682 102.492 30.0597 102.8 30.4169C103.107 30.7742 103.335 31.18 103.481 31.6344C103.626 32.0889 103.7 32.5604 103.7 33.0463C103.7 33.5322 103.626 34.0038 103.481 34.4582C103.335 34.9126 103.099 35.3184 102.777 35.6757C102.452 36.033 102.039 36.3188 101.537 36.5274C101.035 36.7389 100.428 36.8446 99.7159 36.8446H64.4383C63.7258 36.8446 63.1187 36.7389 62.6171 36.5274C62.1155 36.3159 61.7022 36.033 61.3773 35.6757C61.0524 35.3184 60.8187 34.9126 60.6734 34.4582C60.528 34.0038 60.4539 33.5322 60.4539 33.0463C60.4539 32.5604 60.528 32.0889 60.6734 31.6344C60.8187 31.18 61.0524 30.7742 61.3773 30.4169C61.6994 30.0597 62.1126 29.7682 62.6171 29.5395C63.1187 29.3137 63.7258 29.1994 64.4383 29.1994H67.8412H67.8355ZM99.0832 13.1201C99.7957 13.1201 100.411 13.243 100.93 13.4859C101.449 13.7289 101.868 14.0375 102.193 14.4119C102.515 14.7863 102.751 15.2093 102.897 15.6781C103.042 16.1496 103.116 16.6126 103.116 17.0671C103.116 17.5558 103.042 18.0331 102.897 18.5046C102.751 18.9762 102.515 19.3992 102.193 19.7708C101.868 20.1452 101.446 20.4538 100.93 20.6968C100.411 20.9397 99.7957 21.0626 99.0832 21.0626H65.0197C64.3072 21.0626 63.7001 20.9397 63.1985 20.6968C62.6969 20.4538 62.2836 20.1452 61.9587 19.7708C61.6338 19.3964 61.4001 18.9762 61.2548 18.5046C61.1094 18.0331 61.0353 17.5558 61.0353 17.0671C61.0353 16.6126 61.1094 16.1496 61.2548 15.6781C61.4001 15.2065 61.6281 14.7863 61.9359 14.4119C62.2437 14.0375 62.6484 13.7289 63.15 13.4859C63.6517 13.243 64.2758 13.1201 65.0197 13.1201H99.0832Z" fill="#4194F1"/>
<path d="M142.426 37.9252H136.062V43.7242C136.062 45.8677 135.737 47.7597 135.09 49.4002C134.44 51.0407 133.534 52.4126 132.368 53.5186C131.202 54.6218 129.792 55.4507 128.141 56.0051C126.488 56.5567 124.659 56.8339 122.649 56.8339C120.64 56.8339 118.81 56.5567 117.157 56.0051C115.504 55.4535 114.088 54.6247 112.905 53.5186C111.722 52.4154 110.807 51.0407 110.161 49.4002C109.511 47.7597 109.189 45.8677 109.189 43.7242V25.89C109.189 23.7465 109.511 21.8545 110.161 20.214C110.807 18.5735 111.722 17.2016 112.905 16.0956C114.088 14.9924 115.504 14.1635 117.157 13.6091C118.81 13.0575 120.64 12.7802 122.649 12.7802C124.659 12.7802 126.488 13.0575 128.141 13.6091C129.794 14.1607 131.202 14.9895 132.368 16.0956C133.534 17.2016 134.44 18.5735 135.09 20.214C135.737 21.8545 136.062 23.7465 136.062 25.89V29.594H142.426V16.7272C142.426 15.1667 142.913 13.992 143.885 13.1947C144.857 12.4001 145.974 12 147.237 12C147.852 12 148.451 12.1057 149.035 12.3172C149.619 12.5287 150.135 12.8288 150.591 13.2175C151.044 13.6062 151.409 14.0949 151.685 14.678C151.959 15.2639 152.099 15.9441 152.099 16.7243V52.907C152.099 55.585 149.933 57.7542 147.265 57.7542C144.595 57.7542 142.431 55.5821 142.431 52.907V37.9223L142.426 37.9252ZM118.713 43.9671C118.713 45.6247 119.078 46.8508 119.808 47.6454C120.537 48.4428 121.484 48.84 122.649 48.84C123.815 48.84 124.764 48.4428 125.491 47.6454C126.22 46.8508 126.585 45.6219 126.585 43.9671V25.6442C126.585 23.9866 126.22 22.7605 125.491 21.966C124.761 21.1714 123.815 20.7713 122.649 20.7713C121.484 20.7713 120.535 21.1686 119.808 21.966C119.078 22.7633 118.713 23.9894 118.713 25.6442V43.9671Z" fill="#4194F1"/>
<path d="M184.216 47.5708V53.0297C184.216 55.7734 181.996 57.9998 179.26 57.9998C176.524 57.9998 174.303 55.7734 174.303 53.0297V47.5708H160.6C159.141 47.5708 158.098 47.165 157.465 46.3533C156.833 45.5416 156.519 44.6328 156.519 43.6239C156.519 43.1352 156.593 42.6579 156.739 42.1863C156.884 41.7147 157.118 41.286 157.443 40.8945C157.765 40.5058 158.186 40.1971 158.705 39.9685C159.224 39.7427 159.854 39.6284 160.6 39.6284H197.919C198.663 39.6284 199.295 39.7427 199.814 39.9685C200.333 40.1971 200.754 40.5058 201.076 40.8945C201.399 41.2832 201.635 41.7147 201.78 42.1863C201.926 42.6579 202 43.1352 202 43.6239C202 44.6299 201.684 45.5416 201.051 46.3533C200.418 47.165 199.375 47.5708 197.916 47.5708H184.213H184.216ZM165.021 29.1994V27.2988C165.021 25.544 165.465 24.2779 166.357 23.4976C167.247 22.7174 168.472 22.3287 170.025 22.3287C171.579 22.3287 172.747 22.726 173.622 23.5234C174.497 24.3207 174.933 25.5783 174.933 27.2988V29.1994H183.583V27.2988C183.583 25.544 184.028 24.2779 184.92 23.4976C185.809 22.7174 187.034 22.3287 188.588 22.3287C190.141 22.3287 191.309 22.726 192.184 23.5234C193.059 24.3207 193.495 25.5783 193.495 27.2988V29.1994H196.898C197.611 29.1994 198.226 29.3137 198.745 29.5395C199.264 29.7682 199.677 30.0597 199.985 30.4169C200.293 30.7742 200.521 31.18 200.666 31.6344C200.811 32.0889 200.886 32.5604 200.886 33.0463C200.886 33.5322 200.814 34.0038 200.666 34.4582C200.521 34.9126 200.284 35.3184 199.962 35.6757C199.637 36.033 199.224 36.3188 198.722 36.5274C198.221 36.7389 197.614 36.8446 196.901 36.8446H161.624C160.911 36.8446 160.304 36.7389 159.802 36.5274C159.301 36.3159 158.888 36.033 158.563 35.6757C158.238 35.3184 158.004 34.9126 157.859 34.4582C157.713 34.0038 157.639 33.5322 157.639 33.0463C157.639 32.5604 157.71 32.0889 157.859 31.6344C158.004 31.18 158.238 30.7742 158.563 30.4169C158.885 30.0597 159.298 29.7682 159.802 29.5395C160.304 29.3137 160.911 29.1994 161.624 29.1994H165.026H165.021ZM196.268 13.1201C196.981 13.1201 197.597 13.243 198.115 13.4859C198.634 13.7289 199.053 14.0375 199.378 14.4119C199.7 14.7863 199.936 15.2093 200.082 15.6781C200.227 16.1496 200.301 16.6126 200.301 17.0671C200.301 17.5558 200.227 18.0331 200.082 18.5046C199.936 18.9762 199.7 19.3992 199.378 19.7708C199.053 20.1452 198.631 20.4538 198.115 20.6968C197.597 20.9397 196.981 21.0626 196.268 21.0626H162.205C161.492 21.0626 160.885 20.9397 160.384 20.6968C159.882 20.4538 159.469 20.1452 159.144 19.7708C158.819 19.3964 158.585 18.9762 158.44 18.5046C158.295 18.0331 158.221 17.5558 158.221 17.0671C158.221 16.6126 158.295 16.1496 158.44 15.6781C158.585 15.2065 158.813 14.7863 159.121 14.4119C159.429 14.0375 159.834 13.7289 160.335 13.4859C160.837 13.243 161.461 13.1201 162.205 13.1201H196.268Z" fill="#A8C9F4"/>
</svg>
