<svg width="72" height="83" viewBox="0 0 72 83" fill="none" xmlns="http://www.w3.org/2000/svg">
<path fill-rule="evenodd" clip-rule="evenodd" d="M37.8157 22.7482H30.4257C29.8541 22.7482 29.3593 22.3721 29.2065 21.8322L23.5572 1.59431C23.3286 0.791344 23.9387 0 24.7764 0H32.1664C32.738 0 33.2456 0.376126 33.3984 0.916015L39.0487 21.1529C39.2774 21.9558 38.6684 22.7472 37.8296 22.7472H37.8167L37.8157 22.7482Z" fill="#FFB583"/>
<path fill-rule="evenodd" clip-rule="evenodd" d="M49.1772 1.59537L43.5151 21.8322C43.3623 22.3721 42.8676 22.7482 42.2959 22.7482H34.906C34.0682 22.7482 33.4592 21.9569 33.6868 21.1539L39.3371 0.917071C39.4899 0.377183 39.9847 0 40.5563 0H47.9463C48.784 0 49.3931 0.791344 49.1783 1.59537H49.1772Z" fill="#FF832C"/>
<path fill-rule="evenodd" clip-rule="evenodd" d="M47.5387 0L40.3261 24.9934C40.2353 25.3145 39.9414 25.5385 39.6006 25.5385H35.2025C34.7035 25.5385 34.3413 25.0684 34.477 24.5898L41.5667 0H47.5387Z" fill="#FFB583"/>
<g filter="url(#filter0_d_473_5187)">
<path d="M44.803 17.0609H27.9192C27.4665 17.0609 27.0996 17.4235 27.0996 17.8707C27.0996 18.318 27.4665 18.6806 27.9192 18.6806H44.803C45.2556 18.6806 45.6226 18.318 45.6226 17.8707C45.6226 17.4235 45.2556 17.0609 44.803 17.0609Z" fill="url(#paint0_linear_473_5187)"/>
</g>
<g filter="url(#filter1_d_473_5187)">
<ellipse cx="36.0001" cy="40.3378" rx="20.0001" ry="19.6622" fill="url(#paint1_linear_473_5187)"/>
</g>
<path d="M35.9143 48.0609C34.8278 48.0609 33.8471 47.8603 32.9721 47.4593C32.1044 47.0582 31.419 46.5041 30.9158 45.7968C30.4127 45.0822 30.1538 44.2765 30.1393 43.3796H33.333C33.3549 43.7806 33.4825 44.1416 33.7158 44.4624C33.9565 44.7759 34.2664 45.0202 34.6455 45.1952C35.032 45.3702 35.4549 45.4577 35.9143 45.4577C36.4539 45.4577 36.9351 45.3411 37.358 45.1077C37.7883 44.8671 38.12 44.5353 38.3534 44.1124C38.594 43.6895 38.7143 43.2046 38.7143 42.6577C38.7143 42.1035 38.594 41.6114 38.3534 41.1811C38.1127 40.7436 37.7737 40.4046 37.3362 40.164C36.906 39.916 36.4174 39.7921 35.8705 39.7921C34.682 39.7921 33.8507 40.2369 33.3768 41.1265H30.4018L31.2549 32.0045H41.0112V34.6952H33.9674L33.5299 38.6983H33.6612C33.9528 38.2973 34.3867 37.9764 34.9627 37.7358C35.5388 37.4879 36.1695 37.3639 36.8549 37.3639C37.8101 37.3639 38.6705 37.5863 39.4362 38.0311C40.2091 38.4759 40.8143 39.0957 41.2518 39.8905C41.6893 40.6853 41.9081 41.5785 41.9081 42.5702C41.9081 43.6275 41.6565 44.5754 41.1534 45.414C40.6502 46.2452 39.9429 46.8942 39.0315 47.3609C38.1273 47.8275 37.0882 48.0609 35.9143 48.0609Z" fill="#FF832C"/>
<defs>
<filter id="filter0_d_473_5187" x="11.0995" y="7.46086" width="50.5226" height="33.6198" filterUnits="userSpaceOnUse" color-interpolation-filters="sRGB">
<feFlood flood-opacity="0" result="BackgroundImageFix"/>
<feColorMatrix in="SourceAlpha" type="matrix" values="0 0 0 0 0 0 0 0 0 0 0 0 0 0 0 0 0 0 127 0" result="hardAlpha"/>
<feOffset dy="6.40002"/>
<feGaussianBlur stdDeviation="8.00003"/>
<feComposite in2="hardAlpha" operator="out"/>
<feColorMatrix type="matrix" values="0 0 0 0 0 0 0 0 0 0 0 0 0 0 0 0 0 0 0.14 0"/>
<feBlend mode="normal" in2="BackgroundImageFix" result="effect1_dropShadow_473_5187"/>
<feBlend mode="normal" in="SourceGraphic" in2="effect1_dropShadow_473_5187" result="shape"/>
</filter>
<filter id="filter1_d_473_5187" x="-6.29425e-05" y="11.0756" width="72.0001" height="71.3245" filterUnits="userSpaceOnUse" color-interpolation-filters="sRGB">
<feFlood flood-opacity="0" result="BackgroundImageFix"/>
<feColorMatrix in="SourceAlpha" type="matrix" values="0 0 0 0 0 0 0 0 0 0 0 0 0 0 0 0 0 0 127 0" result="hardAlpha"/>
<feOffset dy="6.40002"/>
<feGaussianBlur stdDeviation="8.00003"/>
<feComposite in2="hardAlpha" operator="out"/>
<feColorMatrix type="matrix" values="0 0 0 0 0 0 0 0 0 0 0 0 0 0 0 0 0 0 0.14 0"/>
<feBlend mode="normal" in2="BackgroundImageFix" result="effect1_dropShadow_473_5187"/>
<feBlend mode="normal" in="SourceGraphic" in2="effect1_dropShadow_473_5187" result="shape"/>
</filter>
<linearGradient id="paint0_linear_473_5187" x1="29.3911" y1="17.1611" x2="29.5524" y2="19.5032" gradientUnits="userSpaceOnUse">
<stop stop-color="white"/>
<stop offset="1" stop-color="#F3F9FF"/>
</linearGradient>
<linearGradient id="paint1_linear_473_5187" x1="20.9485" y1="23.1081" x2="48.6042" y2="58.8365" gradientUnits="userSpaceOnUse">
<stop stop-color="white"/>
<stop offset="1" stop-color="#FFF9F3"/>
</linearGradient>
</defs>
</svg>
