<svg width="72" height="83" viewBox="0 0 72 83" fill="none" xmlns="http://www.w3.org/2000/svg">
<path fill-rule="evenodd" clip-rule="evenodd" d="M37.8157 22.7482H30.4257C29.8541 22.7482 29.3593 22.3721 29.2065 21.8322L23.5572 1.59431C23.3286 0.791344 23.9387 0 24.7764 0H32.1664C32.738 0 33.2456 0.376126 33.3984 0.916015L39.0487 21.1529C39.2774 21.9558 38.6684 22.7472 37.8296 22.7472H37.8167L37.8157 22.7482Z" fill="#86BFFF"/>
<path fill-rule="evenodd" clip-rule="evenodd" d="M49.1782 1.59537L43.5161 21.8322C43.3633 22.3721 42.8685 22.7482 42.2969 22.7482H34.9069C34.0692 22.7482 33.4601 21.9569 33.6877 21.1539L39.3381 0.917071C39.4909 0.377183 39.9856 0 40.5573 0H47.9473C48.785 0 49.394 0.791344 49.1793 1.59537H49.1782Z" fill="#4194F1"/>
<path fill-rule="evenodd" clip-rule="evenodd" d="M47.5387 0L40.3261 24.9934C40.2353 25.3145 39.9414 25.5385 39.6006 25.5385H35.2025C34.7035 25.5385 34.3413 25.0684 34.477 24.5898L41.5667 0H47.5387Z" fill="#86BFFF"/>
<g filter="url(#filter0_d_473_5187)">
<path d="M44.801 17.0609H27.9172C27.4646 17.0609 27.0977 17.4235 27.0977 17.8707C27.0977 18.318 27.4646 18.6806 27.9172 18.6806H44.801C45.2537 18.6806 45.6206 18.318 45.6206 17.8707C45.6206 17.4235 45.2537 17.0609 44.801 17.0609Z" fill="url(#paint0_linear_473_5187)"/>
</g>
<g filter="url(#filter1_d_473_5187)">
<ellipse cx="36.0001" cy="40.3378" rx="20.0001" ry="19.6622" fill="url(#paint1_linear_473_5187)"/>
</g>
<defs>
<filter id="filter0_d_473_5187" x="11.0976" y="7.46086" width="50.5226" height="33.6198" filterUnits="userSpaceOnUse" color-interpolation-filters="sRGB">
<feFlood flood-opacity="0" result="BackgroundImageFix"/>
<feColorMatrix in="SourceAlpha" type="matrix" values="0 0 0 0 0 0 0 0 0 0 0 0 0 0 0 0 0 0 127 0" result="hardAlpha"/>
<feOffset dy="6.40002"/>
<feGaussianBlur stdDeviation="8.00003"/>
<feComposite in2="hardAlpha" operator="out"/>
<feColorMatrix type="matrix" values="0 0 0 0 0 0 0 0 0 0 0 0 0 0 0 0 0 0 0.14 0"/>
<feBlend mode="normal" in2="BackgroundImageFix" result="effect1_dropShadow_473_5187"/>
<feBlend mode="normal" in="SourceGraphic" in2="effect1_dropShadow_473_5187" result="shape"/>
</filter>
<filter id="filter1_d_473_5187" x="-6.29425e-05" y="11.0756" width="72.0001" height="71.3245" filterUnits="userSpaceOnUse" color-interpolation-filters="sRGB">
<feFlood flood-opacity="0" result="BackgroundImageFix"/>
<feColorMatrix in="SourceAlpha" type="matrix" values="0 0 0 0 0 0 0 0 0 0 0 0 0 0 0 0 0 0 127 0" result="hardAlpha"/>
<feOffset dy="6.40002"/>
<feGaussianBlur stdDeviation="8.00003"/>
<feComposite in2="hardAlpha" operator="out"/>
<feColorMatrix type="matrix" values="0 0 0 0 0 0 0 0 0 0 0 0 0 0 0 0 0 0 0.14 0"/>
<feBlend mode="normal" in2="BackgroundImageFix" result="effect1_dropShadow_473_5187"/>
<feBlend mode="normal" in="SourceGraphic" in2="effect1_dropShadow_473_5187" result="shape"/>
</filter>
<linearGradient id="paint0_linear_473_5187" x1="29.3892" y1="17.1611" x2="29.5504" y2="19.5032" gradientUnits="userSpaceOnUse">
<stop stop-color="white"/>
<stop offset="1" stop-color="#F3F9FF"/>
</linearGradient>
<linearGradient id="paint1_linear_473_5187" x1="20.9485" y1="23.1081" x2="48.6042" y2="58.8365" gradientUnits="userSpaceOnUse">
<stop stop-color="white"/>
<stop offset="1" stop-color="#F3F9FF"/>
</linearGradient>
</defs>
</svg>
