<svg width="192" height="237" viewBox="0 0 192 237" fill="none" xmlns="http://www.w3.org/2000/svg">
<g filter="url(#filter0_d_1710_6232)">
<rect x="20" y="16" width="152" height="197" rx="12" fill="white"/>
</g>
<path d="M20 163H172V201C172 207.627 166.627 213 160 213H32C25.3726 213 20 207.627 20 201V163Z" fill="#C6A15D"/>
<path d="M50.1172 41.9648V43.957H43.1641V49.7773H40.7031V43.957H33.8477V41.9648H50.1172ZM35.7617 40.0508V32.8828H48.1641V40.0508H35.7617ZM38.2227 38.0977H45.6836V34.8555H38.2227V38.0977ZM58.0469 36.8672C58.0371 39.7383 59.5215 42.8145 62.5 44.0547L61.1523 46.0078C59.0625 45.1191 57.6172 43.3516 56.8164 41.2031C56.0156 43.5371 54.541 45.4902 52.4414 46.457L51.0156 44.4844C53.9648 43.166 55.4883 39.875 55.4883 36.8672V35.7734H51.7188V33.7422H61.7578V35.7734H58.0469V36.8672ZM63.5156 49.7969V32.0234H66.0352V49.7969H63.5156ZM84.6094 39.6016V41.418H77.7734V42.5312H82.6758V46.8672H72.7734V47.8438H83.1445V49.6797H70.332V45.1875H80.2148V44.3086H70.3125V42.5312H75.293V41.418H68.4766V39.6016H84.6094ZM69.1016 37.2773C72.6562 37.1211 74.4629 36.2715 74.9805 35.2461H70V33.4102H75.293V32.0039H77.7539V33.4102H83.0859V35.2461H78.0566C78.5645 36.2715 80.3809 37.1211 83.9648 37.2773L83.2422 39.1133C79.9414 38.9473 77.6465 38.1172 76.5234 36.7793C75.4004 38.1172 73.1152 38.9473 69.7852 39.1133L69.1016 37.2773ZM98.6719 33.7031V35.6562H95.9375C96.0059 37.0918 97.0898 38.5469 99.2383 39.2305L98.1836 41.0469C96.543 40.5586 95.4297 39.582 94.7754 38.3711C94.1406 39.6895 93.0176 40.793 91.3867 41.3594L90.293 39.5039C92.4023 38.7129 93.4863 37.1211 93.5742 35.6562H90.8203V33.7031H93.5742V32.082H95.9375V33.7031H98.6719ZM93.4375 43.8789V42.0039H105.605V46.6523H95.9375V47.7656H106.211V49.6016H93.457V44.8555H103.145V43.8789H93.4375ZM99.4727 41.2422V32.3555H101.816V35.7148H103.242V32.043H105.605V41.3594H103.242V37.6875H101.816V41.2422H99.4727ZM122.48 32.043V45.1289H120V32.043H122.48ZM108.535 35.1875V33.1953H116.777V38.8594H110.996V40.832C114.18 40.8223 116.191 40.7246 118.496 40.2852L118.77 42.2773C116.182 42.7656 113.877 42.8633 110.117 42.8633H108.555V37.0234H114.297V35.1875H108.535ZM110.527 49.4844V44.0352H113.008V47.4922H122.949V49.4844H110.527ZM131.797 36.8672C131.787 39.7383 133.271 42.8145 136.25 44.0547L134.902 46.0078C132.812 45.1191 131.367 43.3516 130.566 41.2031C129.766 43.5371 128.291 45.4902 126.191 46.457L124.766 44.4844C127.715 43.166 129.238 39.875 129.238 36.8672V35.7734H125.469V33.7422H135.508V35.7734H131.797V36.8672ZM137.266 49.7969V32.0234H139.785V49.7969H137.266Z" fill="black"/>
<path d="M95.1658 130.723C93.7534 130.723 92.6013 129.643 92.4897 128.226L89.0332 81.8694C88.9217 80.3043 90.1482 79 91.7092 79H98.6595C100.22 79 101.447 80.3415 101.335 81.8694L97.879 128.226C97.7675 129.643 96.6153 130.723 95.2029 130.723H95.1658Z" fill="#B7BF75"/>
<path d="M99.5888 130.5C98.4738 130.313 97.6933 129.307 97.7676 128.189L100.592 90.8128C100.704 89.5458 101.819 88.6515 103.082 88.8378L108.62 89.6949C109.847 89.8812 110.665 91.0737 110.404 92.3034L102.042 128.823C101.782 129.941 100.741 130.649 99.6259 130.462L99.5888 130.5Z" fill="#6D7C48"/>
<path d="M90.632 130.5C91.747 130.313 92.5275 129.307 92.4531 128.189L89.6285 90.8128C89.517 89.5458 88.4019 88.6515 87.1383 88.8378L81.6004 89.6949C80.3739 89.8812 79.5562 91.0737 79.8164 92.3034L88.179 128.823C88.4391 129.941 89.4798 130.649 90.5948 130.462L90.632 130.5Z" fill="#6D7C48"/>
<path d="M117.466 141.791V159.827C117.466 162.547 115.273 164.746 112.56 164.746H77.6599C74.9468 164.746 72.7539 162.547 72.7539 159.827V142.983C76.2848 143.021 83.1235 142.872 86.4313 141.418C91.0029 139.369 100.815 140.636 103.379 141.94C105.572 143.058 113.935 143.989 117.429 141.791H117.466Z" fill="#F0EDDA"/>
<path d="M98.2875 121.891H91.9691C81.3766 121.891 72.791 130.5 72.791 141.12V142.983C76.3219 143.02 83.1606 142.909 86.4684 141.418C91.0771 139.369 100.852 140.636 103.417 141.94C105.609 143.058 113.972 143.989 117.466 141.791V141.12C117.466 130.5 108.88 121.891 98.2875 121.891Z" fill="#E1E5B1"/>
<path d="M118.506 160.87C117.057 160.87 115.793 161.765 115.273 163.032C115.198 163.032 115.087 162.994 115.013 162.994C113.935 162.994 113.043 163.479 112.411 164.224C112.188 162.51 110.776 161.168 109.029 161.168C108.1 161.168 107.282 161.541 106.65 162.137C106.055 161.131 104.978 160.386 103.714 160.386C102.227 160.386 101.001 161.317 100.48 162.622C100.406 162.622 100.332 162.584 100.22 162.584C100.072 162.584 99.9229 162.659 99.7742 162.659C99.3653 161.206 98.0645 160.125 96.4663 160.125C95.3885 160.125 94.4965 160.647 93.8275 161.392C93.4558 161.28 93.0842 161.168 92.6753 161.168C91.8205 161.168 91.0772 161.504 90.4453 162.025C89.8878 160.833 88.6984 160.013 87.2861 160.013C86.2083 160.013 85.3163 160.498 84.6844 161.28C84.0154 161.355 83.4208 161.616 82.9376 161.988C82.3429 160.907 81.2279 160.162 79.9271 160.162C78.6262 160.162 77.5484 160.907 76.9537 161.951C76.7679 161.951 76.6192 161.839 76.4334 161.839C76.2104 161.839 75.9874 161.914 75.7644 161.988C75.3184 160.572 74.0547 159.529 72.4937 159.529C70.561 159.529 69 161.094 69 163.032C69 164.969 70.561 166.534 72.4937 166.534C72.7167 166.534 72.9397 166.46 73.1627 166.385C73.6087 167.801 74.8724 168.845 76.4334 168.845C77.7342 168.845 78.8121 168.1 79.4067 167.056C79.5926 167.056 79.7412 167.168 79.9271 167.168C80.7447 167.168 81.4509 166.833 82.0456 166.385C82.6403 167.466 83.7553 168.211 85.0561 168.211C86.1339 168.211 87.026 167.727 87.6578 166.944C88.364 166.87 88.9958 166.609 89.5161 166.162C90.0736 167.354 91.263 168.174 92.6753 168.174C93.7532 168.174 94.6452 167.652 95.3142 166.907C95.6858 167.019 96.0575 167.131 96.4663 167.131C96.615 167.131 96.7637 167.056 96.9123 167.056C97.3212 168.509 98.622 169.59 100.22 169.59C101.707 169.59 102.933 168.659 103.454 167.354C103.528 167.354 103.602 167.392 103.714 167.392C104.643 167.392 105.461 167.019 106.093 166.423C106.687 167.429 107.765 168.174 109.029 168.174C110.069 168.174 110.999 167.69 111.63 166.944C111.853 168.659 113.266 170 115.013 170C116.462 170 117.726 169.106 118.246 167.839C118.32 167.839 118.432 167.876 118.506 167.876C120.439 167.876 122 166.311 122 164.373C122 162.435 120.439 160.87 118.506 160.87Z" fill="#BC9457"/>
<defs>
<filter id="filter0_d_1710_6232" x="0" y="0" width="192" height="237" filterUnits="userSpaceOnUse" color-interpolation-filters="sRGB">
<feFlood flood-opacity="0" result="BackgroundImageFix"/>
<feColorMatrix in="SourceAlpha" type="matrix" values="0 0 0 0 0 0 0 0 0 0 0 0 0 0 0 0 0 0 127 0" result="hardAlpha"/>
<feOffset dy="4"/>
<feGaussianBlur stdDeviation="10"/>
<feComposite in2="hardAlpha" operator="out"/>
<feColorMatrix type="matrix" values="0 0 0 0 0 0 0 0 0 0 0 0 0 0 0 0 0 0 0.1 0"/>
<feBlend mode="normal" in2="BackgroundImageFix" result="effect1_dropShadow_1710_6232"/>
<feBlend mode="normal" in="SourceGraphic" in2="effect1_dropShadow_1710_6232" result="shape"/>
</filter>
</defs>
</svg>
