<svg width="152" height="197" viewBox="0 0 152 197" fill="none" xmlns="http://www.w3.org/2000/svg">
<rect width="152" height="197" rx="12" fill="white"/>
<path d="M23.3652 18.3672C23.3555 20.9746 25.6699 23.7578 29.6934 24.4414L28.5996 26.5117C25.4941 25.8965 23.1992 24.1484 22.0469 21.873C20.875 24.1289 18.5703 25.8867 15.4941 26.5117L14.4199 24.4414C18.375 23.7383 20.6895 20.9453 20.709 18.3672V17.0781H23.3652V18.3672ZM14.0098 31.6094V29.5586H30.2793V31.6094H14.0098ZM38.9512 17.0977V19.0508H34.3027V20.4375H38.7754V22.3711H34.3027V23.8262C36.2754 23.7969 37.7305 23.709 39.3809 23.4258L39.6348 25.3984C37.5547 25.7695 35.8164 25.8281 33.1309 25.8086H31.9199V17.0977H38.9512ZM34.4395 33.6016V27.1953H46.5684V33.6016H34.4395ZM36.9199 31.6094H44.1074V29.1289H36.9199V31.6094ZM40.3379 26.3359V16.3555H42.6621V20.2812H44.2051V16.043H46.5684V26.4922H44.2051V22.3125H42.6621V26.3359H40.3379ZM64.8496 29.6562V31.7266H48.5801V29.6562H64.8496ZM49.8496 19.5781V17.5859H63.4824V19.5781H60.9824V24.9688H63.4043V26.9219H49.9277V24.9688H52.3105V19.5781H49.8496ZM54.8105 24.9688H58.5215V19.5781H54.8105V24.9688ZM86.7441 29.6953V31.7266H70.4746V29.6953H77.3301V26.4141H72.1934V17.1562H74.6934V19.9102H82.4473V17.1562H84.9277V26.4141H79.8105V29.6953H86.7441ZM74.6934 24.4219H82.4473V21.9023H74.6934V24.4219ZM102.701 16.0234V33.7969H100.182V16.0234H102.701ZM87.8184 28.7578C92.4082 26.5898 94.4297 23.7773 94.8301 19.832H88.7754V17.8789H97.3691C97.3594 23.2695 95.4746 27.752 89.127 30.75L87.8184 28.7578Z" fill="black"/>
<circle cx="76" cy="111" r="48" fill="#FFD12E"/>
<g clip-path="url(#clip0_1744_4880)">
<path d="M61.065 104.125C63.7813 101.456 63.7976 97.1439 61.1014 94.4933C58.4052 91.8426 54.0175 91.8571 51.3012 94.5257C48.5849 97.1943 48.5686 101.506 51.2648 104.157C53.961 106.808 58.3487 106.793 61.065 104.125Z" fill="#AD8700"/>
<path d="M80.4862 132.639C80.1009 131.57 80.0065 130.501 80.1349 129.502C80.1765 129.187 80.5202 129.016 80.8149 129.142C81.2493 129.328 81.7593 129.369 82.2768 129.202C82.9454 128.986 83.4667 128.418 83.6178 127.743C83.8066 126.893 83.4402 126.106 82.8056 125.671C82.5487 125.493 82.5525 125.107 82.8056 124.918C83.9804 124.023 85.4498 123.488 87.0439 123.481C90.8743 123.466 93.9643 126.507 93.9492 130.263C93.9341 134.269 90.4021 137.484 86.2356 137.068C83.6253 136.808 81.3664 135.064 80.49 132.643L80.4862 132.639Z" fill="#AD8700"/>
<path d="M88.7514 129.903L86.9533 131.67C78.4087 140.068 64.5982 140.116 56.114 131.774L54.331 130.022C45.8431 121.68 45.896 108.115 54.4406 99.7181L56.2387 97.951C61.5649 92.7166 68.9348 90.7231 75.7833 91.9853C77.045 92.2154 78.2878 92.5607 79.4928 93.0136C80.5354 93.3997 81.5477 93.8712 82.5261 94.4206C84.1542 95.3338 85.6841 96.4735 87.0742 97.8397L88.8571 99.5919C92.0491 102.729 94.0398 106.612 94.8142 110.677C96.1061 117.415 94.0776 124.665 88.7476 129.903H88.7514Z" fill="#E0AF00"/>
<path d="M68.4387 108.771C68.9358 108.282 68.9394 107.494 68.4467 107.009C67.954 106.525 67.1516 106.529 66.6544 107.017C66.1573 107.506 66.1537 108.295 66.6464 108.779C67.1391 109.263 67.9416 109.259 68.4387 108.771Z" fill="#AD8700"/>
<path d="M79.8602 119.997C80.3574 119.508 80.3609 118.72 79.8682 118.236C79.3755 117.751 78.5731 117.755 78.0759 118.244C77.5788 118.732 77.5752 119.521 78.0679 120.005C78.5606 120.489 79.3631 120.486 79.8602 119.997Z" fill="#AD8700"/>
<path d="M70.8537 117.552C70.5628 117.838 69.8224 117.571 69.1954 116.958C68.5683 116.346 68.3001 115.615 68.591 115.329C68.8819 115.043 69.6222 115.31 70.2493 115.923C70.8764 116.535 71.1446 117.267 70.8537 117.552Z" fill="#AD8700"/>
<path d="M71.8812 106.616C70.627 104.964 68.591 104.006 66.74 103.111C65.9808 102.744 65.8297 102.053 66.1545 101.452C66.4794 100.85 67.0573 100.527 67.8846 100.91C69.8942 101.834 72.2211 103.048 73.5961 104.815C74.1628 105.543 74.091 106.167 73.5961 106.679C73.1051 107.195 72.3873 107.295 71.8736 106.616H71.8812Z" fill="#AD8700"/>
<path d="M80.1614 114.753C81.8424 115.986 82.8169 117.987 83.7273 119.806C84.1013 120.552 84.8039 120.7 85.4158 120.381C86.0278 120.062 86.3564 119.494 85.9674 118.681C85.0268 116.706 83.7915 114.419 81.9935 113.068C81.2531 112.511 80.6185 112.581 80.0972 113.068C79.5721 113.55 79.4701 114.256 80.1614 114.761V114.753Z" fill="#AD8700"/>
<path d="M94.818 110.677C92.8424 109.805 89.1556 105.951 84.7661 101.637C80.3994 97.3459 76.6332 93.8786 75.7871 91.989C76.9581 92.2043 78.114 92.5162 79.2435 92.9282C79.3303 92.9542 79.4135 92.9914 79.5003 93.021C80.5429 93.4071 81.5553 93.8786 82.5336 94.428C83.4025 94.9181 84.2448 95.4712 85.057 96.0912C85.7596 96.6295 86.432 97.2123 87.0817 97.8471L88.8647 99.5994C92.0567 102.736 94.0474 106.619 94.8218 110.684L94.818 110.677Z" fill="#4E4A4B"/>
<path d="M68.081 129.762C68.081 129.762 69.8413 126.065 67.0234 122.92C64.2054 119.772 62.1882 117.979 60.0275 118.51C57.8668 119.041 55.7476 118.852 56.1707 118.436C56.5938 118.02 60.3372 114.115 64.1563 117.337C67.9753 120.559 69.9169 122.731 70.9217 124.929C71.9227 127.126 68.6023 131.529 68.0848 129.762H68.081Z" fill="#AD8700"/>
<path d="M62.6679 124.157C61.4176 122.998 60.885 121.833 61.089 120.971C61.1985 120.504 61.7991 120.344 62.1429 120.686L66.1999 124.673C66.5474 125.014 66.385 125.601 65.909 125.708C65.0289 125.909 63.8465 125.385 62.6642 124.157H62.6679Z" fill="#AD8700"/>
<path d="M99.0315 104.999C102.832 101.264 104.129 96.4841 101.93 94.3225C99.7301 92.1609 94.8664 93.436 91.0663 97.1706C87.2662 100.905 85.9687 105.685 88.1682 107.847C90.3677 110.008 95.2313 108.733 99.0315 104.999Z" fill="#C79B00"/>
<path d="M89.598 95.7287C93.3981 91.9941 94.6956 87.2143 92.4961 85.0527C90.2966 82.8911 85.433 84.1663 81.6329 87.9009C77.8328 91.6355 76.5352 96.4153 78.7347 98.5769C80.9343 100.738 85.7979 99.4633 89.598 95.7287Z" fill="#C79B00"/>
<path d="M65.2026 92.6016C65.2026 92.6016 85.6841 104.752 94.2476 121.146C99.3434 116.138 99.3434 108.023 94.2476 103.018L83.648 92.6016C78.5522 87.5936 70.2946 87.5936 65.2026 92.6016Z" fill="#AD8700"/>
<path d="M81.8386 86.7805C81.8386 86.7805 81.8764 86.7879 81.899 86.7954C81.8801 86.7917 81.8613 86.7842 81.8386 86.7805Z" fill="#2A341C"/>
<path d="M81.899 86.7954C81.899 86.7954 81.9368 86.8065 81.9595 86.8103C81.9406 86.8065 81.9179 86.7991 81.899 86.7954Z" fill="#2A341C"/>
<path d="M82.409 86.9402C82.2163 86.8845 82.0652 86.84 81.9595 86.8103C82.1106 86.8474 82.2617 86.892 82.409 86.9402Z" fill="#2A341C"/>
<path d="M100.186 104.864C100.001 104.292 99.8043 103.739 99.5965 103.204C99.8534 103.739 100.05 104.296 100.186 104.864Z" fill="#2A341C"/>
<path d="M97.874 112.904C97.1109 113.654 95.8304 113.498 95.2826 112.585C89.1745 102.391 77.9856 94.4317 73.7359 91.64C72.8671 91.072 72.7462 89.8618 73.4828 89.1379L73.5886 89.0339C73.6528 88.9708 73.717 88.9114 73.7813 88.852C73.9097 88.7332 74.0419 88.6182 74.1741 88.5105C76.3348 86.736 79.1679 86.1531 81.7706 86.762C81.7706 86.762 81.7819 86.762 81.8084 86.7694C81.8159 86.7694 81.8273 86.7731 81.8386 86.7768C81.8575 86.7805 81.8764 86.7842 81.899 86.7917C82.0086 86.8214 82.1786 86.8659 82.409 86.9365C82.4166 86.9365 82.4279 86.9402 82.4355 86.9439C84.1353 87.4599 88.8118 89.1676 93.1521 93.396C93.2466 93.4888 93.341 93.5816 93.4355 93.6744C95.785 96.028 98.0137 99.1353 99.5965 103.2C99.8043 103.735 100.001 104.288 100.186 104.86C100.344 105.513 100.424 106.181 100.424 106.85C100.424 108.802 99.7476 110.759 98.3915 112.344C98.2819 112.474 98.1686 112.6 98.0477 112.723C97.9911 112.782 97.9306 112.841 97.8702 112.901L97.874 112.904Z" fill="#AD8700"/>
<path d="M98.0515 112.726C97.2431 107.759 95.479 103.419 92.8008 99.8258C90.6212 96.9005 87.8372 94.4578 84.5206 92.5645C79.5872 89.7505 74.922 89.0006 73.7775 88.8558C73.9059 88.737 74.0381 88.6219 74.1703 88.5143C75.7493 88.7519 80.1161 89.602 84.7057 92.2192C86.4207 93.1956 87.9959 94.3204 89.42 95.5789C89.4049 95.4675 89.3935 95.3525 89.3935 95.2299C89.3935 94.4615 89.76 93.8378 90.2132 93.8378C90.6665 93.8378 91.033 94.4615 91.033 95.2299C91.033 95.319 91.0292 95.4081 91.0178 95.4935L93.1446 93.4035L93.4279 93.6819L91.3012 95.7719C91.388 95.7608 91.4787 95.7571 91.5694 95.7571C92.3513 95.7571 92.9859 96.1172 92.9859 96.5627C92.9859 97.0082 92.3513 97.3683 91.5694 97.3683C91.456 97.3683 91.3465 97.3608 91.2407 97.346C91.9056 98.0588 92.5288 98.8049 93.1143 99.5845C95.7775 103.156 97.5491 107.447 98.3915 112.348C98.2819 112.478 98.1686 112.604 98.0477 112.726H98.0515Z" fill="#FFD747"/>
</g>
<defs>
<clipPath id="clip0_1744_4880">
<rect width="55" height="54" fill="white" transform="translate(48 84)"/>
</clipPath>
</defs>
</svg>
