<svg width="131" height="119" viewBox="0 0 131 119" fill="none" xmlns="http://www.w3.org/2000/svg">
<g clip-path="url(#clip0_1743_5100)">
<path d="M3.177 110.547C2.07253 112.517 2.09577 118.857 2.09577 118.857H50.5906L41.005 93.8483C41.005 93.8483 9.53304 99.2113 3.17599 110.548L3.177 110.547Z" fill="#515C3C"/>
<path d="M37.8179 96.4318C38.2292 94.1573 43.1655 91.8515 43.1655 91.8515C43.1655 91.8515 52.7288 104.36 66.508 110.278H45.9423C41.7265 107.556 37.1591 100.079 37.8189 96.4318H37.8179Z" fill="#CFE2C0"/>
<path d="M80.3276 99.5628L48.4241 96.852V83.21H80.3276V99.5628Z" fill="#A2AF8E"/>
<path d="M48.3948 85.9299C63.3047 98.8194 84.1937 110.279 84.1937 110.279H66.507C52.7278 104.361 43.1645 91.8525 43.1645 91.8525L48.3938 85.9309L48.3948 85.9299Z" fill="#E4F2D7"/>
<path d="M130.833 118.857H72.8499L77.9822 110.278L79.5687 107.626L88.1458 93.2897C88.1458 93.2897 88.5975 93.3675 89.4079 93.5241C92.3333 94.0886 99.9352 95.6875 107.853 98.4074C119.869 102.535 132.614 109.249 130.833 118.857Z" fill="#515C3C"/>
<path d="M80.2952 86.5117C65.3853 99.8385 30.7697 118.802 30.7697 118.802L33.6375 118.857H56.6162C70.3954 112.738 85.9863 91.2253 85.9863 91.2253L80.2952 86.5117Z" fill="#E4F2D7"/>
<path d="M91.2621 96.0399C90.8509 93.6887 85.9146 91.3041 85.9146 91.3041C85.9146 91.3041 66.7192 112.881 52.94 119L75.6742 118.944C79.89 116.131 91.921 99.8112 91.2611 96.0409L91.2621 96.0399Z" fill="#CFE2C0"/>
<path d="M130.833 118.857H128.968C125.673 118.445 121.945 117.137 118.344 114.957C110.523 110.223 106.076 103.059 107.853 98.4073C119.869 102.535 132.614 109.249 130.833 118.857Z" fill="#D9E5BF"/>
<path d="M0.167742 118.857H2.03312C5.32836 118.445 9.05609 117.137 12.6575 114.957C20.4778 110.223 24.925 103.059 23.1485 98.4073C10 102 -1.61276 109.249 0.167742 118.857Z" fill="#D9E5BF"/>
<path d="M31.668 64.602C37.414 64.602 42.0721 59.9123 42.0721 54.1274C42.0721 48.3424 37.414 43.6528 31.668 43.6528C25.922 43.6528 21.2639 48.3424 21.2639 54.1274C21.2639 59.9123 25.922 64.602 31.668 64.602Z" fill="#A2AF8E"/>
<path d="M93.6752 64.3464C92.1029 63.599 90.8448 62.5385 89.899 61.3235C89.6009 60.9407 89.7808 60.3883 90.2314 60.2115C90.8963 59.9509 91.4845 59.45 91.8533 58.7188C92.3302 57.7714 92.2706 56.6008 91.6997 55.709C90.9802 54.5849 89.7363 54.1253 88.5884 54.3303C88.1215 54.4132 87.7062 53.988 87.7678 53.5143C88.0528 51.2943 89.037 49.1481 90.7286 47.4452C94.7938 43.3507 101.379 43.3538 105.436 47.4402C109.762 51.7973 109.485 59.0379 104.595 63.0243C101.534 65.52 97.2342 66.0392 93.6752 64.3464Z" fill="#A2AF8E"/>
<path d="M99.5129 52.579V56.4079C99.5129 74.6049 84.8556 89.3608 66.7727 89.3608H62.9763C44.8934 89.3608 30.2432 74.6049 30.2432 56.4079V52.579C30.2432 41.2348 35.9343 31.2299 44.6004 25.3053C46.1949 24.2115 47.8895 23.2611 49.67 22.4692C51.1999 21.7784 52.7874 21.2098 54.4244 20.7633C57.1487 20.022 60.0155 19.6261 62.9763 19.6261H66.7727C73.5723 19.6261 79.9001 21.7137 85.1345 25.2911C93.8147 31.2147 99.5129 41.2278 99.5129 52.579Z" fill="#D9E5BF"/>
<path d="M53.0603 53.2275C54.1106 53.2275 54.962 52.3701 54.962 51.3125C54.962 50.2549 54.1106 49.3976 53.0603 49.3976C52.01 49.3976 51.1585 50.2549 51.1585 51.3125C51.1585 52.3701 52.01 53.2275 53.0603 53.2275Z" fill="#6F795F"/>
<path d="M77.4001 53.2275C78.4505 53.2275 79.3019 52.3701 79.3019 51.3125C79.3019 50.2549 78.4505 49.3976 77.4001 49.3976C76.3498 49.3976 75.4984 50.2549 75.4984 51.3125C75.4984 52.3701 76.3498 53.2275 77.4001 53.2275Z" fill="#6F795F"/>
<path d="M67.0577 58.2602C67.0577 58.8783 65.9785 59.3803 64.6466 59.3803C63.3148 59.3803 62.2356 58.8793 62.2356 58.2602C62.2356 57.6411 63.3148 57.1401 64.6466 57.1401C65.9785 57.1401 67.0577 57.6411 67.0577 58.2602Z" fill="#6F795F"/>
<path d="M56.2959 45.3122C53.1684 44.8567 49.959 45.9869 47.0225 46.9908C45.815 47.4029 44.9076 46.812 44.6004 45.8132C44.2932 44.8143 44.563 43.8497 45.8544 43.3821C48.997 42.2449 52.7915 41.0814 56.1746 41.5308C57.5651 41.7156 58.1663 42.4671 58.1997 43.5488C58.234 44.6294 57.5802 45.5001 56.2949 45.3132L56.2959 45.3122Z" fill="#6F795F"/>
<path d="M73.9412 45.3122C77.0687 44.8567 80.278 45.9869 83.2145 46.9908C84.4221 47.4029 85.3295 46.812 85.6367 45.8132C85.9439 44.8143 85.6741 43.8497 84.3827 43.3821C81.24 42.2449 77.4456 41.0814 74.0624 41.5308C72.672 41.7156 72.0708 42.4671 72.0374 43.5488C72.003 44.6294 72.6568 45.5001 73.9422 45.3132L73.9412 45.3122Z" fill="#6F795F"/>
<path d="M85.1335 25.2911C82.0808 26.4496 73.9796 26.1981 64.6274 26.1981C55.2753 26.1981 47.553 26.4496 44.6004 25.3053C46.0808 24.2902 47.6531 23.3974 49.2982 22.6419C49.4194 22.5773 49.5488 22.5268 49.67 22.4692C51.1999 21.7784 52.7874 21.2098 54.4244 20.7633C55.8826 20.3674 57.3771 20.0725 58.9141 19.8776C60.2439 19.7119 61.5949 19.6261 62.9753 19.6261H66.7717C73.5714 19.6261 79.8991 21.7137 85.1335 25.2911Z" fill="#4E4A4B"/>
<path d="M77.3385 74.4342C77.3385 74.4342 75.2053 68.5571 68.7937 68.146C62.3821 67.7349 58.2855 67.943 56.5596 70.8174C54.8337 73.6918 52.3681 75.7462 52.3681 74.8422C52.3681 73.9383 52.1215 65.725 59.682 65.1504C67.2426 64.5757 71.6676 64.8605 75.1194 66.1745C78.5713 67.4885 79.8041 75.7936 77.3385 74.4342Z" fill="#6F795F"/>
<path d="M65.4995 74.1272C62.9126 74.2029 61.0836 73.5071 60.3641 72.3547C59.9741 71.7305 60.4409 70.9205 61.1766 70.9205H69.8224C70.5591 70.9205 71.0259 71.7305 70.6349 72.3547C69.9144 73.5071 68.0854 74.2019 65.4985 74.1272H65.4995Z" fill="#6F795F"/>
<path d="M74.979 29.3059C79.6669 29.3059 83.4672 22.7455 83.4672 14.6529C83.4672 6.56034 79.6669 0 74.979 0C70.2911 0 66.4908 6.56034 66.4908 14.6529C66.4908 22.7455 70.2911 29.3059 74.979 29.3059Z" fill="#363F24"/>
<path d="M54.8862 29.3059C59.5741 29.3059 63.3744 22.7455 63.3744 14.6529C63.3744 6.56034 59.5741 0 54.8862 0C50.1983 0 46.398 6.56034 46.398 14.6529C46.398 22.7455 50.1983 29.3059 54.8862 29.3059Z" fill="#363F24"/>
<path d="M33.9891 37.2414C33.9891 37.2414 68.9817 28.5989 95.8751 37.2414C95.8751 26.3931 87.0767 17.6001 76.2239 17.6001H53.6413C42.7875 17.6001 33.9901 26.3941 33.9901 37.2414H33.9891Z" fill="#2A341C"/>
<path d="M45.4027 13.2217C45.426 13.2076 45.4532 13.1914 45.4835 13.1733C45.4563 13.1884 45.43 13.2046 45.4027 13.2217Z" fill="#2A341C"/>
<path d="M45.4836 13.1743C45.5078 13.1602 45.5361 13.144 45.5654 13.1279C45.5381 13.144 45.5108 13.1581 45.4836 13.1743Z" fill="#2A341C"/>
<path d="M46.1838 12.7865C45.9181 12.9279 45.7109 13.044 45.5654 13.1269C45.7685 13.0077 45.9736 12.8936 46.1838 12.7865Z" fill="#2A341C"/>
<path d="M84.5524 13.2773C83.738 12.8562 82.9286 12.4673 82.1242 12.1088C82.9781 12.4158 83.7905 12.8087 84.5524 13.2773Z" fill="#2A341C"/>
<path d="M90.8044 24.4498C90.8044 26.0749 89.2715 27.2717 87.6971 26.8647C70.1387 22.3238 49.5943 25.6113 42.0398 27.1182C40.4978 27.4252 39.0598 26.2466 39.0598 24.674V24.4498C39.0598 24.3155 39.0618 24.1822 39.0659 24.0488C39.074 23.7842 39.0901 23.5206 39.1144 23.26C39.4943 19.0353 41.8801 15.3882 45.3118 13.2773C45.3118 13.2773 45.3289 13.2662 45.3633 13.246C45.3754 13.2389 45.3886 13.2308 45.4037 13.2218C45.427 13.2076 45.4542 13.1915 45.4846 13.1733C45.6301 13.0894 45.8655 12.9551 46.1848 12.7854C46.197 12.7794 46.2091 12.7723 46.2222 12.7663C48.5929 11.5139 55.4258 8.38997 64.6325 8.34553C64.8326 8.34351 65.0337 8.34553 65.2348 8.34654C70.2893 8.39603 76.0309 9.38481 82.1252 12.1077C82.9286 12.4663 83.738 12.8561 84.5535 13.2763C85.4306 13.8156 86.24 14.455 86.9645 15.1791C89.0825 17.2971 90.479 20.1341 90.7559 23.2934C90.7781 23.5489 90.7933 23.8075 90.8004 24.067C90.8044 24.1933 90.8064 24.3215 90.8064 24.4488L90.8044 24.4498Z" fill="#2A341C"/>
<path d="M90.7983 24.0681C84.5524 19.5453 77.967 16.7234 71.2199 15.6811C65.7268 14.8317 60.1125 15.1519 54.5315 16.6305C46.2252 18.8323 40.4442 22.9914 39.0659 24.0489C39.0739 23.7842 39.0901 23.5206 39.1144 23.2601C41.0545 21.834 46.6264 18.1071 54.3527 16.0548C57.2397 15.2882 60.1348 14.8277 63.0197 14.6741C62.8813 14.5721 62.7459 14.455 62.6145 14.3247C61.7798 13.4914 61.4959 12.4239 61.9789 11.9411C62.4609 11.4583 63.529 11.7432 64.3637 12.5764C64.4607 12.6734 64.5516 12.7744 64.6315 12.8774V8.34656H65.2337V12.8774C65.3146 12.7744 65.4045 12.6734 65.5015 12.5764C66.3362 11.7432 67.4043 11.4583 67.8863 11.9411C68.3693 12.4239 68.0854 13.4914 67.2507 14.3247C67.1294 14.4459 67.0031 14.556 66.8748 14.6519C68.3552 14.7145 69.8295 14.858 71.2957 15.0832C78.0004 16.1164 84.5433 18.8787 90.7539 23.2944C90.7761 23.5499 90.7912 23.8085 90.7983 24.0681Z" fill="#6F795F"/>
</g>
<defs>
<clipPath id="clip0_1743_5100">
<rect width="131" height="119" fill="white"/>
</clipPath>
</defs>
</svg>
