<svg width="152" height="197" viewBox="0 0 152 197" fill="none" xmlns="http://www.w3.org/2000/svg">
<rect width="152" height="197" rx="12" fill="#C8DAB2"/>
<path d="M14.4922 32L14.4727 29.8711L19.5508 25.2031C20.8691 23.9434 21.582 23.1621 21.582 22.0391C21.582 20.7793 20.6348 19.998 19.3359 20.0078C18.0078 19.998 17.1387 20.8379 17.1484 22.1953H14.3555C14.3457 19.4316 16.3965 17.6641 19.375 17.6641C22.4023 17.6641 24.4141 19.3926 24.4141 21.8438C24.4141 23.4551 23.6328 24.7734 20.7227 27.4102L18.5742 29.5V29.5781H24.6094V32H14.4922ZM35.1758 17.4883V26.0234H26.6406V17.4883H35.1758ZM28.6914 33.4844V27.7227H31.1719V31.4922H40.8594V33.4844H28.6914ZM29.1016 24.0703H32.7148V19.4805H29.1016V24.0703ZM37.7148 28.9922V16.0234H40.2148V21.1406H42.6172V23.1914H40.2148V28.9922H37.7148ZM58.457 16.043V29.4609H55.957V28.0547H52.5586V26.3555H55.957V16.043H58.457ZM43.3398 23.9141C46.5918 23.8945 50.9863 23.8457 54.7461 23.3867L54.8828 25.1641C53.4766 25.3984 52.0215 25.5645 50.5859 25.6719V29.0508H48.0859V31.4922H58.8477V33.4844H45.6055V28.1719H48.0859V25.8184C46.4941 25.877 44.9805 25.8867 43.6328 25.8867L43.3398 23.9141ZM44.6484 19.832C44.6484 17.9375 46.4746 16.6387 49.1211 16.6484C51.6992 16.6387 53.5449 17.9375 53.5547 19.832C53.5449 21.7363 51.6992 22.9668 49.1211 22.957C46.4746 22.9668 44.6484 21.7363 44.6484 19.832ZM47.0117 19.832C47.002 20.6914 47.8516 21.1699 49.1211 21.1602C50.3125 21.1699 51.1719 20.6914 51.1914 19.832C51.1719 18.9531 50.3125 18.4648 49.1211 18.4648C47.8516 18.4648 47.002 18.9531 47.0117 19.832ZM73.6328 17.7031V19.6562H70.8984C70.9668 21.0918 72.0508 22.5469 74.1992 23.2305L73.1445 25.0469C71.5039 24.5586 70.3906 23.582 69.7363 22.3711C69.1016 23.6895 67.9785 24.793 66.3477 25.3594L65.2539 23.5039C67.3633 22.7129 68.4473 21.1211 68.5352 19.6562H65.7812V17.7031H68.5352V16.082H70.8984V17.7031H73.6328ZM68.3984 27.8789V26.0039H80.5664V30.6523H70.8984V31.7656H81.1719V33.6016H68.418V28.8555H78.1055V27.8789H68.3984ZM74.4336 25.2422V16.3555H76.7773V19.7148H78.2031V16.043H80.5664V25.3594H78.2031V21.6875H76.7773V25.2422H74.4336ZM97.4414 16.043V29.1289H94.9609V16.043H97.4414ZM83.4961 19.1875V17.1953H91.7383V22.8594H85.957V24.832C89.1406 24.8223 91.1523 24.7246 93.457 24.2852L93.7305 26.2773C91.1426 26.7656 88.8379 26.8633 85.0781 26.8633H83.5156V21.0234H89.2578V19.1875H83.4961ZM85.4883 33.4844V28.0352H87.9688V31.4922H97.9102V33.4844H85.4883ZM106.758 20.8672C106.748 23.7383 108.232 26.8145 111.211 28.0547L109.863 30.0078C107.773 29.1191 106.328 27.3516 105.527 25.2031C104.727 27.5371 103.252 29.4902 101.152 30.457L99.7266 28.4844C102.676 27.166 104.199 23.875 104.199 20.8672V19.7734H100.43V17.7422H110.469V19.7734H106.758V20.8672ZM112.227 33.7969V16.0234H114.746V33.7969H112.227Z" fill="black"/>
<g clip-path="url(#clip0_1743_4877)">
<path d="M13.177 188.547C12.0725 190.517 12.0958 196.857 12.0958 196.857H60.5906L51.005 171.848C51.005 171.848 19.533 177.211 13.176 188.548L13.177 188.547Z" fill="#515C3C"/>
<path d="M47.8179 174.432C48.2292 172.157 53.1655 169.852 53.1655 169.852C53.1655 169.852 62.7288 182.36 76.508 188.278H55.9423C51.7265 185.556 47.1591 178.079 47.8189 174.432H47.8179Z" fill="#CFE2C0"/>
<path d="M90.3276 177.563L58.4241 174.852V161.21H90.3276V177.563Z" fill="#A2AF8E"/>
<path d="M58.3948 163.93C73.3047 176.819 94.1937 188.279 94.1937 188.279H76.507C62.7278 182.361 53.1645 169.853 53.1645 169.853L58.3938 163.931L58.3948 163.93Z" fill="#E4F2D7"/>
<path d="M140.833 196.857H82.8499L87.9822 188.278L89.5687 185.626L98.1458 171.29C98.1458 171.29 98.5975 171.368 99.4079 171.524C102.333 172.089 109.935 173.687 117.853 176.407C129.869 180.535 142.614 187.249 140.833 196.857Z" fill="#515C3C"/>
<path d="M90.2952 164.512C75.3853 177.838 40.7697 196.802 40.7697 196.802L43.6375 196.857H66.6162C80.3954 190.738 95.9863 169.225 95.9863 169.225L90.2952 164.512Z" fill="#E4F2D7"/>
<path d="M101.262 174.04C100.851 171.689 95.9146 169.304 95.9146 169.304C95.9146 169.304 76.7192 190.881 62.94 197L85.6742 196.944C89.89 194.131 101.921 177.811 101.261 174.041L101.262 174.04Z" fill="#CFE2C0"/>
<path d="M140.833 196.857H138.968C135.673 196.445 131.945 195.137 128.344 192.957C120.523 188.223 116.076 181.059 117.853 176.407C129.869 180.535 142.614 187.249 140.833 196.857Z" fill="#D9E5BF"/>
<path d="M10.1677 196.857H12.0331C15.3284 196.445 19.0561 195.137 22.6575 192.957C30.4778 188.223 34.925 181.059 33.1485 176.407C20 180 8.38724 187.249 10.1677 196.857Z" fill="#D9E5BF"/>
<path d="M41.668 142.602C47.414 142.602 52.0721 137.912 52.0721 132.127C52.0721 126.342 47.414 121.653 41.668 121.653C35.922 121.653 31.2639 126.342 31.2639 132.127C31.2639 137.912 35.922 142.602 41.668 142.602Z" fill="#A2AF8E"/>
<path d="M103.675 142.346C102.103 141.599 100.845 140.539 99.899 139.324C99.6009 138.941 99.7808 138.388 100.231 138.212C100.896 137.951 101.484 137.45 101.853 136.719C102.33 135.771 102.271 134.601 101.7 133.709C100.98 132.585 99.7363 132.125 98.5884 132.33C98.1215 132.413 97.7062 131.988 97.7678 131.514C98.0528 129.294 99.037 127.148 100.729 125.445C104.794 121.351 111.379 121.354 115.436 125.44C119.762 129.797 119.485 137.038 114.595 141.024C111.534 143.52 107.234 144.039 103.675 142.346Z" fill="#A2AF8E"/>
<path d="M109.513 130.579V134.408C109.513 152.605 94.8556 167.361 76.7727 167.361H72.9763C54.8934 167.361 40.2432 152.605 40.2432 134.408V130.579C40.2432 119.235 45.9343 109.23 54.6004 103.305C56.1949 102.211 57.8895 101.261 59.67 100.469C61.1999 99.7784 62.7874 99.2098 64.4244 98.7633C67.1487 98.022 70.0155 97.6261 72.9763 97.6261H76.7727C83.5723 97.6261 89.9001 99.7137 95.1345 103.291C103.815 109.215 109.513 119.228 109.513 130.579Z" fill="#D9E5BF"/>
<path d="M63.0603 131.227C64.1106 131.227 64.962 130.37 64.962 129.313C64.962 128.255 64.1106 127.398 63.0603 127.398C62.01 127.398 61.1585 128.255 61.1585 129.313C61.1585 130.37 62.01 131.227 63.0603 131.227Z" fill="#6F795F"/>
<path d="M87.4001 131.227C88.4505 131.227 89.3019 130.37 89.3019 129.313C89.3019 128.255 88.4505 127.398 87.4001 127.398C86.3498 127.398 85.4984 128.255 85.4984 129.313C85.4984 130.37 86.3498 131.227 87.4001 131.227Z" fill="#6F795F"/>
<path d="M77.0577 136.26C77.0577 136.878 75.9785 137.38 74.6466 137.38C73.3148 137.38 72.2356 136.879 72.2356 136.26C72.2356 135.641 73.3148 135.14 74.6466 135.14C75.9785 135.14 77.0577 135.641 77.0577 136.26Z" fill="#6F795F"/>
<path d="M66.2959 123.312C63.1684 122.857 59.959 123.987 57.0225 124.991C55.815 125.403 54.9076 124.812 54.6004 123.813C54.2932 122.814 54.563 121.85 55.8544 121.382C58.997 120.245 62.7915 119.081 66.1746 119.531C67.5651 119.716 68.1663 120.467 68.1997 121.549C68.234 122.629 67.5802 123.5 66.2949 123.313L66.2959 123.312Z" fill="#6F795F"/>
<path d="M83.9412 123.312C87.0687 122.857 90.278 123.987 93.2145 124.991C94.4221 125.403 95.3295 124.812 95.6367 123.813C95.9439 122.814 95.6741 121.85 94.3827 121.382C91.24 120.245 87.4456 119.081 84.0624 119.531C82.672 119.716 82.0708 120.467 82.0374 121.549C82.003 122.629 82.6568 123.5 83.9422 123.313L83.9412 123.312Z" fill="#6F795F"/>
<path d="M95.1335 103.291C92.0808 104.45 83.9796 104.198 74.6274 104.198C65.2753 104.198 57.553 104.45 54.6004 103.305C56.0808 102.29 57.6531 101.397 59.2982 100.642C59.4194 100.577 59.5488 100.527 59.67 100.469C61.1999 99.7784 62.7874 99.2098 64.4244 98.7633C65.8826 98.3674 67.3771 98.0725 68.9141 97.8776C70.2439 97.7119 71.5949 97.6261 72.9753 97.6261H76.7717C83.5714 97.6261 89.8991 99.7137 95.1335 103.291Z" fill="#4E4A4B"/>
<path d="M87.3385 152.434C87.3385 152.434 85.2053 146.557 78.7937 146.146C72.3821 145.735 68.2855 145.943 66.5596 148.817C64.8337 151.692 62.3681 153.746 62.3681 152.842C62.3681 151.938 62.1215 143.725 69.682 143.15C77.2426 142.576 81.6676 142.861 85.1194 144.174C88.5713 145.488 89.8041 153.794 87.3385 152.434Z" fill="#6F795F"/>
<path d="M75.4995 152.127C72.9126 152.203 71.0836 151.507 70.3641 150.355C69.9741 149.73 70.4409 148.92 71.1766 148.92H79.8224C80.5591 148.92 81.0259 149.73 80.6349 150.355C79.9144 151.507 78.0854 152.202 75.4985 152.127H75.4995Z" fill="#6F795F"/>
<path d="M84.979 107.306C89.6669 107.306 93.4672 100.746 93.4672 92.6529C93.4672 84.5603 89.6669 78 84.979 78C80.2911 78 76.4908 84.5603 76.4908 92.6529C76.4908 100.746 80.2911 107.306 84.979 107.306Z" fill="#363F24"/>
<path d="M64.8862 107.306C69.5741 107.306 73.3744 100.746 73.3744 92.6529C73.3744 84.5603 69.5741 78 64.8862 78C60.1983 78 56.398 84.5603 56.398 92.6529C56.398 100.746 60.1983 107.306 64.8862 107.306Z" fill="#363F24"/>
<path d="M43.9891 115.241C43.9891 115.241 78.9817 106.599 105.875 115.241C105.875 104.393 97.0767 95.6001 86.2239 95.6001H63.6413C52.7875 95.6001 43.9901 104.394 43.9901 115.241H43.9891Z" fill="#2A341C"/>
<path d="M55.4027 91.2217C55.426 91.2076 55.4532 91.1914 55.4835 91.1733C55.4563 91.1884 55.43 91.2046 55.4027 91.2217Z" fill="#2A341C"/>
<path d="M55.4836 91.1743C55.5078 91.1602 55.5361 91.144 55.5654 91.1279C55.5381 91.144 55.5108 91.1581 55.4836 91.1743Z" fill="#2A341C"/>
<path d="M56.1838 90.7865C55.9181 90.9279 55.7109 91.044 55.5654 91.1269C55.7685 91.0077 55.9736 90.8936 56.1838 90.7865Z" fill="#2A341C"/>
<path d="M94.5524 91.2773C93.738 90.8562 92.9286 90.4673 92.1242 90.1088C92.9781 90.4158 93.7905 90.8087 94.5524 91.2773Z" fill="#2A341C"/>
<path d="M100.804 102.45C100.804 104.075 99.2715 105.272 97.6971 104.865C80.1387 100.324 59.5943 103.611 52.0398 105.118C50.4978 105.425 49.0598 104.247 49.0598 102.674V102.45C49.0598 102.315 49.0618 102.182 49.0659 102.049C49.074 101.784 49.0901 101.521 49.1144 101.26C49.4943 97.0353 51.8801 93.3882 55.3118 91.2773C55.3118 91.2773 55.3289 91.2662 55.3633 91.246C55.3754 91.2389 55.3886 91.2308 55.4037 91.2218C55.427 91.2076 55.4542 91.1915 55.4846 91.1733C55.6301 91.0895 55.8655 90.9551 56.1848 90.7854C56.197 90.7794 56.2091 90.7723 56.2222 90.7663C58.5929 89.5139 65.4258 86.39 74.6325 86.3455C74.8326 86.3435 75.0337 86.3455 75.2348 86.3465C80.2893 86.396 86.0309 87.3848 92.1252 90.1077C92.9286 90.4663 93.738 90.8561 94.5535 91.2763C95.4306 91.8156 96.24 92.455 96.9645 93.1791C99.0825 95.2971 100.479 98.1341 100.756 101.293C100.778 101.549 100.793 101.807 100.8 102.067C100.804 102.193 100.806 102.322 100.806 102.449L100.804 102.45Z" fill="#2A341C"/>
<path d="M100.798 102.068C94.5524 97.5453 87.967 94.7234 81.2199 93.6811C75.7268 92.8317 70.1125 93.1519 64.5315 94.6305C56.2252 96.8323 50.4442 100.991 49.0659 102.049C49.0739 101.784 49.0901 101.521 49.1144 101.26C51.0545 99.834 56.6264 96.1071 64.3527 94.0548C67.2397 93.2882 70.1348 92.8277 73.0197 92.6741C72.8813 92.5721 72.7459 92.455 72.6145 92.3247C71.7798 91.4914 71.4959 90.4239 71.9789 89.9411C72.4609 89.4583 73.529 89.7432 74.3637 90.5764C74.4607 90.6734 74.5516 90.7744 74.6315 90.8774V86.3466H75.2337V90.8774C75.3146 90.7744 75.4045 90.6734 75.5015 90.5764C76.3362 89.7432 77.4043 89.4583 77.8863 89.9411C78.3693 90.4239 78.0854 91.4914 77.2507 92.3247C77.1294 92.4459 77.0031 92.556 76.8748 92.6519C78.3552 92.7145 79.8295 92.858 81.2957 93.0832C88.0004 94.1164 94.5433 96.8787 100.754 101.294C100.776 101.55 100.791 101.808 100.798 102.068Z" fill="#6F795F"/>
</g>
<defs>
<clipPath id="clip0_1743_4877">
<rect width="131" height="119" fill="white" transform="translate(10 78)"/>
</clipPath>
</defs>
</svg>
