<svg width="192" height="237" viewBox="0 0 192 237" fill="none" xmlns="http://www.w3.org/2000/svg">
<g filter="url(#filter0_d_1710_6230)">
<rect x="20" y="16" width="152" height="197" rx="12" fill="#DABE74"/>
</g>
<path d="M39.5215 48.1953C36.5723 48.1953 34.4141 46.457 34.3652 44.0156H37.2168C37.2852 45.1191 38.291 45.8809 39.5215 45.8711C40.9863 45.8809 42.0312 44.8457 42.0215 43.3711C42.0312 41.8672 40.9668 40.8223 39.4824 40.8125C38.418 40.8125 37.6758 41.2129 37.2559 42.0039H34.5996L35.3613 33.8594H44.0723V36.2617H37.7832L37.3926 39.8359H37.5098C38.0273 39.1426 39.1016 38.6348 40.3418 38.6445C42.9395 38.6348 44.873 40.5781 44.873 43.293C44.873 46.1543 42.7051 48.1953 39.5215 48.1953ZM55.3418 33.4883V42.0234H46.8066V33.4883H55.3418ZM48.8574 49.4844V43.7227H51.3379V47.4922H61.0254V49.4844H48.8574ZM49.2676 40.0703H52.8809V35.4805H49.2676V40.0703ZM57.8809 44.9922V32.0234H60.3809V37.1406H62.7832V39.1914H60.3809V44.9922H57.8809ZM78.623 32.043V45.4609H76.123V44.0547H72.7246V42.3555H76.123V32.043H78.623ZM63.5059 39.9141C66.7578 39.8945 71.1523 39.8457 74.9121 39.3867L75.0488 41.1641C73.6426 41.3984 72.1875 41.5645 70.752 41.6719V45.0508H68.252V47.4922H79.0137V49.4844H65.7715V44.1719H68.252V41.8184C66.6602 41.877 65.1465 41.8867 63.7988 41.8867L63.5059 39.9141ZM64.8145 35.832C64.8145 33.9375 66.6406 32.6387 69.2871 32.6484C71.8652 32.6387 73.7109 33.9375 73.7207 35.832C73.7109 37.7363 71.8652 38.9668 69.2871 38.957C66.6406 38.9668 64.8145 37.7363 64.8145 35.832ZM67.1777 35.832C67.168 36.6914 68.0176 37.1699 69.2871 37.1602C70.4785 37.1699 71.3379 36.6914 71.3574 35.832C71.3379 34.9531 70.4785 34.4648 69.2871 34.4648C68.0176 34.4648 67.168 34.9531 67.1777 35.832ZM93.7988 33.7031V35.6562H91.0645C91.1328 37.0918 92.2168 38.5469 94.3652 39.2305L93.3105 41.0469C91.6699 40.5586 90.5566 39.582 89.9023 38.3711C89.2676 39.6895 88.1445 40.793 86.5137 41.3594L85.4199 39.5039C87.5293 38.7129 88.6133 37.1211 88.7012 35.6562H85.9473V33.7031H88.7012V32.082H91.0645V33.7031H93.7988ZM88.5645 43.8789V42.0039H100.732V46.6523H91.0645V47.7656H101.338V49.6016H88.584V44.8555H98.2715V43.8789H88.5645ZM94.5996 41.2422V32.3555H96.9434V35.7148H98.3691V32.043H100.732V41.3594H98.3691V37.6875H96.9434V41.2422H94.5996ZM117.607 32.043V45.1289H115.127V32.043H117.607ZM103.662 35.1875V33.1953H111.904V38.8594H106.123V40.832C109.307 40.8223 111.318 40.7246 113.623 40.2852L113.896 42.2773C111.309 42.7656 109.004 42.8633 105.244 42.8633H103.682V37.0234H109.424V35.1875H103.662ZM105.654 49.4844V44.0352H108.135V47.4922H118.076V49.4844H105.654ZM126.924 36.8672C126.914 39.7383 128.398 42.8145 131.377 44.0547L130.029 46.0078C127.939 45.1191 126.494 43.3516 125.693 41.2031C124.893 43.5371 123.418 45.4902 121.318 46.457L119.893 44.4844C122.842 43.166 124.365 39.875 124.365 36.8672V35.7734H120.596V33.7422H130.635V35.7734H126.924V36.8672ZM132.393 49.7969V32.0234H134.912V49.7969H132.393Z" fill="black"/>
<g clip-path="url(#clip0_1710_6230)">
<path d="M67.8704 181.948C72.3169 181.948 75.9216 177.583 75.9216 172.199C75.9216 166.815 72.3169 162.45 67.8704 162.45C63.4239 162.45 59.8192 166.815 59.8192 172.199C59.8192 177.583 63.4239 181.948 67.8704 181.948Z" fill="#393229"/>
<path d="M63.258 175.735C67.7045 175.735 71.3091 171.37 71.3091 165.985C71.3091 160.601 67.7045 156.236 63.258 156.236C58.8114 156.236 55.2068 160.601 55.2068 165.985C55.2068 171.37 58.8114 175.735 63.258 175.735Z" fill="#393229"/>
<path d="M58.3747 164.21C62.8212 164.21 66.4258 159.845 66.4258 154.461C66.4258 149.077 62.8212 144.712 58.3747 144.712C53.9281 144.712 50.3235 149.077 50.3235 154.461C50.3235 159.845 53.9281 164.21 58.3747 164.21Z" fill="#393229"/>
<path d="M56.0679 152.325C60.5145 152.325 64.1191 147.96 64.1191 142.575C64.1191 137.191 60.5145 132.826 56.0679 132.826C51.6214 132.826 48.0167 137.191 48.0167 142.575C48.0167 147.96 51.6214 152.325 56.0679 152.325Z" fill="#393229"/>
<path d="M53.8976 140.409C58.3441 140.409 61.9487 136.044 61.9487 130.66C61.9487 125.275 58.3441 120.91 53.8976 120.91C49.451 120.91 45.8464 125.275 45.8464 130.66C45.8464 136.044 49.451 140.409 53.8976 140.409Z" fill="#393229"/>
<path d="M57.8032 128.914C62.9079 128.914 67.0461 123.991 67.0461 117.918C67.0461 111.845 62.9079 106.923 57.8032 106.923C52.6985 106.923 48.5603 111.845 48.5603 117.918C48.5603 123.991 52.6985 128.914 57.8032 128.914Z" fill="#393229"/>
<path d="M75.3793 109.532C78.4213 104.273 77.3035 97.9445 72.8827 95.3969C68.4619 92.8493 62.4122 95.0474 59.3702 100.306C56.3282 105.565 57.4459 111.894 61.8668 114.442C66.2876 116.989 72.3373 114.791 75.3793 109.532Z" fill="#393229"/>
<path d="M99.7031 104.656C103.827 97.5261 101.07 88.2298 93.5431 83.8925C86.0167 79.5552 76.5719 81.8193 72.4476 88.9496C68.3232 96.0799 71.0812 105.376 78.6076 109.713C86.134 114.051 95.5788 111.787 99.7031 104.656Z" fill="#393229"/>
<path d="M109.412 107.5C113.537 100.37 110.779 91.0733 103.252 86.736C95.7261 82.3987 86.2813 84.6629 82.1569 91.7932C78.0326 98.9234 80.7905 108.22 88.3169 112.557C95.8433 116.894 105.288 114.63 109.412 107.5Z" fill="#393229"/>
<path d="M118.563 112.773C122.687 105.643 119.929 96.3465 112.403 92.0092C104.877 87.6719 95.4317 89.9361 91.3074 97.0664C87.183 104.197 89.941 113.493 97.4674 117.83C104.994 122.168 114.439 119.903 118.563 112.773Z" fill="#393229"/>
<path d="M123.163 130.172C127.287 123.042 124.529 113.745 117.003 109.408C109.476 105.071 100.031 107.335 95.907 114.465C91.7826 121.596 94.5406 130.892 102.067 135.229C109.593 139.566 119.038 137.302 123.163 130.172Z" fill="#393229"/>
<path d="M100.974 125.772C105.098 118.642 102.341 109.346 94.8141 105.009C87.2877 100.671 77.8429 102.935 73.7186 110.066C69.5942 117.196 72.3522 126.492 79.8786 130.83C87.405 135.167 96.8498 132.903 100.974 125.772Z" fill="#393229"/>
<path d="M84.9368 134.303C89.0612 127.173 86.3032 117.876 78.7768 113.539C71.2504 109.202 61.8056 111.466 57.6813 118.596C53.5569 125.726 56.3149 135.023 63.8413 139.36C71.3677 143.697 80.8125 141.433 84.9368 134.303Z" fill="#393229"/>
<path d="M132.215 119.77C136.34 112.64 133.582 103.343 126.055 99.0062C118.529 94.6689 109.084 96.933 104.96 104.063C100.835 111.194 103.593 120.49 111.12 124.827C118.646 129.164 128.091 126.9 132.215 119.77Z" fill="#393229"/>
<path d="M136.817 124.374C140.941 117.243 138.183 107.947 130.657 103.61C123.131 99.2725 113.686 101.537 109.561 108.667C105.437 115.797 108.195 125.094 115.721 129.431C123.248 133.768 132.693 131.504 136.817 124.374Z" fill="#393229"/>
<path d="M142.568 138.514C146.693 131.384 143.935 122.088 136.408 117.75C128.882 113.413 119.437 115.677 115.313 122.807C111.188 129.938 113.946 139.234 121.473 143.571C128.999 147.909 138.444 145.644 142.568 138.514Z" fill="#393229"/>
<path d="M140.261 155.234C144.385 148.103 141.628 138.807 134.101 134.47C126.575 130.133 117.13 132.397 113.006 139.527C108.881 146.657 111.639 155.954 119.166 160.291C126.692 164.628 136.137 162.364 140.261 155.234Z" fill="#393229"/>
<path d="M136.23 169.288C140.354 162.158 137.596 152.862 130.07 148.524C122.543 144.187 113.098 146.451 108.974 153.582C104.85 160.712 107.608 170.008 115.134 174.345C122.66 178.683 132.105 176.419 136.23 169.288Z" fill="#393229"/>
<path d="M127.025 180.894C131.149 173.763 128.391 164.467 120.865 160.13C113.338 155.792 103.893 158.057 99.7691 165.187C95.6448 172.317 98.4027 181.613 105.929 185.951C113.456 190.288 122.9 188.024 127.025 180.894Z" fill="#393229"/>
<path d="M85.7247 87.8785C87.5243 84.7673 86.3212 80.7111 83.0375 78.8188C79.7538 76.9265 75.633 77.9146 73.8333 81.0259C72.0337 84.1371 73.2368 88.1933 76.5205 90.0856C79.8042 91.9779 83.925 90.9898 85.7247 87.8785Z" fill="#393229"/>
<path d="M86.6288 89.7684C92.468 89.0373 96.7328 84.7149 96.1546 80.114C95.5764 75.5131 90.3741 72.376 84.5349 73.1072C78.6957 73.8383 74.4309 78.1607 75.0091 82.7616C75.5873 87.3625 80.7897 90.4996 86.6288 89.7684Z" fill="#393229"/>
<path d="M102.732 83.5453C100.932 86.6567 96.8116 87.6444 93.5283 85.7524C90.2449 83.8604 89.0412 79.804 90.8402 76.6927C92.6402 73.5813 96.7609 72.5936 100.044 74.4856C103.328 76.3777 104.531 80.434 102.732 83.5453Z" fill="#393229"/>
<path d="M110.584 88.8495C112.851 84.9312 111.336 79.8228 107.2 77.4396C103.065 75.0564 97.8747 76.3008 95.6083 80.2191C93.3418 84.1373 94.8571 89.2457 98.9926 91.6289C103.128 94.0122 108.318 92.7678 110.584 88.8495Z" fill="#393229"/>
<path d="M117.023 97.1558C119.29 93.2375 117.774 88.1291 113.639 85.7459C109.503 83.3627 104.313 84.6071 102.047 88.5253C99.7805 92.4436 101.296 97.552 105.431 99.9352C109.567 102.318 114.757 101.074 117.023 97.1558Z" fill="#393229"/>
<path d="M125.809 92.454C125.96 95.2653 122.85 97.7178 118.863 97.9314C114.875 98.1451 111.519 96.0384 111.369 93.2272C111.218 90.4159 114.328 87.9634 118.315 87.7498C122.302 87.5361 125.658 89.6428 125.809 92.454Z" fill="#393229"/>
<g opacity="0.12">
<path d="M131.512 125.019C123.787 133.43 122.122 142.995 124.819 153.909C125.181 155.357 125.609 156.795 126.139 158.21C125.933 157.892 125.752 157.559 125.57 157.227C124.327 154.865 123.454 152.328 122.905 149.715C120.913 140.379 123.768 130.885 131.512 125.019Z" fill="#1E170A"/>
<path d="M120.636 107.533C119.341 111.304 118.55 115.147 118.769 119.104C119.051 124.834 121.299 130.358 124.59 135.038C123.644 134.23 122.821 133.283 122.069 132.293C116.615 125.091 115.792 115.261 120.636 107.532V107.533Z" fill="#1E170A"/>
<path d="M104.996 99.4906C104.24 106.411 104.524 113.466 111.286 117.241C113.273 118.349 115.486 119.05 117.752 119.418C117.46 119.453 117.166 119.461 116.872 119.469C114.786 119.482 112.717 119.061 110.8 118.201C103.33 114.802 102.468 106.48 104.996 99.4896V99.4906Z" fill="#1E170A"/>
<path d="M67.061 107.533C77.0386 111.486 85.8783 109.855 93.9813 102.931C95.0406 102.028 96.06 101.069 97.0118 100.026C96.8396 100.335 96.6424 100.629 96.4463 100.925C95.0246 102.977 93.2714 104.777 91.2912 106.305C84.0395 111.927 74.8175 112.435 67.061 107.534V107.533Z" fill="#1E170A"/>
<path d="M57.9038 119.418C66.0256 119.836 73.8528 116.915 80.8895 113.104C83.2649 111.818 85.5966 110.423 87.8545 108.934C87.6206 109.183 87.3727 109.418 87.1258 109.654C84.8708 111.754 82.344 113.554 79.6799 115.102C77.1571 116.56 74.4512 117.781 71.6715 118.66C71.2086 118.792 70.6431 118.975 70.1772 119.09C69.3897 119.294 68.4409 119.505 67.6464 119.649C67.1725 119.718 66.5812 119.824 66.1063 119.874C65.2531 119.976 64.3819 120.028 63.5218 120.057C63.0479 120.048 62.4416 120.057 61.9697 120.03L60.9393 119.952C60.6326 119.933 60.2185 119.863 59.9158 119.821C59.2348 119.741 58.5658 119.569 57.9028 119.418H57.9038Z" fill="#1E170A"/>
<path d="M87.8545 107.08C91.9483 109.496 96.7131 110.104 101.392 110.225C102.967 110.268 104.55 110.257 106.169 110.236C105.793 110.389 105.406 110.515 105.016 110.626C103.845 110.962 102.645 111.176 101.432 111.3C96.725 111.76 91.0722 110.845 87.8535 107.08H87.8545Z" fill="#1E170A"/>
<path d="M76.8505 99.739C80.9443 102.156 85.7091 102.764 90.3883 102.884C91.9632 102.928 93.5462 102.916 95.165 102.895C94.7887 103.048 94.4024 103.174 94.0121 103.286C92.8413 103.621 91.6407 103.835 90.4281 103.959C85.721 104.419 80.0682 103.504 76.8495 99.739H76.8505Z" fill="#1E170A"/>
<path d="M100.086 95.0248C94.5278 93.089 88.8819 92.9579 83.1206 93.8711C81.225 94.1652 79.3374 94.5518 77.4349 95.0248C77.853 94.7654 78.2901 94.5379 78.7341 94.3262C82.7642 92.4471 87.3269 91.6402 91.7572 92.0834C94.707 92.3865 97.648 93.3126 100.086 95.0248Z" fill="#1E170A"/>
<path d="M129.005 105.791C126.478 104.248 123.898 103.583 120.994 103.179C120.048 103.04 119.091 102.928 118.084 102.785C118.314 102.67 118.554 102.585 118.796 102.507C122.299 101.429 127.145 102.367 129.005 105.791Z" fill="#1E170A"/>
<path d="M117.753 101.592C116.837 100.302 115.875 99.0176 114.862 97.8012C107.505 88.8896 97.5434 84.4109 86.0067 84.4278C84.1998 84.4318 82.3839 84.5272 80.5769 84.7925C81.01 84.6454 81.454 84.5321 81.899 84.4198C90.455 82.4503 99.8701 84.076 107.117 89.0992C111.681 92.2364 115.324 96.6346 117.755 101.592H117.753Z" fill="#1E170A"/>
<path d="M54.6552 133.261C58.1746 131.655 61.439 129.748 64.3799 127.272C65.3367 126.463 66.2795 125.594 67.1576 124.702C69.3011 122.513 71.2175 120.119 72.8801 117.536C72.5934 118.54 72.1643 119.499 71.6904 120.429C68.3025 126.902 61.9428 132.03 54.6562 133.261H54.6552Z" fill="#1E170A"/>
<path d="M54.6552 146.764C55.5124 145.687 56.4124 144.638 57.2666 143.56C58.525 141.97 59.7237 140.334 60.7989 138.617C62.2753 136.224 63.5636 133.723 64.4407 131.038C64.4715 131.439 64.4576 131.842 64.4228 132.242C63.8394 138.036 59.5793 143.796 54.6552 146.764Z" fill="#1E170A"/>
<path d="M131.512 125.019C136.24 129.759 138.182 136.131 136.598 142.668C135.18 148.481 131.563 153.608 127.066 157.48C126.762 157.73 126.459 157.981 126.139 158.21C128.235 155.906 130.108 153.413 131.707 150.757C136.977 141.923 137.517 133.648 131.512 125.019Z" fill="#1E170A"/>
<path d="M123.781 105.202C127.87 107.063 130.644 110.752 131.77 115.046C132.584 118.288 132.599 121.844 131.513 125.019C131.657 120.219 131.029 115.253 128.646 111.019C128.133 110.08 127.491 109.172 126.832 108.331C126.682 108.15 126.311 107.721 126.163 107.54C125.99 107.358 125.739 107.092 125.569 106.906C125.002 106.308 124.386 105.764 123.782 105.202H123.781Z" fill="#1E170A"/>
<path d="M110.995 86.9985C111.666 87.7359 111.575 88.9015 111.086 89.7114C110.602 90.5173 109.753 91.1334 108.788 91.1175C109.122 90.3056 109.499 89.7094 109.904 89.0178C110.328 88.3182 110.596 87.7955 110.994 86.9985H110.995Z" fill="#1E170A"/>
<path d="M116.785 89.0575C117.941 90.2778 118.464 92.1052 118.079 93.7548C117.735 95.2424 116.612 96.5154 115.157 96.9655C114.958 97.0261 114.754 97.0738 114.544 97.0838C114.831 96.7857 115.088 96.4975 115.324 96.2033C116.329 94.986 116.883 93.5998 116.93 92.0387C116.93 91.9522 116.936 91.7276 116.939 91.6382C116.937 91.3709 116.926 91.0837 116.913 90.8144C116.884 90.2271 116.808 89.6518 116.785 89.0565V89.0575Z" fill="#1E170A"/>
</g>
<path d="M137.113 119.632C137.889 114.16 135.36 108.409 130.324 105.066C129.02 103.087 127.229 101.359 125.007 100.078C123.703 99.3266 122.34 98.781 120.957 98.4303C123.307 97.522 124.874 95.7283 124.768 93.7489C124.622 91.033 121.381 88.9979 117.529 89.2046C116.846 89.2414 116.19 89.3467 115.574 89.5087C114.9 88.6302 114.04 87.8621 113.011 87.2688C112.386 86.9091 111.736 86.6348 111.077 86.442C111.067 83.6189 109.521 80.8176 106.792 79.2455C105.228 78.3442 103.508 77.9825 101.862 78.0998C101.335 77.431 100.67 76.8457 99.879 76.3896C97.4986 75.0173 94.6623 75.213 92.6602 76.6658C90.6003 75.3363 87.8326 74.6893 84.8957 75.057C80.8019 75.5698 77.5106 77.911 76.2263 80.8544C75.5622 81.3373 74.9898 81.9584 74.5567 82.7067C73.4875 84.556 73.5173 86.7501 74.4362 88.5915C73.9912 89.142 73.583 89.7322 73.2187 90.3623C72.234 92.0645 71.6556 93.8949 71.4525 95.7492C67.5459 94.8996 63.0469 97.0778 60.5859 101.334C59.3912 103.4 58.8605 105.637 58.9392 107.729C54.0688 107.814 50.1433 112.534 50.1433 118.348C50.1433 119.949 50.443 121.467 50.9756 122.828C48.8929 124.518 47.522 127.393 47.522 130.657C47.522 133.623 48.6549 136.266 50.4241 137.993C49.9094 139.251 49.6186 140.668 49.6186 142.168C49.6186 145.181 50.7884 147.861 52.6064 149.585C52.1195 150.815 51.8467 152.193 51.8467 153.649C51.8467 157.648 53.9056 161.062 56.8097 162.429C56.6494 163.181 56.5647 163.97 56.5647 164.783C56.5647 168.697 58.537 172.053 61.3435 173.475C62.2992 177.366 65.274 180.204 68.7973 180.204C73.0932 180.204 76.5747 175.988 76.5747 170.786C76.5747 166.872 74.6025 163.516 71.796 162.094C71.11 159.299 69.3817 157.05 67.1566 156.003C67.3169 155.251 67.4015 154.462 67.4015 153.649C67.4015 150.636 66.2317 147.956 64.4138 146.232C64.9007 145.002 65.1734 143.624 65.1734 142.168C65.1734 141.035 65.0082 139.95 64.7055 138.944C64.7722 138.984 64.8379 139.024 64.9046 139.062C72.1753 143.253 81.2997 141.065 85.284 134.176C85.5488 133.719 85.7828 133.252 85.9888 132.779C89.8039 133.348 93.6508 132.475 96.7002 130.359C97.9865 132.224 99.7128 133.852 101.831 135.074C105.82 137.372 110.364 137.751 114.314 136.489C114.332 136.525 114.351 136.562 114.37 136.599C113.624 137.378 112.961 138.255 112.4 139.224C110.518 142.48 110.12 146.202 110.992 149.666C110.034 150.567 109.194 151.615 108.507 152.804C107.561 154.439 106.99 156.193 106.766 157.973C103.827 159.09 101.274 161.143 99.6142 164.013C95.6299 170.901 98.2941 179.882 105.565 184.072C112.835 188.262 121.96 186.074 125.944 179.186C126.89 177.55 127.46 175.796 127.684 174.016C130.623 172.9 133.177 170.846 134.837 167.977C136.719 164.721 137.116 160.999 136.245 157.535C137.203 156.634 138.043 155.586 138.73 154.397C141.189 150.145 141.115 145.097 138.988 140.87C139.734 140.091 140.397 139.214 140.957 138.245C144.529 132.069 142.757 124.212 137.112 119.633L137.113 119.632Z" stroke="#332D24" stroke-width="0.81" stroke-miterlimit="10"/>
<g opacity="0.54">
<path d="M131.512 125.019C123.817 132.431 121.685 141.937 123.985 152.195C123.817 151.599 123.658 150.999 123.529 150.393C123.122 148.573 122.881 146.72 122.821 144.855C122.532 137.148 125.653 130.04 131.513 125.02L131.512 125.019Z" fill="#1E170A"/>
<path d="M120.636 107.533C116.932 115.842 117.624 124.361 122.429 132.061C123.073 133.103 123.79 134.104 124.59 135.039C124.155 134.603 123.755 134.133 123.372 133.651C119.723 129.057 117.634 123.16 117.938 117.277C117.963 116.83 118.014 116.338 118.049 115.889C118.113 115.446 118.181 114.952 118.25 114.512C118.315 114.21 118.464 113.445 118.531 113.149C118.611 112.85 118.812 112.113 118.893 111.808C118.984 111.541 119.243 110.754 119.335 110.492C119.45 110.167 119.727 109.527 119.851 109.205C120.052 108.704 120.405 108.025 120.635 107.534L120.636 107.533Z" fill="#1E170A"/>
<path d="M104.996 99.4905C103.616 106.463 104.076 113.939 111.109 117.591C113.166 118.644 115.444 119.258 117.752 119.418C116.586 119.429 115.423 119.262 114.285 119.011C104.551 116.685 102.675 108.168 104.995 99.4905H104.996Z" fill="#1E170A"/>
<path d="M67.061 107.533C76.6982 112.176 86.4279 110.37 94.1515 103.107C95.1789 102.155 96.1456 101.132 97.0118 100.026C96.6156 100.606 96.1755 101.157 95.7156 101.691C94.3367 103.294 92.7746 104.739 91.0623 105.986C83.6901 111.384 75.0764 111.838 67.061 107.533Z" fill="#1E170A"/>
<path d="M57.9037 119.418C63.3037 120.09 68.7704 118.969 73.7911 116.989C78.8217 114.983 83.5576 112.225 87.8545 108.934C81.9995 113.929 74.1923 118.136 66.5513 119.41C66.2058 119.481 65.3875 119.569 65.03 119.621C64.5591 119.679 63.9757 119.709 63.5008 119.751C63.0289 119.758 62.4366 119.795 61.9667 119.788C61.8303 119.782 60.8198 119.755 60.6894 119.749C60.4952 119.735 60.1159 119.7 59.9258 119.684C59.2458 119.646 58.5748 119.516 57.9037 119.42V119.418Z" fill="#1E170A"/>
<path d="M87.8545 107.08C91.0324 109.518 95.0893 110.408 99.0248 110.585C101.41 110.694 103.8 110.566 106.17 110.236C104.615 110.618 103.017 110.815 101.418 110.908C96.6862 111.145 91.4684 110.386 87.8545 107.08Z" fill="#1E170A"/>
<path d="M76.8505 99.739C80.0283 102.178 84.0853 103.068 88.0208 103.245C90.4072 103.353 92.7955 103.226 95.166 102.895C93.6109 103.278 92.013 103.474 90.4141 103.568C85.6822 103.804 80.4644 103.045 76.8505 99.739Z" fill="#1E170A"/>
<path d="M100.086 95.0247C94.7797 92.5504 88.7137 92.3665 83.0399 93.4875C81.1404 93.8641 79.2548 94.355 77.4349 95.0247C78.316 94.6104 79.2329 94.2745 80.1578 93.9714C86.5951 91.9124 94.043 91.665 100.086 95.0247Z" fill="#1E170A"/>
<path d="M129.005 105.791C127.928 104.815 126.647 104.067 125.271 103.602C122.971 102.812 120.505 102.646 118.083 102.785C119.042 102.565 120.032 102.489 121.019 102.496C123.951 102.52 127.103 103.443 129.004 105.791H129.005Z" fill="#1E170A"/>
<path d="M117.753 101.592C111.778 91.8478 102.927 85.6132 91.4356 84.3781C87.8257 84.0014 84.1441 84.0819 80.5759 84.7934C81.458 84.5619 82.358 84.4029 83.261 84.2757C91.4018 83.1449 100.022 84.8372 106.852 89.4907C111.407 92.5574 115.072 96.8274 117.753 101.593V101.592Z" fill="#1E170A"/>
<path d="M54.6552 133.261C61.2778 131.031 66.9605 126.588 70.896 120.844C71.6197 119.78 72.3037 118.689 72.8791 117.535C71.6765 120.399 69.8516 122.98 67.7609 125.268C64.2446 129.067 59.6769 131.943 54.6552 133.261Z" fill="#1E170A"/>
<path d="M54.6552 146.764C58.9013 142.739 62.6118 137.893 64.1858 132.189C64.2854 131.809 64.379 131.428 64.4407 131.038C64.3899 131.826 64.2236 132.604 64.0235 133.367C62.5391 138.721 58.972 143.344 54.6552 146.764Z" fill="#1E170A"/>
<path d="M57.2766 159.1C62.0224 154.695 63.908 148.705 63.2788 142.345C63.1952 141.465 63.0688 140.587 62.8687 139.726C63.01 140.147 63.1206 140.578 63.2181 141.011C63.8871 144.059 63.8463 147.27 63.0499 150.29C62.1081 153.794 60.1199 156.841 57.2766 159.1Z" fill="#1E170A"/>
<path d="M131.512 125.019C138.512 132.995 137.959 142.588 132.282 151.126C130.546 153.74 128.499 156.152 126.139 158.21C127.271 157.131 128.323 155.972 129.304 154.758C133.184 149.979 136.272 144.14 136.312 137.867C136.365 133.137 134.43 128.68 131.512 125.019Z" fill="#1E170A"/>
<path d="M123.781 105.202C124.141 105.434 124.633 105.721 124.968 105.974C125.177 106.13 125.63 106.451 125.818 106.615C126.066 106.83 126.39 107.085 126.623 107.313C126.806 107.494 127.22 107.878 127.382 108.063C127.611 108.325 127.876 108.593 128.087 108.866L128.531 109.424C128.802 109.804 129.088 110.202 129.328 110.605C129.434 110.786 129.6 111.034 129.693 111.218C131.979 115.355 132.518 120.434 131.512 125.019C132.141 120.417 131.599 115.517 129.383 111.388C129.236 111.101 129.019 110.762 128.859 110.48C128.565 110.02 128.194 109.482 127.858 109.047C127.623 108.725 127.329 108.411 127.076 108.102C126.914 107.927 126.514 107.511 126.352 107.338C126.116 107.119 125.817 106.838 125.582 106.617C125.461 106.512 125.027 106.158 124.905 106.054C124.585 105.781 124.114 105.46 123.78 105.2L123.781 105.202Z" fill="#1E170A"/>
<path d="M110.995 86.9985C111.537 88.6669 110.316 90.4705 108.789 91.1174C109.092 90.8303 109.375 90.5391 109.637 90.233C110.437 89.3248 110.967 88.2257 110.996 86.9985H110.995Z" fill="#1E170A"/>
<path d="M116.785 89.0575C117.977 91.1592 118.203 93.8641 116.483 95.7542C115.953 96.3405 115.288 96.8194 114.545 97.0848C116.191 96.099 117.344 94.3808 117.378 92.4401C117.411 91.2834 117.144 90.1635 116.785 89.0585V89.0575Z" fill="#1E170A"/>
</g>
<path d="M61.2359 159.54C66.8971 159.54 71.4863 154.926 71.4863 149.234C71.4863 143.542 66.8971 138.928 61.2359 138.928C55.5748 138.928 50.9855 143.542 50.9855 149.234C50.9855 154.926 55.5748 159.54 61.2359 159.54Z" fill="#AFA48E"/>
<path d="M122.326 159.289C120.777 158.553 119.538 157.51 118.606 156.314C118.312 155.938 118.489 155.394 118.933 155.22C119.588 154.964 120.168 154.471 120.531 153.752C121.001 152.819 120.942 151.668 120.38 150.79C119.671 149.684 118.445 149.232 117.314 149.434C116.855 149.515 116.445 149.097 116.506 148.631C116.787 146.447 117.757 144.335 119.423 142.66C123.428 138.631 129.916 138.634 133.914 142.655C138.176 146.942 137.903 154.066 133.084 157.988C130.069 160.443 125.833 160.954 122.326 159.289Z" fill="#AFA48E"/>
<path d="M128.078 147.711V151.478C128.078 169.382 113.636 183.9 95.8211 183.9H92.0807C74.265 183.9 59.8312 169.382 59.8312 151.478V147.711C59.8312 138.325 63.7965 129.87 70.1353 123.952C70.1353 123.952 70.1353 123.951 70.1383 123.95C71.336 122.83 72.6193 121.803 73.9762 120.876C75.5473 119.8 77.2168 118.865 78.971 118.086C80.4783 117.406 82.0424 116.847 83.6552 116.408C86.3392 115.678 89.1637 115.289 92.0807 115.289H95.8211C102.52 115.289 108.755 117.343 113.911 120.862C120.302 125.218 125.053 131.821 127.045 139.542C127.719 142.152 128.078 144.89 128.078 147.711Z" fill="#E5D9BF"/>
<path d="M82.3121 148.349C83.3469 148.349 84.1858 147.505 84.1858 146.465C84.1858 145.424 83.3469 144.581 82.3121 144.581C81.2773 144.581 80.4385 145.424 80.4385 146.465C80.4385 147.505 81.2773 148.349 82.3121 148.349Z" fill="#686053"/>
<path d="M106.292 148.349C107.326 148.349 108.165 147.505 108.165 146.465C108.165 145.424 107.326 144.581 106.292 144.581C105.257 144.581 104.418 145.424 104.418 146.465C104.418 147.505 105.257 148.349 106.292 148.349Z" fill="#686053"/>
<path d="M96.1018 153.299C96.1018 153.908 95.0385 154.401 93.7264 154.401C92.4142 154.401 91.351 153.909 91.351 153.299C91.351 152.69 92.4142 152.197 93.7264 152.197C95.0385 152.197 96.1018 152.69 96.1018 153.299Z" fill="#686053"/>
<path d="M85.499 140.56C82.4177 140.112 79.2558 141.224 76.3626 142.211C75.1729 142.617 74.2789 142.036 73.9763 141.053C73.6736 140.07 73.9394 139.121 75.2118 138.661C78.308 137.542 82.0464 136.397 85.3795 136.839C86.7494 137.021 87.3418 137.761 87.3747 138.825C87.4085 139.888 86.7644 140.745 85.498 140.561L85.499 140.56Z" fill="#686053"/>
<path d="M102.884 140.56C105.965 140.112 109.127 141.224 112.02 142.211C113.21 142.617 114.104 142.036 114.406 141.053C114.709 140.07 114.443 139.121 113.171 138.661C110.075 137.542 106.336 136.397 103.003 136.839C101.633 137.021 101.041 137.761 101.008 138.825C100.974 139.888 101.618 140.745 102.885 140.561L102.884 140.56Z" fill="#686053"/>
<path d="M93.9544 168.912C91.4057 168.986 89.6037 168.302 88.8949 167.168C88.5106 166.554 88.9706 165.757 89.6953 165.757H98.2134C98.9392 165.757 99.3992 166.554 99.0139 167.168C98.304 168.302 96.5021 168.985 93.9534 168.912H93.9544Z" fill="#686053"/>
<path d="M92.4083 115.631L93.9584 110.921L95.5005 115.633" fill="#D1C6B0"/>
<path d="M127.045 139.542C98.5967 104.596 70.4609 123.728 70.1383 123.95C71.336 122.83 72.6193 121.803 73.9762 120.876C75.5472 119.8 77.2168 118.865 78.971 118.086C80.4783 117.406 82.0423 116.847 83.6552 116.408C86.3392 115.678 89.1637 115.289 92.0807 115.289H95.821C102.52 115.289 108.755 117.343 113.911 120.862C120.302 125.218 125.053 131.821 127.045 139.542Z" fill="#D1C6B0"/>
<path opacity="0.2" d="M88 156C87.9946 156.284 87.9471 156.579 87.8536 156.855C87.8156 156.997 87.7614 157.131 87.7071 157.267C87.6556 157.406 87.5919 157.535 87.5295 157.666C87.276 158.191 86.9669 158.682 86.6374 159.156C85.9703 160.098 85.2097 160.962 84.4057 161.777C83.599 162.59 82.7448 163.35 81.8486 164.062C80.9497 164.77 80.0155 165.438 79 166C79.7294 165.11 80.5036 164.282 81.2832 163.463C82.0655 162.648 82.8573 161.849 83.6478 161.053C84.4369 160.255 85.2273 159.463 85.9879 158.65C86.3676 158.243 86.7391 157.83 87.0889 157.4C87.4373 156.968 87.7668 156.526 87.9986 156H88Z" fill="#A0998D"/>
<path opacity="0.2" d="M100.001 155C100.232 155.578 100.563 156.063 100.911 156.54C101.261 157.013 101.632 157.467 102.012 157.915C102.773 158.81 103.563 159.681 104.352 160.558C105.143 161.433 105.934 162.313 106.717 163.209C107.498 164.11 108.271 165.019 109 166C107.984 165.382 107.05 164.647 106.151 163.868C105.255 163.086 104.4 162.249 103.594 161.354C102.79 160.46 102.03 159.508 101.363 158.471C101.033 157.95 100.724 157.408 100.47 156.833C100.409 156.688 100.344 156.546 100.293 156.394C100.239 156.245 100.184 156.097 100.146 155.94C100.054 155.637 100.007 155.312 100 155H100.001Z" fill="#A0998D"/>
<path d="M33.0652 204.685C31.9771 206.622 32 212.86 32 212.86H79.7784L70.3344 188.254C70.3344 188.254 39.3274 193.531 33.0642 204.686L33.0652 204.685Z" fill="#CAB080"/>
<g opacity="0.38">
<path d="M32.7327 205.504C37.8271 193.638 70.4868 188.253 70.4868 188.253L71.3529 190.911C40.6893 196.115 32.7327 205.504 32.7327 205.504Z" fill="#B59F78"/>
</g>
<path d="M67.1945 190.796C67.5997 188.559 72.463 186.29 72.463 186.29C72.463 186.29 81.8851 198.597 95.4607 204.419H75.1988C71.0453 201.741 66.5453 194.385 67.1955 190.796H67.1945Z" fill="#53483B"/>
<path d="M109.076 193.877L77.6439 191.209V177.788H109.076V193.877Z" fill="#E5D9BF"/>
<path d="M77.615 180.463C92.3047 193.145 112.885 204.419 112.885 204.419H95.4597C81.8841 198.597 72.462 186.29 72.462 186.29L77.6141 180.464L77.615 180.463Z" fill="#E7E5DA"/>
<path d="M158.836 212.86H101.709L116.78 187.705C116.78 187.705 162.067 195.453 158.837 212.86H158.836Z" fill="#CAB080"/>
<path d="M150.504 201.111C153.886 203.424 158.531 207.724 157.095 205.504C148.977 192.955 116.817 187.705 116.817 187.705L115.951 190.453C126.391 192.548 143.3 196.184 150.504 201.111Z" fill="#B59F78"/>
<path d="M109.044 181.036C94.3546 194.148 60.2503 212.806 60.2503 212.806L63.0757 212.86H85.715C99.2906 206.84 114.651 185.674 114.651 185.674L109.044 181.036Z" fill="#EFEDE2"/>
<path d="M119.849 190.411C119.444 188.097 114.581 185.751 114.581 185.751C114.581 185.751 95.6687 206.981 82.0931 213.001L104.491 212.946C108.645 210.178 120.498 194.121 119.848 190.412L119.849 190.411Z" fill="#53483B"/>
</g>
<defs>
<filter id="filter0_d_1710_6230" x="0" y="0" width="192" height="237" filterUnits="userSpaceOnUse" color-interpolation-filters="sRGB">
<feFlood flood-opacity="0" result="BackgroundImageFix"/>
<feColorMatrix in="SourceAlpha" type="matrix" values="0 0 0 0 0 0 0 0 0 0 0 0 0 0 0 0 0 0 127 0" result="hardAlpha"/>
<feOffset dy="4"/>
<feGaussianBlur stdDeviation="10"/>
<feComposite in2="hardAlpha" operator="out"/>
<feColorMatrix type="matrix" values="0 0 0 0 0 0 0 0 0 0 0 0 0 0 0 0 0 0 0.1 0"/>
<feBlend mode="normal" in2="BackgroundImageFix" result="effect1_dropShadow_1710_6230"/>
<feBlend mode="normal" in="SourceGraphic" in2="effect1_dropShadow_1710_6230" result="shape"/>
</filter>
<clipPath id="clip0_1710_6230">
<rect width="127" height="140" fill="white" transform="translate(32 73)"/>
</clipPath>
</defs>
</svg>
