<svg width="96" height="96" viewBox="0 0 96 96" fill="none" xmlns="http://www.w3.org/2000/svg">
<circle cx="48" cy="48" r="48" fill="#FFD12E"/>
<g clip-path="url(#clip0_1743_5239)">
<path d="M33.065 41.1245C35.7813 38.4559 35.7976 34.1439 33.1014 31.4933C30.4052 28.8426 26.0175 28.8571 23.3012 31.5257C20.5849 34.1943 20.5686 38.5063 23.2648 41.1569C25.961 43.8076 30.3487 43.7931 33.065 41.1245Z" fill="#AD8700"/>
<path d="M52.4862 69.6394C52.1009 68.5702 52.0065 67.5011 52.1349 66.5025C52.1765 66.1869 52.5202 66.0161 52.8149 66.1424C53.2493 66.328 53.7593 66.3688 54.2768 66.2018C54.9454 65.9864 55.4667 65.4185 55.6178 64.7428C55.8066 63.8927 55.4402 63.1057 54.8056 62.6713C54.5487 62.4931 54.5525 62.107 54.8056 61.9177C55.9804 61.023 57.4498 60.4884 59.0439 60.481C62.8743 60.4662 65.9643 63.5066 65.9492 67.2635C65.9341 71.2691 62.4021 74.484 58.2356 74.0682C55.6253 73.8084 53.3664 72.0636 52.49 69.6431L52.4862 69.6394Z" fill="#AD8700"/>
<path d="M60.7514 66.9033L58.9533 68.6704C50.4087 77.0678 36.5982 77.116 28.114 68.7744L26.331 67.0221C17.8431 58.6804 17.896 45.1155 26.4406 36.7181L28.2387 34.951C33.5649 29.7166 40.9348 27.7231 47.7833 28.9853C49.045 29.2154 50.2878 29.5607 51.4928 30.0136C52.5354 30.3997 53.5477 30.8712 54.5261 31.4206C56.1542 32.3338 57.6841 33.4735 59.0742 34.8397L60.8571 36.5919C64.0491 39.7288 66.0398 43.612 66.8142 47.677C68.1061 54.4149 66.0776 61.6652 60.7476 66.9033H60.7514Z" fill="#E0AF00"/>
<path d="M40.4387 45.7709C40.9358 45.2823 40.9394 44.4937 40.4467 44.0095C39.954 43.5252 39.1516 43.5288 38.6544 44.0173C38.1573 44.5059 38.1537 45.2945 38.6464 45.7787C39.1391 46.263 39.9416 46.2594 40.4387 45.7709Z" fill="#AD8700"/>
<path d="M51.8602 56.9971C52.3574 56.5085 52.3609 55.7199 51.8682 55.2357C51.3755 54.7514 50.5731 54.755 50.0759 55.2435C49.5788 55.7321 49.5752 56.5207 50.0679 57.0049C50.5606 57.4892 51.3631 57.4856 51.8602 56.9971Z" fill="#AD8700"/>
<path d="M42.8537 54.5524C42.5628 54.8382 41.8224 54.5709 41.1954 53.9584C40.5683 53.3458 40.3001 52.6145 40.591 52.3287C40.8819 52.0428 41.6222 52.3101 42.2493 52.9226C42.8764 53.5352 43.1446 54.2665 42.8537 54.5524Z" fill="#AD8700"/>
<path d="M43.8812 43.6158C42.627 41.9638 40.591 41.006 38.74 40.1113C37.9808 39.7438 37.8297 39.0533 38.1545 38.4519C38.4794 37.8505 39.0573 37.5275 39.8846 37.9099C41.8942 38.8342 44.2211 40.0482 45.5961 41.8153C46.1628 42.5429 46.091 43.1666 45.5961 43.6789C45.1051 44.1949 44.3873 44.2951 43.8736 43.6158H43.8812Z" fill="#AD8700"/>
<path d="M52.1614 51.7532C53.8424 52.9857 54.8169 54.9867 55.7273 56.8057C56.1013 57.5519 56.8039 57.7004 57.4158 57.3811C58.0278 57.0619 58.3564 56.4939 57.9674 55.6809C57.0268 53.7059 55.7915 51.4191 53.9935 50.0678C53.2531 49.5109 52.6185 49.5815 52.0972 50.0678C51.5721 50.5504 51.4701 51.2557 52.1614 51.7606V51.7532Z" fill="#AD8700"/>
<path d="M66.818 47.677C64.8424 46.8046 61.1556 42.9512 56.7661 38.6374C52.3994 34.3459 48.6332 30.8786 47.7871 28.989C48.9581 29.2043 50.114 29.5162 51.2435 29.9282C51.3303 29.9542 51.4135 29.9914 51.5003 30.021C52.5429 30.4071 53.5553 30.8786 54.5336 31.428C55.4025 31.9181 56.2448 32.4712 57.057 33.0912C57.7596 33.6295 58.432 34.2123 59.0817 34.8471L60.8647 36.5994C64.0567 39.7363 66.0474 43.6194 66.8218 47.6845L66.818 47.677Z" fill="#4E4A4B"/>
<path d="M40.081 66.7623C40.081 66.7623 41.8413 63.0647 39.0234 59.9204C36.2054 56.7723 34.1882 54.9792 32.0275 55.5101C29.8668 56.041 27.7476 55.8516 28.1707 55.4358C28.5938 55.0201 32.3372 51.1147 36.1563 54.337C39.9753 57.5593 41.9169 59.731 42.9217 61.9288C43.9227 64.1265 40.6023 68.5293 40.0848 66.7623H40.081Z" fill="#AD8700"/>
<path d="M34.6679 61.1566C33.4176 59.9983 32.885 58.8326 33.089 57.9714C33.1985 57.5036 33.7991 57.344 34.1429 57.6855L38.1999 61.6726C38.5474 62.0141 38.385 62.6007 37.909 62.7083C37.0289 62.9088 35.8465 62.3854 34.6642 61.1566H34.6679Z" fill="#AD8700"/>
<path d="M71.0315 41.9985C74.8316 38.2639 76.1291 33.4841 73.9296 31.3225C71.7301 29.1609 66.8664 30.436 63.0663 34.1706C59.2662 37.9052 57.9687 42.6851 60.1682 44.8467C62.3677 47.0083 67.2313 45.7331 71.0315 41.9985Z" fill="#C79B00"/>
<path d="M61.598 32.7287C65.3981 28.9941 66.6956 24.2143 64.4961 22.0527C62.2966 19.8911 57.433 21.1663 53.6329 24.9009C49.8328 28.6355 48.5352 33.4153 50.7347 35.5769C52.9343 37.7385 57.7979 36.4633 61.598 32.7287Z" fill="#C79B00"/>
<path d="M37.2026 29.6016C37.2026 29.6016 57.6841 41.7521 66.2476 58.1459C71.3434 53.1379 71.3434 45.0227 66.2476 40.0184L55.648 29.6016C50.5522 24.5936 42.2946 24.5936 37.2026 29.6016Z" fill="#AD8700"/>
<path d="M53.8386 23.7805C53.8386 23.7805 53.8764 23.7879 53.899 23.7954C53.8801 23.7917 53.8613 23.7842 53.8386 23.7805Z" fill="#2A341C"/>
<path d="M53.899 23.7954C53.899 23.7954 53.9368 23.8065 53.9595 23.8103C53.9406 23.8065 53.9179 23.7991 53.899 23.7954Z" fill="#2A341C"/>
<path d="M54.409 23.9402C54.2163 23.8845 54.0652 23.84 53.9595 23.8103C54.1106 23.8474 54.2617 23.892 54.409 23.9402Z" fill="#2A341C"/>
<path d="M72.1858 41.8635C72.0007 41.2918 71.8043 40.7387 71.5965 40.2041C71.8534 40.7387 72.0498 41.2955 72.1858 41.8635Z" fill="#2A341C"/>
<path d="M69.874 49.9044C69.1109 50.6543 67.8304 50.4984 67.2826 49.5852C61.1745 39.391 49.9856 31.4317 45.7359 28.64C44.8671 28.072 44.7462 26.8618 45.4828 26.1379L45.5886 26.0339C45.6528 25.9708 45.717 25.9114 45.7813 25.852C45.9097 25.7332 46.0419 25.6182 46.1741 25.5105C48.3348 23.736 51.1679 23.1531 53.7706 23.762C53.7706 23.762 53.7819 23.762 53.8084 23.7694C53.8159 23.7694 53.8273 23.7731 53.8386 23.7768C53.8575 23.7805 53.8764 23.7842 53.899 23.7917C54.0086 23.8214 54.1786 23.8659 54.409 23.9365C54.4166 23.9365 54.4279 23.9402 54.4355 23.9439C56.1353 24.4599 60.8118 26.1676 65.1521 30.396C65.2466 30.4888 65.341 30.5816 65.4355 30.6744C67.785 33.028 70.0137 36.1353 71.5965 40.2003C71.8043 40.7349 72.0007 41.288 72.1858 41.8597C72.3444 42.5131 72.4238 43.1813 72.4238 43.8496C72.4238 45.8023 71.7476 47.7587 70.3915 49.3439C70.2819 49.4738 70.1686 49.6 70.0477 49.7225C69.9911 49.7819 69.9306 49.8413 69.8702 49.9007L69.874 49.9044Z" fill="#AD8700"/>
<path d="M70.0515 49.7263C69.2431 44.7592 67.479 40.4194 64.8008 36.8258C62.6212 33.9005 59.8372 31.4578 56.5206 29.5645C51.5872 26.7505 46.922 26.0006 45.7775 25.8558C45.9059 25.737 46.0381 25.6219 46.1703 25.5143C47.7493 25.7519 52.1161 26.602 56.7057 29.2192C58.4207 30.1956 59.9959 31.3204 61.42 32.5789C61.4049 32.4675 61.3935 32.3525 61.3935 32.2299C61.3935 31.4615 61.76 30.8378 62.2132 30.8378C62.6665 30.8378 63.033 31.4615 63.033 32.2299C63.033 32.319 63.0292 32.4081 63.0178 32.4935L65.1446 30.4035L65.4279 30.6819L63.3012 32.7719C63.388 32.7608 63.4787 32.7571 63.5694 32.7571C64.3513 32.7571 64.9859 33.1172 64.9859 33.5627C64.9859 34.0082 64.3513 34.3683 63.5694 34.3683C63.456 34.3683 63.3465 34.3608 63.2407 34.346C63.9056 35.0588 64.5288 35.8049 65.1143 36.5845C67.7775 40.1558 69.5491 44.4473 70.3915 49.3476C70.2819 49.4776 70.1686 49.6038 70.0477 49.7263H70.0515Z" fill="#FFD747"/>
</g>
<defs>
<clipPath id="clip0_1743_5239">
<rect width="55" height="54" fill="white" transform="translate(20 21)"/>
</clipPath>
</defs>
</svg>
