<svg width="152" height="197" viewBox="0 0 152 197" fill="none" xmlns="http://www.w3.org/2000/svg">
<rect width="152" height="197" rx="12" fill="white"/>
<path d="M0 147H152V185C152 191.627 146.627 197 140 197H12C5.37258 197 0 191.627 0 185V147Z" fill="#C6A15D"/>
<path d="M30.1172 25.9648V27.957H23.1641V33.7773H20.7031V27.957H13.8477V25.9648H30.1172ZM15.7617 24.0508V16.8828H28.1641V24.0508H15.7617ZM18.2227 22.0977H25.6836V18.8555H18.2227V22.0977ZM38.0469 20.8672C38.0371 23.7383 39.5215 26.8145 42.5 28.0547L41.1523 30.0078C39.0625 29.1191 37.6172 27.3516 36.8164 25.2031C36.0156 27.5371 34.541 29.4902 32.4414 30.457L31.0156 28.4844C33.9648 27.166 35.4883 23.875 35.4883 20.8672V19.7734H31.7188V17.7422H41.7578V19.7734H38.0469V20.8672ZM43.5156 33.7969V16.0234H46.0352V33.7969H43.5156ZM64.6094 23.6016V25.418H57.7734V26.5312H62.6758V30.8672H52.7734V31.8438H63.1445V33.6797H50.332V29.1875H60.2148V28.3086H50.3125V26.5312H55.293V25.418H48.4766V23.6016H64.6094ZM49.1016 21.2773C52.6562 21.1211 54.4629 20.2715 54.9805 19.2461H50V17.4102H55.293V16.0039H57.7539V17.4102H63.0859V19.2461H58.0566C58.5645 20.2715 60.3809 21.1211 63.9648 21.2773L63.2422 23.1133C59.9414 22.9473 57.6465 22.1172 56.5234 20.7793C55.4004 22.1172 53.1152 22.9473 49.7852 23.1133L49.1016 21.2773ZM78.6719 17.7031V19.6562H75.9375C76.0059 21.0918 77.0898 22.5469 79.2383 23.2305L78.1836 25.0469C76.543 24.5586 75.4297 23.582 74.7754 22.3711C74.1406 23.6895 73.0176 24.793 71.3867 25.3594L70.293 23.5039C72.4023 22.7129 73.4863 21.1211 73.5742 19.6562H70.8203V17.7031H73.5742V16.082H75.9375V17.7031H78.6719ZM73.4375 27.8789V26.0039H85.6055V30.6523H75.9375V31.7656H86.2109V33.6016H73.457V28.8555H83.1445V27.8789H73.4375ZM79.4727 25.2422V16.3555H81.8164V19.7148H83.2422V16.043H85.6055V25.3594H83.2422V21.6875H81.8164V25.2422H79.4727ZM102.48 16.043V29.1289H100V16.043H102.48ZM88.5352 19.1875V17.1953H96.7773V22.8594H90.9961V24.832C94.1797 24.8223 96.1914 24.7246 98.4961 24.2852L98.7695 26.2773C96.1816 26.7656 93.877 26.8633 90.1172 26.8633H88.5547V21.0234H94.2969V19.1875H88.5352ZM90.5273 33.4844V28.0352H93.0078V31.4922H102.949V33.4844H90.5273ZM111.797 20.8672C111.787 23.7383 113.271 26.8145 116.25 28.0547L114.902 30.0078C112.812 29.1191 111.367 27.3516 110.566 25.2031C109.766 27.5371 108.291 29.4902 106.191 30.457L104.766 28.4844C107.715 27.166 109.238 23.875 109.238 20.8672V19.7734H105.469V17.7422H115.508V19.7734H111.797V20.8672ZM117.266 33.7969V16.0234H119.785V33.7969H117.266Z" fill="black"/>
<path d="M75.1658 114.723C73.7535 114.723 72.6013 113.643 72.4898 112.226L69.0333 65.8694C68.9218 64.3043 70.1483 63 71.7093 63H78.6595C80.2205 63 81.447 64.3415 81.3355 65.8694L77.879 112.226C77.7675 113.643 76.6153 114.723 75.203 114.723H75.1658Z" fill="#B7BF75"/>
<path d="M79.5888 114.5C78.4738 114.313 77.6933 113.307 77.7676 112.189L80.5923 74.8128C80.7038 73.5458 81.8188 72.6515 83.0825 72.8378L88.6203 73.6949C89.8468 73.8812 90.6645 75.0737 90.4043 76.3034L82.0418 112.823C81.7816 113.941 80.7409 114.649 79.6259 114.462L79.5888 114.5Z" fill="#6D7C48"/>
<path d="M70.632 114.5C71.747 114.313 72.5275 113.307 72.4531 112.189L69.6285 74.8128C69.517 73.5458 68.4019 72.6515 67.1383 72.8378L61.6004 73.6949C60.3739 73.8812 59.5562 75.0737 59.8164 76.3034L68.179 112.823C68.4391 113.941 69.4798 114.649 70.5948 114.462L70.632 114.5Z" fill="#6D7C48"/>
<path d="M97.4657 125.791V143.827C97.4657 146.547 95.2728 148.746 92.5596 148.746H57.6599C54.9468 148.746 52.7539 146.547 52.7539 143.827V126.983C56.2848 127.021 63.1235 126.872 66.4313 125.418C71.0029 123.369 80.8149 124.636 83.3794 125.94C85.5723 127.058 93.9348 127.989 97.4285 125.791H97.4657Z" fill="#F0EDDA"/>
<path d="M78.2875 105.891H71.9691C61.3766 105.891 52.791 114.5 52.791 125.12V126.983C56.3219 127.02 63.1606 126.909 66.4684 125.418C71.0771 123.369 80.852 124.636 83.4165 125.94C85.6094 127.058 93.9719 127.989 97.4656 125.791V125.12C97.4656 114.5 88.88 105.891 78.2875 105.891Z" fill="#E1E5B1"/>
<path d="M98.5063 144.87C97.0568 144.87 95.7931 145.765 95.2728 147.032C95.1984 147.032 95.0869 146.994 95.0126 146.994C93.9348 146.994 93.0428 147.479 92.4109 148.224C92.1879 146.51 90.7756 145.168 89.0288 145.168C88.0996 145.168 87.2819 145.541 86.6501 146.137C86.0554 145.131 84.9776 144.386 83.7139 144.386C82.2272 144.386 81.0007 145.317 80.4804 146.622C80.406 146.622 80.3317 146.584 80.2202 146.584C80.0715 146.584 79.9229 146.659 79.7742 146.659C79.3653 145.206 78.0645 144.125 76.4663 144.125C75.3885 144.125 74.4965 144.647 73.8275 145.392C73.4558 145.28 73.0842 145.168 72.6753 145.168C71.8205 145.168 71.0772 145.504 70.4453 146.025C69.8878 144.833 68.6984 144.013 67.2861 144.013C66.2083 144.013 65.3163 144.498 64.6844 145.28C64.0154 145.355 63.4208 145.616 62.9376 145.988C62.3429 144.907 61.2279 144.162 59.9271 144.162C58.6262 144.162 57.5484 144.907 56.9537 145.951C56.7679 145.951 56.6192 145.839 56.4334 145.839C56.2104 145.839 55.9874 145.914 55.7644 145.988C55.3184 144.572 54.0547 143.529 52.4937 143.529C50.561 143.529 49 145.094 49 147.032C49 148.969 50.561 150.534 52.4937 150.534C52.7167 150.534 52.9397 150.46 53.1627 150.385C53.6087 151.801 54.8724 152.845 56.4334 152.845C57.7342 152.845 58.8121 152.1 59.4067 151.056C59.5926 151.056 59.7412 151.168 59.9271 151.168C60.7447 151.168 61.4509 150.833 62.0456 150.385C62.6403 151.466 63.7553 152.211 65.0561 152.211C66.1339 152.211 67.026 151.727 67.6578 150.944C68.364 150.87 68.9958 150.609 69.5161 150.162C70.0736 151.354 71.263 152.174 72.6753 152.174C73.7532 152.174 74.6452 151.652 75.3142 150.907C75.6858 151.019 76.0575 151.131 76.4663 151.131C76.615 151.131 76.7637 151.056 76.9123 151.056C77.3212 152.509 78.622 153.59 80.2202 153.59C81.7069 153.59 82.9334 152.659 83.4537 151.354C83.5281 151.354 83.6024 151.392 83.7139 151.392C84.6431 151.392 85.4607 151.019 86.0926 150.423C86.6872 151.429 87.7651 152.174 89.0288 152.174C90.0694 152.174 90.9986 151.69 91.6304 150.944C91.8534 152.659 93.2658 154 95.0126 154C96.4621 154 97.7258 153.106 98.2461 151.839C98.3205 151.839 98.432 151.876 98.5063 151.876C100.439 151.876 102 150.311 102 148.373C102 146.435 100.439 144.87 98.5063 144.87Z" fill="#BC9457"/>
</svg>
