<svg width="152" height="134" viewBox="0 0 152 134" fill="none" xmlns="http://www.w3.org/2000/svg">
<path d="M0 84H152V122C152 128.627 146.627 134 140 134H12C5.37258 134 0 128.627 0 122V84Z" fill="#C6A15D"/>
<path d="M75.1658 51.7232C73.7535 51.7232 72.6013 50.6425 72.4898 49.2265L69.0333 2.86937C68.9218 1.30426 70.1483 0 71.7093 0H78.6595C80.2205 0 81.447 1.34153 81.3355 2.86937L77.879 49.2265C77.7675 50.6425 76.6153 51.7232 75.203 51.7232H75.1658Z" fill="#B7BF75"/>
<path d="M79.5888 51.4996C78.4738 51.3133 77.6933 50.3071 77.7676 49.1892L80.5923 11.8128C80.7038 10.5458 81.8188 9.65148 83.0825 9.8378L88.6203 10.6949C89.8468 10.8812 90.6645 12.0737 90.4043 13.3034L82.0418 49.8227C81.7816 50.9406 80.7409 51.6486 79.6259 51.4623L79.5888 51.4996Z" fill="#6D7C48"/>
<path d="M70.632 51.4996C71.747 51.3133 72.5275 50.3071 72.4531 49.1892L69.6285 11.8128C69.517 10.5458 68.4019 9.65148 67.1383 9.8378L61.6004 10.6949C60.3739 10.8812 59.5562 12.0737 59.8164 13.3034L68.179 49.8227C68.4391 50.9406 69.4798 51.6486 70.5948 51.4623L70.632 51.4996Z" fill="#6D7C48"/>
<path d="M97.4657 62.7909V80.8269C97.4657 83.5472 95.2728 85.7458 92.5596 85.7458H57.6599C54.9468 85.7458 52.7539 83.5472 52.7539 80.8269V63.9833C56.2848 64.0206 63.1235 63.8715 66.4313 62.4182C71.0029 60.3686 80.8149 61.6357 83.3794 62.9399C85.5723 64.0579 93.9348 64.9895 97.4285 62.7909H97.4657Z" fill="#F0EDDA"/>
<path d="M78.2875 42.8915H71.9691C61.3766 42.8915 52.791 51.4996 52.791 62.12V63.9832C56.3219 64.0205 63.1606 63.9087 66.4684 62.4181C71.0771 60.3685 80.852 61.6356 83.4165 62.9398C85.6094 64.0578 93.9719 64.9894 97.4656 62.7908V62.12C97.4656 51.4996 88.88 42.8915 78.2875 42.8915Z" fill="#E1E5B1"/>
<path d="M98.5063 81.8702C97.0568 81.8702 95.7931 82.7646 95.2728 84.0316C95.1984 84.0316 95.0869 83.9943 95.0126 83.9943C93.9348 83.9943 93.0428 84.4787 92.4109 85.224C92.1879 83.5099 90.7756 82.1683 89.0288 82.1683C88.0996 82.1683 87.2819 82.541 86.6501 83.1372C86.0554 82.1311 84.9776 81.3858 83.7139 81.3858C82.2272 81.3858 81.0007 82.3174 80.4804 83.6217C80.406 83.6217 80.3317 83.5844 80.2202 83.5844C80.0715 83.5844 79.9229 83.6589 79.7742 83.6589C79.3653 82.2056 78.0645 81.1249 76.4663 81.1249C75.3885 81.1249 74.4965 81.6466 73.8275 82.3919C73.4558 82.2801 73.0842 82.1683 72.6753 82.1683C71.8205 82.1683 71.0772 82.5037 70.4453 83.0254C69.8878 81.833 68.6984 81.0131 67.2861 81.0131C66.2083 81.0131 65.3163 81.4976 64.6844 82.2801C64.0154 82.3547 63.4208 82.6155 62.9376 82.9881C62.3429 81.9075 61.2279 81.1622 59.9271 81.1622C58.6262 81.1622 57.5484 81.9075 56.9537 82.9509C56.7679 82.9509 56.6192 82.8391 56.4334 82.8391C56.2104 82.8391 55.9874 82.9136 55.7644 82.9881C55.3184 81.5721 54.0547 80.5287 52.4937 80.5287C50.561 80.5287 49 82.0938 49 84.0316C49 85.9693 50.561 87.5344 52.4937 87.5344C52.7167 87.5344 52.9397 87.4599 53.1627 87.3854C53.6087 88.8014 54.8724 89.8448 56.4334 89.8448C57.7342 89.8448 58.8121 89.0995 59.4067 88.0561C59.5926 88.0561 59.7412 88.1679 59.9271 88.1679C60.7447 88.1679 61.4509 87.8325 62.0456 87.3854C62.6403 88.466 63.7553 89.2113 65.0561 89.2113C66.1339 89.2113 67.026 88.7269 67.6578 87.9443C68.364 87.8698 68.9958 87.609 69.5161 87.1618C70.0736 88.3543 71.263 89.1741 72.6753 89.1741C73.7532 89.1741 74.6452 88.6524 75.3142 87.9071C75.6858 88.0189 76.0575 88.1307 76.4663 88.1307C76.615 88.1307 76.7637 88.0561 76.9123 88.0561C77.3212 89.5094 78.622 90.5901 80.2202 90.5901C81.7069 90.5901 82.9334 89.6585 83.4537 88.3543C83.5281 88.3543 83.6024 88.3915 83.7139 88.3915C84.6431 88.3915 85.4607 88.0189 86.0926 87.4226C86.6872 88.4288 87.7651 89.1741 89.0288 89.1741C90.0694 89.1741 90.9986 88.6896 91.6304 87.9443C91.8534 89.6585 93.2658 91 95.0126 91C96.4621 91 97.7258 90.1057 98.2461 88.8387C98.3205 88.8387 98.432 88.876 98.5063 88.876C100.439 88.876 102 87.3108 102 85.3731C102 83.4353 100.439 81.8702 98.5063 81.8702Z" fill="#BC9457"/>
</svg>
