<svg width="127" height="140" viewBox="0 0 127 140" fill="none" xmlns="http://www.w3.org/2000/svg">
<g clip-path="url(#clip0_1743_5134)">
<path d="M35.8704 108.948C40.317 108.948 43.9216 104.583 43.9216 99.199C43.9216 93.8145 40.317 89.4496 35.8704 89.4496C31.4239 89.4496 27.8192 93.8145 27.8192 99.199C27.8192 104.583 31.4239 108.948 35.8704 108.948Z" fill="#393229"/>
<path d="M31.2579 102.735C35.7045 102.735 39.3091 98.3696 39.3091 92.9852C39.3091 87.6008 35.7045 83.2358 31.2579 83.2358C26.8114 83.2358 23.2068 87.6008 23.2068 92.9852C23.2068 98.3696 26.8114 102.735 31.2579 102.735Z" fill="#393229"/>
<path d="M26.3747 91.2104C30.8212 91.2104 34.4258 86.8455 34.4258 81.461C34.4258 76.0766 30.8212 71.7117 26.3747 71.7117C21.9281 71.7117 18.3235 76.0766 18.3235 81.461C18.3235 86.8455 21.9281 91.2104 26.3747 91.2104Z" fill="#393229"/>
<path d="M24.0679 79.3246C28.5145 79.3246 32.1191 74.9596 32.1191 69.5752C32.1191 64.1908 28.5145 59.8258 24.0679 59.8258C19.6214 59.8258 16.0168 64.1908 16.0168 69.5752C16.0168 74.9596 19.6214 79.3246 24.0679 79.3246Z" fill="#393229"/>
<path d="M21.8976 67.4089C26.3441 67.4089 29.9488 63.044 29.9488 57.6595C29.9488 52.2751 26.3441 47.9102 21.8976 47.9102C17.451 47.9102 13.8464 52.2751 13.8464 57.6595C13.8464 63.044 17.451 67.4089 21.8976 67.4089Z" fill="#393229"/>
<path d="M25.8032 55.9135C30.9079 55.9135 35.0461 50.9907 35.0461 44.918C35.0461 38.8454 30.9079 33.9225 25.8032 33.9225C20.6985 33.9225 16.5603 38.8454 16.5603 44.918C16.5603 50.9907 20.6985 55.9135 25.8032 55.9135Z" fill="#393229"/>
<path d="M43.3793 36.5321C46.4213 31.273 45.3035 24.9445 40.8827 22.3969C36.4619 19.8493 30.4121 22.0474 27.3701 27.3064C24.3282 32.5655 25.4459 38.894 29.8667 41.4416C34.2875 43.9892 40.3373 41.7912 43.3793 36.5321Z" fill="#393229"/>
<path d="M67.7031 31.6563C71.8275 24.5261 69.0695 15.2298 61.5431 10.8925C54.0167 6.55518 44.5719 8.81934 40.4476 15.9496C36.3232 23.0799 39.0812 32.3762 46.6076 36.7135C54.134 41.0508 63.5788 38.7866 67.7031 31.6563Z" fill="#393229"/>
<path d="M77.4125 34.4999C81.5368 27.3696 78.7789 18.0733 71.2525 13.736C63.7261 9.39874 54.2813 11.6629 50.1569 18.7932C46.0326 25.9234 48.7905 35.2197 56.3169 39.557C63.8433 43.8943 73.2881 41.6302 77.4125 34.4999Z" fill="#393229"/>
<path d="M86.5629 39.7731C90.6872 32.6428 87.9293 23.3465 80.4029 19.0092C72.8765 14.6719 63.4317 16.9361 59.3073 24.0664C55.183 31.1966 57.9409 40.4929 65.4673 44.8302C72.9937 49.1675 82.4385 46.9034 86.5629 39.7731Z" fill="#393229"/>
<path d="M91.1626 57.172C95.2869 50.0417 92.529 40.7454 85.0026 36.4082C77.4762 32.0709 68.0314 34.335 63.907 41.4653C59.7827 48.5956 62.5406 57.8919 70.067 62.2291C77.5934 66.5664 87.0382 64.3023 91.1626 57.172Z" fill="#393229"/>
<path d="M68.9741 52.7725C73.0985 45.6422 70.3405 36.3459 62.8141 32.0086C55.2877 27.6713 45.8429 29.9355 41.7186 37.0658C37.5942 44.196 40.3522 53.4923 47.8786 57.8296C55.405 62.1669 64.8498 59.9027 68.9741 52.7725Z" fill="#393229"/>
<path d="M52.9368 61.3028C57.0611 54.1725 54.3032 44.8762 46.7768 40.5389C39.2504 36.2017 29.8056 38.4658 25.6812 45.5961C21.5569 52.7264 24.3148 62.0227 31.8412 66.3599C39.3677 70.6972 48.8124 68.4331 52.9368 61.3028Z" fill="#393229"/>
<path d="M100.215 46.77C104.34 39.6398 101.582 30.3435 94.0552 26.0062C86.5288 21.6689 77.084 23.933 72.9597 31.0633C68.8353 38.1936 71.5932 47.4899 79.1197 51.8272C86.6461 56.1645 96.0909 53.9003 100.215 46.77Z" fill="#393229"/>
<path d="M104.817 51.3737C108.941 44.2434 106.183 34.9471 98.657 30.6098C91.1306 26.2725 81.6858 28.5367 77.5615 35.667C73.4372 42.7972 76.1951 52.0935 83.7215 56.4308C91.2479 60.7681 100.693 58.5039 104.817 51.3737Z" fill="#393229"/>
<path d="M110.568 65.5141C114.693 58.3838 111.935 49.0875 104.408 44.7503C96.8819 40.413 87.4371 42.6771 83.3127 49.8074C79.1884 56.9377 81.9463 66.234 89.4727 70.5713C96.9992 74.9085 106.444 72.6444 110.568 65.5141Z" fill="#393229"/>
<path d="M108.261 82.2337C112.385 75.1034 109.628 65.8071 102.101 61.4698C94.5748 57.1325 85.13 59.3967 81.0056 66.5269C76.8813 73.6572 79.6392 82.9535 87.1656 87.2908C94.692 91.6281 104.137 89.3639 108.261 82.2337Z" fill="#393229"/>
<path d="M104.23 96.2883C108.354 89.1581 105.596 79.8618 98.0696 75.5245C90.5432 71.1872 81.0984 73.4514 76.9741 80.5816C72.8498 87.7119 75.6077 97.0082 83.1341 101.345C90.6605 105.683 100.105 103.419 104.23 96.2883Z" fill="#393229"/>
<path d="M95.0247 107.894C99.149 100.763 96.3911 91.467 88.8647 87.1297C81.3382 82.7924 71.8934 85.0566 67.7691 92.1868C63.6448 99.3171 66.4027 108.613 73.9291 112.951C81.4555 117.288 90.9003 115.024 95.0247 107.894Z" fill="#393229"/>
<path d="M53.7247 14.8785C55.5243 11.7673 54.3212 7.71112 51.0375 5.8188C47.7538 3.92649 43.633 4.91461 41.8334 8.02585C40.0337 11.1371 41.2368 15.1933 44.5205 17.0856C47.8042 18.9779 51.9251 17.9898 53.7247 14.8785Z" fill="#393229"/>
<path d="M54.6288 16.7684C60.468 16.0373 64.7328 11.7149 64.1546 7.11399C63.5763 2.51311 58.374 -0.623955 52.5349 0.107163C46.6957 0.838281 42.4309 5.16072 43.0091 9.76161C43.5873 14.3625 48.7896 17.4996 54.6288 16.7684Z" fill="#393229"/>
<path d="M70.7323 10.5453C68.9323 13.6567 64.8117 14.6444 61.5283 12.7524C58.2449 10.8604 57.0412 6.804 58.8402 3.69266C60.6402 0.581332 64.7609 -0.406424 68.0443 1.48562C71.3277 3.37766 72.5313 7.43401 70.7323 10.5453Z" fill="#393229"/>
<path d="M78.5845 15.8495C80.8509 11.9312 79.3357 6.82284 75.2001 4.43961C71.0645 2.05638 65.8747 3.30078 63.6083 7.21906C61.3418 11.1373 62.8571 16.2457 66.9926 18.6289C71.1282 21.0122 76.3181 19.7678 78.5845 15.8495Z" fill="#393229"/>
<path d="M85.0232 24.1558C87.2897 20.2375 85.7744 15.1291 81.6389 12.7459C77.5033 10.3627 72.3134 11.6071 70.047 15.5253C67.7806 19.4436 69.2958 24.552 73.4314 26.9352C77.567 29.3184 82.7568 28.074 85.0232 24.1558Z" fill="#393229"/>
<path d="M93.8086 19.454C93.96 22.2653 90.8498 24.7178 86.8625 24.9314C82.8753 25.1451 79.5192 23.0384 79.3689 20.2272C79.2176 17.4159 82.3277 14.9634 86.315 14.7498C90.3022 14.5361 93.6583 16.6428 93.8086 19.454Z" fill="#393229"/>
<g opacity="0.12">
<path d="M99.5123 52.0192C91.7867 60.43 90.1221 69.9945 92.8191 80.9085C93.1815 82.3574 93.6086 83.7953 94.1392 85.2104C93.9331 84.8924 93.7519 84.5595 93.5697 84.2266C92.3273 81.8645 91.4542 79.3275 90.9046 76.7151C88.9135 67.3791 91.7678 57.8851 99.5123 52.0192Z" fill="#1E170A"/>
<path d="M88.6357 34.5327C87.3414 38.3039 86.55 42.1466 86.769 46.1036C87.0507 51.8344 89.2987 57.3584 92.5901 62.0379C91.6443 61.23 90.821 60.283 90.0693 59.2932C84.6146 52.0907 83.7922 42.2609 88.6357 34.5317V34.5327Z" fill="#1E170A"/>
<path d="M72.9963 26.4906C72.2396 33.4108 72.5244 40.4662 79.2863 44.2413C81.2734 45.3493 83.4856 46.0499 85.7515 46.4176C85.4598 46.4534 85.1661 46.4613 84.8724 46.4693C82.7857 46.4822 80.7169 46.0608 78.8004 45.2013C71.3297 41.8018 70.4675 33.4804 72.9963 26.4896V26.4906Z" fill="#1E170A"/>
<path d="M35.061 34.5327C45.0386 38.4857 53.8783 36.8551 61.9813 29.9308C63.0406 29.0275 64.06 28.0686 65.0118 27.0262C64.8396 27.3352 64.6424 27.6294 64.4463 27.9245C63.0246 29.9765 61.2714 31.7772 59.2912 33.3055C52.0395 38.927 42.8175 39.4347 35.061 34.5337V34.5327Z" fill="#1E170A"/>
<path d="M25.9038 46.4176C34.0256 46.8359 41.8528 43.9154 48.8895 40.1045C51.2649 38.8176 53.5966 37.4234 55.8545 35.9338C55.6206 36.1833 55.3727 36.4178 55.1258 36.6543C52.8708 38.754 50.344 40.5536 47.6799 42.1018C45.1571 43.5596 42.4512 44.7809 39.6715 45.6604C39.2086 45.7915 38.6431 45.9754 38.1772 46.0896C37.3897 46.2943 36.4409 46.505 35.6464 46.6491C35.1725 46.7177 34.5812 46.824 34.1063 46.8737C33.2531 46.976 32.3819 47.0277 31.5218 47.0565C31.0479 47.0476 30.4416 47.0565 29.9697 47.0297L28.9393 46.9522C28.6326 46.9333 28.2185 46.8628 27.9158 46.821C27.2348 46.7405 26.5658 46.5686 25.9028 46.4176H25.9038Z" fill="#1E170A"/>
<path d="M55.8545 34.0796C59.9483 36.4963 64.7131 37.1045 69.3923 37.2247C70.9673 37.2684 72.5502 37.2565 74.169 37.2356C73.7927 37.3887 73.4064 37.5149 73.0162 37.6262C71.8454 37.962 70.6447 38.1757 69.4321 38.2999C64.725 38.76 59.0722 37.8448 55.8535 34.0796H55.8545Z" fill="#1E170A"/>
<path d="M44.8505 26.739C48.9443 29.1557 53.7091 29.7639 58.3883 29.8841C59.9632 29.9279 61.5462 29.9159 63.165 29.8951C62.7887 30.0481 62.4024 30.1743 62.0121 30.2856C60.8413 30.6215 59.6407 30.8351 58.4281 30.9593C53.721 31.4194 48.0682 30.5042 44.8495 26.739H44.8505Z" fill="#1E170A"/>
<path d="M68.0861 22.0248C62.5278 20.089 56.8819 19.9579 51.1206 20.8711C49.225 21.1652 47.3374 21.5518 45.4349 22.0248C45.853 21.7654 46.2901 21.5379 46.7341 21.3262C50.7642 19.4471 55.3269 18.6402 59.7572 19.0834C62.707 19.3865 65.648 20.3126 68.0861 22.0248Z" fill="#1E170A"/>
<path d="M97.0055 32.7907C94.4777 31.2485 91.8982 30.5827 88.9941 30.1792C88.0483 30.0401 87.0906 29.9278 86.084 29.7847C86.314 29.6704 86.554 29.585 86.7959 29.5075C90.2993 28.4293 95.1447 29.3673 97.0055 32.7907Z" fill="#1E170A"/>
<path d="M85.7525 28.5923C84.8366 27.3024 83.8749 26.0176 82.8624 24.8012C75.5051 15.8896 65.5434 11.4109 54.0067 11.4278C52.1998 11.4318 50.3839 11.5272 48.5769 11.7925C49.01 11.6454 49.454 11.5321 49.899 11.4198C58.455 9.45028 67.8701 11.076 75.1168 16.0992C79.6805 19.2364 83.3243 23.6346 85.7545 28.5923H85.7525Z" fill="#1E170A"/>
<path d="M22.6552 60.2611C26.1746 58.6553 29.439 56.7483 32.3799 54.272C33.3367 53.4631 34.2795 52.5936 35.1576 51.7022C37.3011 49.5131 39.2175 47.1192 40.8801 44.5355C40.5934 45.5402 40.1643 46.4991 39.6904 47.4292C36.3025 53.9023 29.9428 59.0299 22.6562 60.2611H22.6552Z" fill="#1E170A"/>
<path d="M22.6552 73.7637C23.5124 72.6865 24.4124 71.6382 25.2666 70.56C26.525 68.97 27.7237 67.3344 28.7989 65.6172C30.2753 63.2244 31.5636 60.7232 32.4407 58.0381C32.4715 58.4386 32.4576 58.8421 32.4228 59.2415C31.8394 65.0359 27.5793 70.7955 22.6552 73.7637Z" fill="#1E170A"/>
<path d="M99.5123 52.0192C104.24 56.7592 106.182 63.1309 104.598 69.6676C103.18 75.4809 99.563 80.6084 95.066 84.48C94.7624 84.7304 94.4587 84.9808 94.1392 85.2104C96.2348 82.9059 98.1075 80.4127 99.7074 77.7575C104.977 68.9233 105.517 60.6476 99.5123 52.0192Z" fill="#1E170A"/>
<path d="M91.7807 32.2025C95.8695 34.0627 98.6442 37.7524 99.7702 42.0462C100.584 45.2877 100.599 48.8443 99.5133 52.0192C99.6567 47.2185 99.0295 42.2529 96.6461 38.0187C96.1333 37.0796 95.4912 36.1724 94.8321 35.3307C94.6818 35.1498 94.3114 34.7205 94.1631 34.5397C93.9899 34.3578 93.739 34.0915 93.5687 33.9057C93.0023 33.3085 92.386 32.7639 91.7817 32.2025H91.7807Z" fill="#1E170A"/>
<path d="M78.9946 13.9985C79.6656 14.7359 79.575 15.9015 79.0862 16.7114C78.6023 17.5173 77.7531 18.1334 76.7884 18.1175C77.1219 17.3056 77.4992 16.7094 77.9044 16.0178C78.3275 15.3182 78.5964 14.7955 78.9936 13.9985H78.9946Z" fill="#1E170A"/>
<path d="M84.7848 16.0575C85.9407 17.2778 86.4643 19.1052 86.079 20.7548C85.7346 22.2424 84.6116 23.5154 83.157 23.9655C82.9579 24.0261 82.7538 24.0738 82.5438 24.0838C82.8315 23.7857 83.0883 23.4975 83.3243 23.2033C84.3288 21.986 84.8834 20.5998 84.9301 19.0387C84.9301 18.9522 84.9361 18.7276 84.9391 18.6382C84.9371 18.3709 84.9262 18.0837 84.9132 17.8144C84.8843 17.2271 84.8077 16.6518 84.7848 16.0565V16.0575Z" fill="#1E170A"/>
</g>
<path d="M105.113 46.6322C105.889 41.1598 103.36 35.4092 98.3236 32.0663C97.0204 30.0868 95.2293 28.3588 93.0072 27.0778C91.703 26.3266 90.3401 25.781 88.9572 25.4303C91.3068 24.522 92.8738 22.7283 92.7683 20.7489C92.6219 18.033 89.3814 15.9979 85.5285 16.2046C84.8455 16.2414 84.1905 16.3467 83.5742 16.5087C82.9002 15.6302 82.04 14.8621 81.0106 14.2688C80.3864 13.9091 79.7363 13.6348 79.0772 13.442C79.0672 10.6189 77.5211 7.8176 74.7923 6.24554C73.2282 5.34424 71.5079 4.98252 69.8622 5.09978C69.3345 4.43101 68.6695 3.84571 67.879 3.38959C65.4986 2.01727 62.6622 2.21303 60.6601 3.66585C58.6003 2.33625 55.8326 1.68934 52.8957 2.05702C48.8019 2.56978 45.5105 4.91098 44.2262 7.85437C43.5622 8.33732 42.9897 8.95839 42.5567 9.70666C41.4874 11.556 41.5173 13.7501 42.4362 15.5915C41.9912 16.142 41.583 16.7322 41.2186 17.3623C40.234 19.0645 39.6556 20.8949 39.4525 22.7492C35.5459 21.8996 31.0469 24.0778 28.5858 28.3339C27.3911 30.3999 26.8605 32.6367 26.9391 34.7295C22.0688 34.8139 18.1433 39.5341 18.1433 45.3484C18.1433 46.9492 18.4429 48.4666 18.9756 49.828C16.8928 51.5183 15.5219 54.3932 15.5219 57.6565C15.5219 60.6228 16.6549 63.2661 18.424 64.9932C17.9093 66.2512 17.6186 67.6683 17.6186 69.1678C17.6186 72.1807 18.7884 74.8608 20.6063 76.5849C20.1195 77.8151 19.8467 79.1934 19.8467 80.6492C19.8467 84.6479 21.9055 88.0623 24.8096 89.4287C24.6493 90.1809 24.5647 90.97 24.5647 91.7828C24.5647 95.6971 26.5369 99.0529 29.3435 100.475C30.2992 104.366 33.274 107.204 36.7973 107.204C41.0932 107.204 44.5747 102.988 44.5747 97.7859C44.5747 93.8716 42.6025 90.5158 39.796 89.0938C39.11 86.2995 37.3817 84.0497 35.1566 83.0033C35.3169 82.2511 35.4015 81.4621 35.4015 80.6492C35.4015 77.6362 34.2317 74.9562 32.4138 73.2321C32.9006 72.0019 33.1734 70.6236 33.1734 69.1678C33.1734 68.0349 33.0081 66.9498 32.7055 65.9442C32.7722 65.9839 32.8379 66.0237 32.9046 66.0624C40.1753 70.2529 49.2997 68.0648 53.2839 61.1763C53.5488 60.7192 53.7827 60.2521 53.9888 59.7791C57.8038 60.3475 61.6507 59.475 64.7002 57.3594C65.9864 59.2236 67.7128 60.8523 69.8313 62.0736C73.8196 64.3721 78.3644 64.7507 82.3138 63.4887C82.3317 63.5254 82.3506 63.5622 82.3695 63.599C81.6239 64.3781 80.9608 65.2545 80.4003 66.2244C78.5177 69.4798 78.1205 73.2023 78.9916 76.6664C78.0338 77.5667 77.1936 78.6151 76.5066 79.8035C75.5608 81.4392 74.9904 83.1931 74.7664 84.9729C71.8274 86.0898 69.2738 88.1428 67.6142 91.0127C63.6299 97.9011 66.2941 106.882 73.5647 111.072C80.8354 115.262 89.9598 113.074 93.9441 106.186C94.8898 104.55 95.4603 102.796 95.6843 101.016C98.6232 99.8995 101.177 97.8465 102.836 94.9766C104.719 91.7212 105.116 87.9987 104.245 84.5346C105.203 83.6343 106.043 82.586 106.73 81.3975C109.189 77.1453 109.115 72.0973 106.988 67.87C107.734 67.0909 108.397 66.2144 108.957 65.2446C112.529 59.0686 110.757 51.2123 105.112 46.6332L105.113 46.6322Z" stroke="#332D24" stroke-width="0.81" stroke-miterlimit="10"/>
<g opacity="0.54">
<path d="M99.5123 52.0192C91.8165 59.4313 89.685 68.9372 91.9848 79.1954C91.8165 78.5991 91.6582 77.9989 91.5288 77.3928C91.1216 75.5733 90.8807 73.72 90.8209 71.8548C90.5322 64.1475 93.6533 57.0404 99.5133 52.0202L99.5123 52.0192Z" fill="#1E170A"/>
<path d="M88.6357 34.5327C84.9322 42.8422 85.6241 51.3613 90.4287 59.0607C91.0728 60.1031 91.7897 61.1037 92.5901 62.0388C92.155 61.6026 91.7548 61.1326 91.3715 60.6506C87.7228 56.0567 85.634 50.1599 85.9377 44.2771C85.9626 43.8299 86.0143 43.3381 86.0492 42.8889C86.1129 42.4457 86.1806 41.9518 86.2503 41.5116C86.315 41.2095 86.4643 40.4453 86.531 40.1492C86.6107 39.8501 86.8118 39.1128 86.8934 38.8077C86.984 38.5414 87.2429 37.7543 87.3355 37.492C87.45 37.1671 87.7267 36.5271 87.8512 36.2051C88.0523 35.7043 88.4047 35.0246 88.6347 34.5337L88.6357 34.5327Z" fill="#1E170A"/>
<path d="M72.9963 26.4905C71.6164 33.4635 72.0764 40.9392 79.1091 44.5911C81.1659 45.6445 83.4438 46.2576 85.7515 46.4176C84.5857 46.4285 83.4229 46.2616 82.2849 46.0111C72.5512 43.6848 70.6746 35.1677 72.9953 26.4905H72.9963Z" fill="#1E170A"/>
<path d="M35.061 34.5327C44.6982 39.1763 54.4279 37.3697 62.1515 30.1066C63.1789 29.1547 64.1456 28.1321 65.0118 27.0261C64.6156 27.6065 64.1755 28.157 63.7156 28.6906C62.3367 30.2945 60.7746 31.7393 59.0623 32.9864C51.6901 38.3843 43.0764 38.8385 35.061 34.5327Z" fill="#1E170A"/>
<path d="M25.9037 46.4176C31.3037 47.0903 36.7704 45.9694 41.7911 43.9889C46.8217 41.9826 51.5576 39.225 55.8545 35.9338C49.9995 40.9293 42.1923 45.1357 34.5513 46.4096C34.2058 46.4812 33.3875 46.5686 33.03 46.6213C32.5591 46.6789 31.9757 46.7087 31.5008 46.7515C31.0289 46.7584 30.4366 46.7952 29.9667 46.7882C29.8303 46.7823 28.8198 46.7554 28.6894 46.7495C28.4952 46.7346 28.1159 46.6998 27.9258 46.6839C27.2458 46.6461 26.5748 46.5159 25.9037 46.4196V46.4176Z" fill="#1E170A"/>
<path d="M55.8545 34.0795C59.0324 36.5181 63.0893 37.4085 67.0248 37.5854C69.4102 37.6937 71.7996 37.5665 74.17 37.2356C72.615 37.6182 71.0171 37.8149 69.4182 37.9083C64.6862 38.1448 59.4684 37.3856 55.8545 34.0795Z" fill="#1E170A"/>
<path d="M44.8505 26.739C48.0283 29.1775 52.0853 30.0679 56.0208 30.2448C58.4072 30.3531 60.7955 30.2259 63.166 29.895C61.6109 30.2776 60.013 30.4743 58.4141 30.5677C53.6822 30.8043 48.4644 30.0451 44.8505 26.739Z" fill="#1E170A"/>
<path d="M68.0861 22.0247C62.7797 19.5504 56.7137 19.3665 51.0399 20.4875C49.1404 20.8641 47.2548 21.355 45.4349 22.0247C46.316 21.6104 47.2329 21.2745 48.1578 20.9714C54.5951 18.9124 62.043 18.665 68.0861 22.0247Z" fill="#1E170A"/>
<path d="M97.0054 32.7907C95.9282 31.8149 94.6469 31.0666 93.271 30.6016C90.9713 29.8116 88.5052 29.6456 86.083 29.7847C87.0417 29.5651 88.0323 29.4886 89.019 29.4955C91.9509 29.5204 95.1029 30.4426 97.0044 32.7907H97.0054Z" fill="#1E170A"/>
<path d="M85.7525 28.5922C79.7781 18.8478 70.9275 12.6132 59.4356 11.3781C55.8256 11.0014 52.144 11.0819 48.5759 11.7934C49.458 11.5619 50.358 11.4029 51.261 11.2757C59.4017 10.1449 68.0224 11.8372 74.852 16.4907C79.4067 19.5574 83.0724 23.8274 85.7525 28.5932V28.5922Z" fill="#1E170A"/>
<path d="M22.6552 60.2611C29.2778 58.0311 34.9605 53.5882 38.896 47.8435C39.6197 46.7803 40.3037 45.6892 40.8791 44.5355C39.6765 47.3994 37.8516 49.98 35.7609 52.2676C32.2446 56.0666 27.6769 58.9434 22.6552 60.2611Z" fill="#1E170A"/>
<path d="M22.6552 73.7637C26.9013 69.7391 30.6118 64.8928 32.1858 59.1888C32.2854 58.8092 32.379 58.4276 32.4407 58.0381C32.3899 58.8261 32.2236 59.6042 32.0235 60.3674C30.5391 65.7205 26.972 70.3443 22.6552 73.7637Z" fill="#1E170A"/>
<path d="M25.2766 86.0997C30.0224 81.6946 31.908 75.7054 31.2788 69.3446C31.1952 68.4652 31.0688 67.5868 30.8687 66.7262C31.01 67.1465 31.1206 67.5778 31.2181 68.0111C31.8871 71.0588 31.8463 74.2695 31.0499 77.2904C30.1081 80.7943 28.1199 83.841 25.2766 86.0997Z" fill="#1E170A"/>
<path d="M99.5123 52.0192C106.512 59.9947 105.959 69.5881 100.282 78.1261C98.5456 80.7396 96.4987 83.1524 94.1392 85.2104C95.2711 84.1312 96.3234 82.9725 97.3041 81.7582C101.184 76.9794 104.272 71.1403 104.312 64.867C104.365 60.1369 102.43 55.68 99.5123 52.0192Z" fill="#1E170A"/>
<path d="M91.7807 32.2024C92.1411 32.434 92.6329 32.7211 92.9684 32.9736C93.1774 33.1296 93.6304 33.4505 93.8176 33.6155C94.0665 33.8301 94.39 34.0845 94.623 34.3131C94.8062 34.4939 95.2204 34.8775 95.3816 35.0633C95.6106 35.3247 95.8764 35.593 96.0865 35.8663L96.5305 36.4237C96.8023 36.8043 97.088 37.2018 97.328 37.6053C97.4335 37.7861 97.5998 38.0336 97.6934 38.2184C99.9792 42.3552 100.518 47.4341 99.5123 52.0192C100.141 47.4172 99.5989 42.5172 97.3827 38.3883C97.2364 38.1011 97.0194 37.7623 96.8591 37.4801C96.5654 37.02 96.194 36.4824 95.8575 36.0471C95.6226 35.7252 95.3289 35.4111 95.076 35.1021C94.9137 34.9272 94.5145 34.5108 94.3522 34.3379C94.1163 34.1193 93.8166 33.8381 93.5816 33.6175C93.4612 33.5121 93.0271 33.1584 92.9047 33.054C92.5851 32.7808 92.1142 32.4598 91.7797 32.2004L91.7807 32.2024Z" fill="#1E170A"/>
<path d="M78.9946 13.9985C79.5371 15.6669 78.3156 17.4705 76.7894 18.1174C77.092 17.8303 77.3748 17.5391 77.6366 17.233C78.437 16.3248 78.9667 15.2257 78.9956 13.9985H78.9946Z" fill="#1E170A"/>
<path d="M84.7848 16.0575C85.9765 18.1592 86.2025 20.8641 84.4832 22.7542C83.9525 23.3405 83.2885 23.8194 82.5448 24.0848C84.1915 23.099 85.3443 21.3808 85.3782 19.4401C85.4111 18.2834 85.1442 17.1635 84.7848 16.0585V16.0575Z" fill="#1E170A"/>
</g>
<path d="M29.2359 86.5399C34.8971 86.5399 39.4863 81.9258 39.4863 76.2341C39.4863 70.5423 34.8971 65.9282 29.2359 65.9282C23.5748 65.9282 18.9855 70.5423 18.9855 76.2341C18.9855 81.9258 23.5748 86.5399 29.2359 86.5399Z" fill="#AFA48E"/>
<path d="M90.3262 86.2885C88.7771 85.5532 87.5376 84.5098 86.6057 83.3143C86.312 82.9377 86.4892 82.3941 86.9333 82.2202C87.5884 81.9639 88.1678 81.471 88.5312 80.7515C89.0011 79.8194 88.9423 78.6677 88.3798 77.7902C87.671 76.6842 86.4454 76.2321 85.3145 76.4338C84.8545 76.5153 84.4453 76.0969 84.5061 75.6309C84.7868 73.4467 85.7565 71.335 87.4231 69.6596C91.4283 65.6311 97.9164 65.6341 101.914 69.6547C106.176 73.9416 105.903 81.0655 101.084 84.9877C98.0687 87.4432 93.8326 87.954 90.3262 86.2885Z" fill="#AFA48E"/>
<path d="M96.0776 74.7107V78.4779C96.0776 96.3817 81.6358 110.9 63.8211 110.9H60.0807C42.265 110.9 27.8312 96.3817 27.8312 78.4779V74.7107C27.8312 65.3251 31.7965 56.8695 38.1353 50.9519C38.1353 50.9519 38.1353 50.9509 38.1383 50.9499C39.336 49.83 40.6193 48.8025 41.9762 47.8764C43.5473 46.8002 45.2168 45.8651 46.971 45.086C48.4783 44.4063 50.0424 43.8468 51.6552 43.4076C54.3392 42.6782 57.1637 42.2887 60.0807 42.2887H63.8211C70.5203 42.2887 76.7545 44.3427 81.9106 47.8625C88.3022 52.2179 93.053 58.8212 95.0452 66.5424C95.7192 69.1519 96.0776 71.8896 96.0776 74.7107Z" fill="#E5D9BF"/>
<path d="M50.3122 75.3487C51.347 75.3487 52.1858 74.5051 52.1858 73.4646C52.1858 72.424 51.347 71.5805 50.3122 71.5805C49.2774 71.5805 48.4385 72.424 48.4385 73.4646C48.4385 74.5051 49.2774 75.3487 50.3122 75.3487Z" fill="#686053"/>
<path d="M74.2915 75.3487C75.3263 75.3487 76.1652 74.5051 76.1652 73.4646C76.1652 72.424 75.3263 71.5805 74.2915 71.5805C73.2567 71.5805 72.4178 72.424 72.4178 73.4646C72.4178 74.5051 73.2567 75.3487 74.2915 75.3487Z" fill="#686053"/>
<path d="M64.1018 80.2994C64.1018 80.9076 63.0385 81.4015 61.7264 81.4015C60.4142 81.4015 59.351 80.9086 59.351 80.2994C59.351 79.6903 60.4142 79.1974 61.7264 79.1974C63.0385 79.1974 64.1018 79.6903 64.1018 80.2994Z" fill="#686053"/>
<path d="M53.499 67.5599C50.4177 67.1118 47.2558 68.2237 44.3626 69.2115C43.1729 69.6169 42.2789 69.0356 41.9763 68.0528C41.6736 67.07 41.9394 66.121 43.2118 65.6609C46.308 64.542 50.0464 63.3972 53.3795 63.8394C54.7494 64.0213 55.3418 64.7606 55.3747 65.8249C55.4085 66.8882 54.7644 67.7448 53.498 67.5609L53.499 67.5599Z" fill="#686053"/>
<path d="M70.8836 67.5599C73.9649 67.1118 77.1269 68.2237 80.02 69.2115C81.2097 69.6169 82.1037 69.0356 82.4064 68.0528C82.709 67.07 82.4432 66.121 81.1709 65.6609C78.0747 64.542 74.3363 63.3972 71.0031 63.8394C69.6332 64.0213 69.0408 64.7606 69.008 65.8249C68.9741 66.8882 69.6183 67.7448 70.8846 67.5609L70.8836 67.5599Z" fill="#686053"/>
<path d="M61.9544 95.9117C59.4057 95.9862 57.6037 95.3016 56.8949 94.1677C56.5106 93.5536 56.9706 92.7567 57.6953 92.7567H66.2134C66.9392 92.7567 67.3992 93.5536 67.0139 94.1677C66.304 95.3016 64.5021 95.9852 61.9534 95.9117H61.9544Z" fill="#686053"/>
<path d="M60.4083 42.6315L61.9584 37.9213L63.5005 42.6335" fill="#D1C6B0"/>
<path d="M95.0452 66.5424C66.5967 31.5963 38.4609 50.7283 38.1383 50.9499C39.336 49.83 40.6193 48.8025 41.9763 47.8764C43.5473 46.8002 45.2168 45.8651 46.971 45.086C48.4783 44.4063 50.0424 43.8468 51.6552 43.4076C54.3393 42.6782 57.1637 42.2887 60.0807 42.2887H63.8211C70.5203 42.2887 76.7545 44.3427 81.9106 47.8625C88.3022 52.2179 93.053 58.8212 95.0452 66.5424Z" fill="#D1C6B0"/>
<path opacity="0.2" d="M56 83C55.9946 83.2835 55.9471 83.579 55.8536 83.8545C55.8156 83.9969 55.7614 84.1314 55.7071 84.2671C55.6556 84.4056 55.5919 84.5347 55.5295 84.6664C55.276 85.1909 54.9669 85.682 54.6374 86.1559C53.9703 87.0982 53.2097 87.9621 52.4057 88.7767C51.599 89.5899 50.7448 90.3499 49.8486 91.062C48.9497 91.7701 48.0155 92.4383 47 93C47.7294 92.1095 48.5036 91.2816 49.2832 90.4631C50.0655 89.6485 50.8573 88.8485 51.6478 88.0526C52.4369 87.2553 53.2273 86.4633 53.9879 85.6501C54.3676 85.2428 54.7391 84.8302 55.0889 84.4002C55.4373 83.9677 55.7668 83.5258 55.9986 83H56Z" fill="#A0998D"/>
<path opacity="0.2" d="M68.0014 82C68.2318 82.5783 68.5627 83.063 68.9111 83.5403C69.2609 84.0132 69.6324 84.4671 70.012 84.9151C70.7727 85.8097 71.5631 86.6808 72.3522 87.5578C73.1427 88.4334 73.9345 89.3133 74.7168 90.2094C75.4977 91.1098 76.2706 92.019 77 93C75.9845 92.3821 75.0503 91.6471 74.1514 90.8682C73.2552 90.0864 72.3997 89.2489 71.5943 88.3543C70.7903 87.4597 70.0297 86.5081 69.3626 85.4715C69.0331 84.9502 68.724 84.4085 68.4705 83.8331C68.4095 83.6881 68.3444 83.5461 68.2929 83.3939C68.2386 83.2445 68.1844 83.0966 68.1464 82.94C68.0542 82.6369 68.0068 82.3119 68 82H68.0014Z" fill="#A0998D"/>
<path d="M1.06527 131.685C-0.0228914 133.622 6.83073e-06 139.86 6.83073e-06 139.86H47.7785L38.3345 115.254C38.3345 115.254 7.32741 120.531 1.06427 131.686L1.06527 131.685Z" fill="#CAB080"/>
<g opacity="0.38">
<path d="M0.732727 132.504C5.82706 120.638 38.4868 115.253 38.4868 115.253L39.3529 117.911C8.68933 123.115 0.732727 132.504 0.732727 132.504Z" fill="#B59F78"/>
</g>
<path d="M35.1944 117.796C35.5996 115.559 40.463 113.29 40.463 113.29C40.463 113.29 49.8851 125.597 63.4607 131.419H43.1988C39.0453 128.741 34.5453 121.385 35.1954 117.796H35.1944Z" fill="#53483B"/>
<path d="M77.0761 120.877L45.644 118.209V104.788H77.0761V120.877Z" fill="#E5D9BF"/>
<path d="M45.6151 107.463C60.3047 120.145 80.8852 131.419 80.8852 131.419H63.4597C49.8841 125.597 40.462 113.29 40.462 113.29L45.6141 107.464L45.6151 107.463Z" fill="#E7E5DA"/>
<path d="M126.836 139.86H69.7089L84.7798 114.705C84.7798 114.705 130.067 122.453 126.837 139.86H126.836Z" fill="#CAB080"/>
<path d="M118.504 128.111C121.886 130.424 126.531 134.724 125.095 132.504C116.977 119.955 84.8166 114.705 84.8166 114.705L83.9505 117.453C94.3911 119.548 111.3 123.184 118.504 128.111Z" fill="#B59F78"/>
<path d="M77.0442 108.036C62.3546 121.148 28.2503 139.806 28.2503 139.806L31.0757 139.86H53.715C67.2906 133.84 82.6513 112.674 82.6513 112.674L77.0442 108.036Z" fill="#EFEDE2"/>
<path d="M87.8492 117.411C87.444 115.097 82.5806 112.751 82.5806 112.751C82.5806 112.751 63.6687 133.981 50.0931 140.001L72.4915 139.946C76.645 137.178 88.4983 121.121 87.8482 117.412L87.8492 117.411Z" fill="#53483B"/>
</g>
<defs>
<clipPath id="clip0_1743_5134">
<rect width="127" height="140" fill="white"/>
</clipPath>
</defs>
</svg>
