<svg width="192" height="237" viewBox="0 0 192 237" fill="none" xmlns="http://www.w3.org/2000/svg">
<g filter="url(#filter0_d_1710_6229)">
<rect x="20" y="16" width="152" height="197" rx="12" fill="#C8DAB2"/>
</g>
<path d="M34.4922 48L34.4727 45.8711L39.5508 41.2031C40.8691 39.9434 41.582 39.1621 41.582 38.0391C41.582 36.7793 40.6348 35.998 39.3359 36.0078C38.0078 35.998 37.1387 36.8379 37.1484 38.1953H34.3555C34.3457 35.4316 36.3965 33.6641 39.375 33.6641C42.4023 33.6641 44.4141 35.3926 44.4141 37.8438C44.4141 39.4551 43.6328 40.7734 40.7227 43.4102L38.5742 45.5V45.5781H44.6094V48H34.4922ZM55.1758 33.4883V42.0234H46.6406V33.4883H55.1758ZM48.6914 49.4844V43.7227H51.1719V47.4922H60.8594V49.4844H48.6914ZM49.1016 40.0703H52.7148V35.4805H49.1016V40.0703ZM57.7148 44.9922V32.0234H60.2148V37.1406H62.6172V39.1914H60.2148V44.9922H57.7148ZM78.457 32.043V45.4609H75.957V44.0547H72.5586V42.3555H75.957V32.043H78.457ZM63.3398 39.9141C66.5918 39.8945 70.9863 39.8457 74.7461 39.3867L74.8828 41.1641C73.4766 41.3984 72.0215 41.5645 70.5859 41.6719V45.0508H68.0859V47.4922H78.8477V49.4844H65.6055V44.1719H68.0859V41.8184C66.4941 41.877 64.9805 41.8867 63.6328 41.8867L63.3398 39.9141ZM64.6484 35.832C64.6484 33.9375 66.4746 32.6387 69.1211 32.6484C71.6992 32.6387 73.5449 33.9375 73.5547 35.832C73.5449 37.7363 71.6992 38.9668 69.1211 38.957C66.4746 38.9668 64.6484 37.7363 64.6484 35.832ZM67.0117 35.832C67.002 36.6914 67.8516 37.1699 69.1211 37.1602C70.3125 37.1699 71.1719 36.6914 71.1914 35.832C71.1719 34.9531 70.3125 34.4648 69.1211 34.4648C67.8516 34.4648 67.002 34.9531 67.0117 35.832ZM93.6328 33.7031V35.6562H90.8984C90.9668 37.0918 92.0508 38.5469 94.1992 39.2305L93.1445 41.0469C91.5039 40.5586 90.3906 39.582 89.7363 38.3711C89.1016 39.6895 87.9785 40.793 86.3477 41.3594L85.2539 39.5039C87.3633 38.7129 88.4473 37.1211 88.5352 35.6562H85.7812V33.7031H88.5352V32.082H90.8984V33.7031H93.6328ZM88.3984 43.8789V42.0039H100.566V46.6523H90.8984V47.7656H101.172V49.6016H88.418V44.8555H98.1055V43.8789H88.3984ZM94.4336 41.2422V32.3555H96.7773V35.7148H98.2031V32.043H100.566V41.3594H98.2031V37.6875H96.7773V41.2422H94.4336ZM117.441 32.043V45.1289H114.961V32.043H117.441ZM103.496 35.1875V33.1953H111.738V38.8594H105.957V40.832C109.141 40.8223 111.152 40.7246 113.457 40.2852L113.73 42.2773C111.143 42.7656 108.838 42.8633 105.078 42.8633H103.516V37.0234H109.258V35.1875H103.496ZM105.488 49.4844V44.0352H107.969V47.4922H117.91V49.4844H105.488ZM126.758 36.8672C126.748 39.7383 128.232 42.8145 131.211 44.0547L129.863 46.0078C127.773 45.1191 126.328 43.3516 125.527 41.2031C124.727 43.5371 123.252 45.4902 121.152 46.457L119.727 44.4844C122.676 43.166 124.199 39.875 124.199 36.8672V35.7734H120.43V33.7422H130.469V35.7734H126.758V36.8672ZM132.227 49.7969V32.0234H134.746V49.7969H132.227Z" fill="black"/>
<g clip-path="url(#clip0_1710_6229)">
<path d="M33.177 204.547C32.0726 206.517 32.0958 212.857 32.0958 212.857H80.5906L71.005 187.848C71.005 187.848 39.5331 193.211 33.176 204.548L33.177 204.547Z" fill="#515C3C"/>
<path d="M67.8179 190.432C68.2292 188.157 73.1654 185.852 73.1654 185.852C73.1654 185.852 82.7288 198.36 96.5079 204.278H75.9423C71.7265 201.556 67.159 194.079 67.8189 190.432H67.8179Z" fill="#CFE2C0"/>
<path d="M110.328 193.563L78.4241 190.852V177.21H110.328V193.563Z" fill="#A2AF8E"/>
<path d="M78.3948 179.93C93.3047 192.819 114.194 204.279 114.194 204.279H96.5069C82.7278 198.361 73.1644 185.853 73.1644 185.853L78.3938 179.931L78.3948 179.93Z" fill="#E4F2D7"/>
<path d="M160.833 212.857H102.85L107.982 204.278L109.569 201.626L118.146 187.29C118.146 187.29 118.597 187.368 119.408 187.524C122.333 188.089 129.935 189.687 137.853 192.407C149.869 196.535 162.614 203.249 160.833 212.857Z" fill="#515C3C"/>
<path d="M110.295 180.512C95.3853 193.838 60.7697 212.802 60.7697 212.802L63.6374 212.857H86.6162C100.395 206.738 115.986 185.225 115.986 185.225L110.295 180.512Z" fill="#E4F2D7"/>
<path d="M121.262 190.04C120.851 187.689 115.915 185.304 115.915 185.304C115.915 185.304 96.7192 206.881 82.94 213L105.674 212.944C109.89 210.131 121.921 193.811 121.261 190.041L121.262 190.04Z" fill="#CFE2C0"/>
<path d="M160.833 212.857H158.968C155.673 212.445 151.945 211.137 148.344 208.957C140.523 204.223 136.076 197.059 137.853 192.407C149.869 196.535 162.614 203.249 160.833 212.857Z" fill="#D9E5BF"/>
<path d="M30.1677 212.857H32.0331C35.3284 212.445 39.0561 211.137 42.6575 208.957C50.4778 204.223 54.925 197.059 53.1485 192.407C40 196 28.3872 203.249 30.1677 212.857Z" fill="#D9E5BF"/>
<path d="M61.668 158.602C67.414 158.602 72.0721 153.912 72.0721 148.127C72.0721 142.342 67.414 137.653 61.668 137.653C55.922 137.653 51.2639 142.342 51.2639 148.127C51.2639 153.912 55.922 158.602 61.668 158.602Z" fill="#A2AF8E"/>
<path d="M123.675 158.346C122.103 157.599 120.845 156.539 119.899 155.324C119.601 154.941 119.781 154.388 120.231 154.212C120.896 153.951 121.484 153.45 121.853 152.719C122.33 151.771 122.271 150.601 121.7 149.709C120.98 148.585 119.736 148.125 118.588 148.33C118.122 148.413 117.706 147.988 117.768 147.514C118.053 145.294 119.037 143.148 120.729 141.445C124.794 137.351 131.379 137.354 135.436 141.44C139.762 145.797 139.486 153.038 134.595 157.024C131.534 159.52 127.234 160.039 123.675 158.346Z" fill="#A2AF8E"/>
<path d="M129.513 146.579V150.408C129.513 168.605 114.856 183.361 96.7727 183.361H92.9763C74.8934 183.361 60.2432 168.605 60.2432 150.408V146.579C60.2432 135.235 65.9344 125.23 74.6004 119.305C76.195 118.211 77.8896 117.261 79.6701 116.469C81.1999 115.778 82.7874 115.21 84.4245 114.763C87.1488 114.022 90.0155 113.626 92.9763 113.626H96.7727C103.572 113.626 109.9 115.714 115.135 119.291C123.815 125.215 129.513 135.228 129.513 146.579Z" fill="#D9E5BF"/>
<path d="M83.0603 147.227C84.1106 147.227 84.962 146.37 84.962 145.313C84.962 144.255 84.1106 143.398 83.0603 143.398C82.01 143.398 81.1585 144.255 81.1585 145.313C81.1585 146.37 82.01 147.227 83.0603 147.227Z" fill="#6F795F"/>
<path d="M107.4 147.227C108.45 147.227 109.302 146.37 109.302 145.313C109.302 144.255 108.45 143.398 107.4 143.398C106.35 143.398 105.498 144.255 105.498 145.313C105.498 146.37 106.35 147.227 107.4 147.227Z" fill="#6F795F"/>
<path d="M97.0577 152.26C97.0577 152.878 95.9785 153.38 94.6466 153.38C93.3148 153.38 92.2356 152.879 92.2356 152.26C92.2356 151.641 93.3148 151.14 94.6466 151.14C95.9785 151.14 97.0577 151.641 97.0577 152.26Z" fill="#6F795F"/>
<path d="M86.2958 139.312C83.1684 138.857 79.959 139.987 77.0225 140.991C75.815 141.403 74.9075 140.812 74.6003 139.813C74.2931 138.814 74.5629 137.85 75.8544 137.382C78.997 136.245 82.7914 135.081 86.1746 135.531C87.565 135.716 88.1663 136.467 88.1996 137.549C88.234 138.629 87.5802 139.5 86.2948 139.313L86.2958 139.312Z" fill="#6F795F"/>
<path d="M103.941 139.312C107.069 138.857 110.278 139.987 113.215 140.991C114.422 141.403 115.329 140.812 115.637 139.813C115.944 138.814 115.674 137.85 114.383 137.382C111.24 136.245 107.446 135.081 104.062 135.531C102.672 135.716 102.071 136.467 102.037 137.549C102.003 138.629 102.657 139.5 103.942 139.313L103.941 139.312Z" fill="#6F795F"/>
<path d="M115.133 119.291C112.081 120.45 103.98 120.198 94.6274 120.198C85.2752 120.198 77.553 120.45 74.6003 119.305C76.0807 118.29 77.6531 117.397 79.2981 116.642C79.4194 116.577 79.5488 116.527 79.67 116.469C81.1999 115.778 82.7874 115.21 84.4244 114.763C85.8826 114.367 87.3771 114.073 88.9141 113.878C90.2439 113.712 91.5949 113.626 92.9752 113.626H96.7717C103.571 113.626 109.899 115.714 115.133 119.291Z" fill="#4E4A4B"/>
<path d="M107.338 168.434C107.338 168.434 105.205 162.557 98.7937 162.146C92.3821 161.735 88.2855 161.943 86.5596 164.817C84.8337 167.692 82.3681 169.746 82.3681 168.842C82.3681 167.938 82.1215 159.725 89.682 159.15C97.2426 158.576 101.668 158.861 105.119 160.174C108.571 161.488 109.804 169.794 107.338 168.434Z" fill="#6F795F"/>
<path d="M95.4995 168.127C92.9126 168.203 91.0836 167.507 90.3641 166.355C89.9741 165.73 90.4409 164.92 91.1766 164.92H99.8224C100.559 164.92 101.026 165.73 100.635 166.355C99.9144 167.507 98.0854 168.202 95.4985 168.127H95.4995Z" fill="#6F795F"/>
<path d="M104.979 123.306C109.667 123.306 113.467 116.746 113.467 108.653C113.467 100.56 109.667 94 104.979 94C100.291 94 96.4908 100.56 96.4908 108.653C96.4908 116.746 100.291 123.306 104.979 123.306Z" fill="#363F24"/>
<path d="M84.8863 123.306C89.5742 123.306 93.3744 116.746 93.3744 108.653C93.3744 100.56 89.5742 94 84.8863 94C80.1984 94 76.3981 100.56 76.3981 108.653C76.3981 116.746 80.1984 123.306 84.8863 123.306Z" fill="#363F24"/>
<path d="M63.9891 131.241C63.9891 131.241 98.9817 122.599 125.875 131.241C125.875 120.393 117.077 111.6 106.224 111.6H83.6413C72.7875 111.6 63.9901 120.394 63.9901 131.241H63.9891Z" fill="#2A341C"/>
<path d="M75.4027 107.222C75.426 107.208 75.4532 107.191 75.4835 107.173C75.4563 107.188 75.43 107.205 75.4027 107.222Z" fill="#2A341C"/>
<path d="M75.4835 107.174C75.5078 107.16 75.5361 107.144 75.5654 107.128C75.5381 107.144 75.5108 107.158 75.4835 107.174Z" fill="#2A341C"/>
<path d="M76.1838 106.786C75.918 106.928 75.7109 107.044 75.5654 107.127C75.7685 107.008 75.9736 106.894 76.1838 106.786Z" fill="#2A341C"/>
<path d="M114.552 107.277C113.738 106.856 112.929 106.467 112.124 106.109C112.978 106.416 113.791 106.809 114.552 107.277Z" fill="#2A341C"/>
<path d="M120.804 118.45C120.804 120.075 119.271 121.272 117.697 120.865C100.139 116.324 79.5943 119.611 72.0398 121.118C70.4978 121.425 69.0598 120.247 69.0598 118.674V118.45C69.0598 118.315 69.0618 118.182 69.0659 118.049C69.074 117.784 69.0901 117.521 69.1144 117.26C69.4943 113.035 71.8801 109.388 75.3118 107.277C75.3118 107.277 75.3289 107.266 75.3633 107.246C75.3754 107.239 75.3886 107.231 75.4037 107.222C75.427 107.208 75.4542 107.191 75.4846 107.173C75.6301 107.089 75.8655 106.955 76.1848 106.785C76.197 106.779 76.2091 106.772 76.2222 106.766C78.5929 105.514 85.4258 102.39 94.6325 102.346C94.8326 102.344 95.0337 102.346 95.2348 102.347C100.289 102.396 106.031 103.385 112.125 106.108C112.929 106.466 113.738 106.856 114.553 107.276C115.431 107.816 116.24 108.455 116.965 109.179C119.083 111.297 120.479 114.134 120.756 117.293C120.778 117.549 120.793 117.807 120.8 118.067C120.804 118.193 120.806 118.322 120.806 118.449L120.804 118.45Z" fill="#2A341C"/>
<path d="M120.798 118.068C114.552 113.545 107.967 110.723 101.22 109.681C95.7268 108.832 90.1125 109.152 84.5315 110.63C76.2252 112.832 70.4442 116.991 69.0659 118.049C69.0739 117.784 69.0901 117.521 69.1144 117.26C71.0545 115.834 76.6264 112.107 84.3527 110.055C87.2397 109.288 90.1348 108.828 93.0197 108.674C92.8813 108.572 92.7459 108.455 92.6145 108.325C91.7798 107.491 91.4959 106.424 91.9789 105.941C92.4609 105.458 93.529 105.743 94.3637 106.576C94.4607 106.673 94.5516 106.774 94.6315 106.877V102.347H95.2337V106.877C95.3146 106.774 95.4045 106.673 95.5015 106.576C96.3362 105.743 97.4043 105.458 97.8863 105.941C98.3693 106.424 98.0854 107.491 97.2507 108.325C97.1294 108.446 97.0031 108.556 96.8748 108.652C98.3552 108.715 99.8295 108.858 101.296 109.083C108 110.116 114.543 112.879 120.754 117.294C120.776 117.55 120.791 117.808 120.798 118.068Z" fill="#6F795F"/>
</g>
<defs>
<filter id="filter0_d_1710_6229" x="0" y="0" width="192" height="237" filterUnits="userSpaceOnUse" color-interpolation-filters="sRGB">
<feFlood flood-opacity="0" result="BackgroundImageFix"/>
<feColorMatrix in="SourceAlpha" type="matrix" values="0 0 0 0 0 0 0 0 0 0 0 0 0 0 0 0 0 0 127 0" result="hardAlpha"/>
<feOffset dy="4"/>
<feGaussianBlur stdDeviation="10"/>
<feComposite in2="hardAlpha" operator="out"/>
<feColorMatrix type="matrix" values="0 0 0 0 0 0 0 0 0 0 0 0 0 0 0 0 0 0 0.1 0"/>
<feBlend mode="normal" in2="BackgroundImageFix" result="effect1_dropShadow_1710_6229"/>
<feBlend mode="normal" in="SourceGraphic" in2="effect1_dropShadow_1710_6229" result="shape"/>
</filter>
<clipPath id="clip0_1710_6229">
<rect width="131" height="119" fill="white" transform="translate(30 94)"/>
</clipPath>
</defs>
</svg>
