<svg width="152" height="197" viewBox="0 0 152 197" fill="none" xmlns="http://www.w3.org/2000/svg">
<rect width="152" height="197" rx="12" fill="#DABE74"/>
<path d="M19.5215 32.1953C16.5723 32.1953 14.4141 30.457 14.3652 28.0156H17.2168C17.2852 29.1191 18.291 29.8809 19.5215 29.8711C20.9863 29.8809 22.0312 28.8457 22.0215 27.3711C22.0312 25.8672 20.9668 24.8223 19.4824 24.8125C18.418 24.8125 17.6758 25.2129 17.2559 26.0039H14.5996L15.3613 17.8594H24.0723V20.2617H17.7832L17.3926 23.8359H17.5098C18.0273 23.1426 19.1016 22.6348 20.3418 22.6445C22.9395 22.6348 24.873 24.5781 24.873 27.293C24.873 30.1543 22.7051 32.1953 19.5215 32.1953ZM35.3418 17.4883V26.0234H26.8066V17.4883H35.3418ZM28.8574 33.4844V27.7227H31.3379V31.4922H41.0254V33.4844H28.8574ZM29.2676 24.0703H32.8809V19.4805H29.2676V24.0703ZM37.8809 28.9922V16.0234H40.3809V21.1406H42.7832V23.1914H40.3809V28.9922H37.8809ZM58.623 16.043V29.4609H56.123V28.0547H52.7246V26.3555H56.123V16.043H58.623ZM43.5059 23.9141C46.7578 23.8945 51.1523 23.8457 54.9121 23.3867L55.0488 25.1641C53.6426 25.3984 52.1875 25.5645 50.752 25.6719V29.0508H48.252V31.4922H59.0137V33.4844H45.7715V28.1719H48.252V25.8184C46.6602 25.877 45.1465 25.8867 43.7988 25.8867L43.5059 23.9141ZM44.8145 19.832C44.8145 17.9375 46.6406 16.6387 49.2871 16.6484C51.8652 16.6387 53.7109 17.9375 53.7207 19.832C53.7109 21.7363 51.8652 22.9668 49.2871 22.957C46.6406 22.9668 44.8145 21.7363 44.8145 19.832ZM47.1777 19.832C47.168 20.6914 48.0176 21.1699 49.2871 21.1602C50.4785 21.1699 51.3379 20.6914 51.3574 19.832C51.3379 18.9531 50.4785 18.4648 49.2871 18.4648C48.0176 18.4648 47.168 18.9531 47.1777 19.832ZM73.7988 17.7031V19.6562H71.0645C71.1328 21.0918 72.2168 22.5469 74.3652 23.2305L73.3105 25.0469C71.6699 24.5586 70.5566 23.582 69.9023 22.3711C69.2676 23.6895 68.1445 24.793 66.5137 25.3594L65.4199 23.5039C67.5293 22.7129 68.6133 21.1211 68.7012 19.6562H65.9473V17.7031H68.7012V16.082H71.0645V17.7031H73.7988ZM68.5645 27.8789V26.0039H80.7324V30.6523H71.0645V31.7656H81.3379V33.6016H68.584V28.8555H78.2715V27.8789H68.5645ZM74.5996 25.2422V16.3555H76.9434V19.7148H78.3691V16.043H80.7324V25.3594H78.3691V21.6875H76.9434V25.2422H74.5996ZM97.6074 16.043V29.1289H95.127V16.043H97.6074ZM83.6621 19.1875V17.1953H91.9043V22.8594H86.123V24.832C89.3066 24.8223 91.3184 24.7246 93.623 24.2852L93.8965 26.2773C91.3086 26.7656 89.0039 26.8633 85.2441 26.8633H83.6816V21.0234H89.4238V19.1875H83.6621ZM85.6543 33.4844V28.0352H88.1348V31.4922H98.0762V33.4844H85.6543ZM106.924 20.8672C106.914 23.7383 108.398 26.8145 111.377 28.0547L110.029 30.0078C107.939 29.1191 106.494 27.3516 105.693 25.2031C104.893 27.5371 103.418 29.4902 101.318 30.457L99.8926 28.4844C102.842 27.166 104.365 23.875 104.365 20.8672V19.7734H100.596V17.7422H110.635V19.7734H106.924V20.8672ZM112.393 33.7969V16.0234H114.912V33.7969H112.393Z" fill="black"/>
<g clip-path="url(#clip0_1743_4911)">
<path d="M47.8704 165.948C52.317 165.948 55.9216 161.583 55.9216 156.199C55.9216 150.815 52.317 146.45 47.8704 146.45C43.4239 146.45 39.8192 150.815 39.8192 156.199C39.8192 161.583 43.4239 165.948 47.8704 165.948Z" fill="#393229"/>
<path d="M43.2579 159.735C47.7045 159.735 51.3091 155.37 51.3091 149.985C51.3091 144.601 47.7045 140.236 43.2579 140.236C38.8114 140.236 35.2068 144.601 35.2068 149.985C35.2068 155.37 38.8114 159.735 43.2579 159.735Z" fill="#393229"/>
<path d="M38.3747 148.21C42.8212 148.21 46.4258 143.845 46.4258 138.461C46.4258 133.077 42.8212 128.712 38.3747 128.712C33.9281 128.712 30.3235 133.077 30.3235 138.461C30.3235 143.845 33.9281 148.21 38.3747 148.21Z" fill="#393229"/>
<path d="M36.0679 136.325C40.5145 136.325 44.1191 131.96 44.1191 126.575C44.1191 121.191 40.5145 116.826 36.0679 116.826C31.6214 116.826 28.0168 121.191 28.0168 126.575C28.0168 131.96 31.6214 136.325 36.0679 136.325Z" fill="#393229"/>
<path d="M33.8976 124.409C38.3441 124.409 41.9488 120.044 41.9488 114.66C41.9488 109.275 38.3441 104.91 33.8976 104.91C29.451 104.91 25.8464 109.275 25.8464 114.66C25.8464 120.044 29.451 124.409 33.8976 124.409Z" fill="#393229"/>
<path d="M37.8032 112.914C42.9079 112.914 47.0461 107.991 47.0461 101.918C47.0461 95.8454 42.9079 90.9225 37.8032 90.9225C32.6985 90.9225 28.5603 95.8454 28.5603 101.918C28.5603 107.991 32.6985 112.914 37.8032 112.914Z" fill="#393229"/>
<path d="M55.3793 93.5321C58.4213 88.273 57.3035 81.9445 52.8827 79.3969C48.4619 76.8493 42.4121 79.0474 39.3701 84.3064C36.3282 89.5655 37.4459 95.894 41.8667 98.4416C46.2875 100.989 52.3373 98.7912 55.3793 93.5321Z" fill="#393229"/>
<path d="M79.7031 88.6563C83.8275 81.5261 81.0695 72.2298 73.5431 67.8925C66.0167 63.5552 56.5719 65.8193 52.4476 72.9496C48.3232 80.0799 51.0812 89.3762 58.6076 93.7135C66.134 98.0508 75.5788 95.7866 79.7031 88.6563Z" fill="#393229"/>
<path d="M89.4125 91.4999C93.5368 84.3696 90.7789 75.0733 83.2525 70.736C75.7261 66.3987 66.2813 68.6629 62.1569 75.7932C58.0326 82.9234 60.7905 92.2197 68.3169 96.557C75.8433 100.894 85.2881 98.6302 89.4125 91.4999Z" fill="#393229"/>
<path d="M98.5629 96.7731C102.687 89.6428 99.9293 80.3465 92.4029 76.0092C84.8765 71.6719 75.4317 73.9361 71.3073 81.0664C67.183 88.1966 69.9409 97.4929 77.4673 101.83C84.9937 106.168 94.4385 103.903 98.5629 96.7731Z" fill="#393229"/>
<path d="M103.163 114.172C107.287 107.042 104.529 97.7454 97.0026 93.4082C89.4762 89.0709 80.0314 91.335 75.907 98.4653C71.7827 105.596 74.5406 114.892 82.067 119.229C89.5934 123.566 99.0382 121.302 103.163 114.172Z" fill="#393229"/>
<path d="M80.9741 109.772C85.0985 102.642 82.3405 93.3459 74.8141 89.0086C67.2877 84.6713 57.8429 86.9355 53.7186 94.0658C49.5942 101.196 52.3522 110.492 59.8786 114.83C67.405 119.167 76.8498 116.903 80.9741 109.772Z" fill="#393229"/>
<path d="M64.9368 118.303C69.0611 111.173 66.3032 101.876 58.7768 97.5389C51.2504 93.2017 41.8056 95.4658 37.6812 102.596C33.5569 109.726 36.3148 119.023 43.8412 123.36C51.3677 127.697 60.8124 125.433 64.9368 118.303Z" fill="#393229"/>
<path d="M112.215 103.77C116.34 96.6398 113.582 87.3435 106.055 83.0062C98.5288 78.6689 89.084 80.933 84.9597 88.0633C80.8353 95.1936 83.5932 104.49 91.1197 108.827C98.6461 113.164 108.091 110.9 112.215 103.77Z" fill="#393229"/>
<path d="M116.817 108.374C120.941 101.243 118.183 91.9471 110.657 87.6098C103.131 83.2725 93.6858 85.5367 89.5615 92.667C85.4372 99.7972 88.1951 109.094 95.7215 113.431C103.248 117.768 112.693 115.504 116.817 108.374Z" fill="#393229"/>
<path d="M122.568 122.514C126.693 115.384 123.935 106.088 116.408 101.75C108.882 97.413 99.4371 99.6771 95.3127 106.807C91.1884 113.938 93.9463 123.234 101.473 127.571C108.999 131.909 118.444 129.644 122.568 122.514Z" fill="#393229"/>
<path d="M120.261 139.234C124.385 132.103 121.628 122.807 114.101 118.47C106.575 114.133 97.13 116.397 93.0056 123.527C88.8813 130.657 91.6392 139.954 99.1656 144.291C106.692 148.628 116.137 146.364 120.261 139.234Z" fill="#393229"/>
<path d="M116.23 153.288C120.354 146.158 117.596 136.862 110.07 132.524C102.543 128.187 93.0984 130.451 88.9741 137.582C84.8498 144.712 87.6077 154.008 95.1341 158.345C102.66 162.683 112.105 160.419 116.23 153.288Z" fill="#393229"/>
<path d="M107.025 164.894C111.149 157.763 108.391 148.467 100.865 144.13C93.3382 139.792 83.8934 142.057 79.7691 149.187C75.6448 156.317 78.4027 165.613 85.9291 169.951C93.4555 174.288 102.9 172.024 107.025 164.894Z" fill="#393229"/>
<path d="M65.7247 71.8785C67.5243 68.7673 66.3212 64.7111 63.0375 62.8188C59.7538 60.9265 55.633 61.9146 53.8334 65.0259C52.0337 68.1371 53.2368 72.1933 56.5205 74.0856C59.8042 75.9779 63.9251 74.9898 65.7247 71.8785Z" fill="#393229"/>
<path d="M66.6288 73.7684C72.468 73.0373 76.7328 68.7149 76.1546 64.114C75.5763 59.5131 70.374 56.376 64.5349 57.1072C58.6957 57.8383 54.4309 62.1607 55.0091 66.7616C55.5873 71.3625 60.7896 74.4996 66.6288 73.7684Z" fill="#393229"/>
<path d="M82.7323 67.5453C80.9323 70.6567 76.8117 71.6444 73.5283 69.7524C70.2449 67.8604 69.0412 63.804 70.8402 60.6927C72.6402 57.5813 76.7609 56.5936 80.0443 58.4856C83.3277 60.3777 84.5313 64.434 82.7323 67.5453Z" fill="#393229"/>
<path d="M90.5845 72.8495C92.8509 68.9312 91.3357 63.8228 87.2001 61.4396C83.0645 59.0564 77.8747 60.3008 75.6083 64.2191C73.3418 68.1373 74.8571 73.2457 78.9926 75.6289C83.1282 78.0122 88.3181 76.7678 90.5845 72.8495Z" fill="#393229"/>
<path d="M97.0232 81.1558C99.2897 77.2375 97.7744 72.1291 93.6389 69.7459C89.5033 67.3627 84.3134 68.6071 82.047 72.5253C79.7806 76.4436 81.2958 81.552 85.4314 83.9352C89.567 86.3184 94.7568 85.074 97.0232 81.1558Z" fill="#393229"/>
<path d="M105.809 76.454C105.96 79.2653 102.85 81.7178 98.8625 81.9314C94.8753 82.1451 91.5192 80.0384 91.3689 77.2272C91.2176 74.4159 94.3277 71.9634 98.315 71.7498C102.302 71.5361 105.658 73.6428 105.809 76.454Z" fill="#393229"/>
<g opacity="0.12">
<path d="M111.512 109.019C103.787 117.43 102.122 126.995 104.819 137.909C105.181 139.357 105.609 140.795 106.139 142.21C105.933 141.892 105.752 141.559 105.57 141.227C104.327 138.865 103.454 136.328 102.905 133.715C100.913 124.379 103.768 114.885 111.512 109.019Z" fill="#1E170A"/>
<path d="M100.636 91.5327C99.3414 95.3039 98.55 99.1466 98.769 103.104C99.0507 108.834 101.299 114.358 104.59 119.038C103.644 118.23 102.821 117.283 102.069 116.293C96.6146 109.091 95.7922 99.2609 100.636 91.5317V91.5327Z" fill="#1E170A"/>
<path d="M84.9963 83.4906C84.2396 90.4108 84.5244 97.4662 91.2863 101.241C93.2734 102.349 95.4856 103.05 97.7515 103.418C97.4598 103.453 97.1661 103.461 96.8724 103.469C94.7857 103.482 92.7169 103.061 90.8004 102.201C83.3297 98.8018 82.4675 90.4804 84.9963 83.4896V83.4906Z" fill="#1E170A"/>
<path d="M47.061 91.5327C57.0386 95.4857 65.8783 93.8551 73.9813 86.9308C75.0406 86.0275 76.06 85.0686 77.0118 84.0262C76.8396 84.3352 76.6424 84.6294 76.4463 84.9245C75.0246 86.9765 73.2714 88.7772 71.2912 90.3055C64.0395 95.927 54.8175 96.4347 47.061 91.5337V91.5327Z" fill="#1E170A"/>
<path d="M37.9038 103.418C46.0256 103.836 53.8528 100.915 60.8895 97.1045C63.2649 95.8176 65.5966 94.4234 67.8545 92.9338C67.6206 93.1833 67.3727 93.4178 67.1258 93.6543C64.8708 95.754 62.344 97.5536 59.6799 99.1018C57.1571 100.56 54.4512 101.781 51.6715 102.66C51.2086 102.792 50.6431 102.975 50.1772 103.09C49.3897 103.294 48.4409 103.505 47.6464 103.649C47.1725 103.718 46.5812 103.824 46.1063 103.874C45.2531 103.976 44.3819 104.028 43.5218 104.057C43.0479 104.048 42.4416 104.057 41.9697 104.03L40.9393 103.952C40.6326 103.933 40.2185 103.863 39.9158 103.821C39.2348 103.741 38.5658 103.569 37.9028 103.418H37.9038Z" fill="#1E170A"/>
<path d="M67.8545 91.0796C71.9483 93.4963 76.7131 94.1045 81.3923 94.2247C82.9673 94.2684 84.5502 94.2565 86.169 94.2356C85.7927 94.3887 85.4064 94.5149 85.0162 94.6262C83.8454 94.962 82.6447 95.1757 81.4321 95.2999C76.725 95.76 71.0722 94.8448 67.8535 91.0796H67.8545Z" fill="#1E170A"/>
<path d="M56.8505 83.739C60.9443 86.1557 65.7091 86.7639 70.3883 86.8841C71.9632 86.9279 73.5462 86.9159 75.165 86.8951C74.7887 87.0481 74.4024 87.1743 74.0121 87.2856C72.8413 87.6215 71.6407 87.8351 70.4281 87.9593C65.721 88.4194 60.0682 87.5042 56.8495 83.739H56.8505Z" fill="#1E170A"/>
<path d="M80.0861 79.0248C74.5278 77.089 68.8819 76.9579 63.1206 77.8711C61.225 78.1652 59.3374 78.5518 57.4349 79.0248C57.853 78.7654 58.2901 78.5379 58.7341 78.3262C62.7642 76.4471 67.3269 75.6402 71.7572 76.0834C74.707 76.3865 77.648 77.3126 80.0861 79.0248Z" fill="#1E170A"/>
<path d="M109.005 89.7907C106.478 88.2485 103.898 87.5827 100.994 87.1792C100.048 87.0401 99.0906 86.9278 98.084 86.7847C98.314 86.6704 98.554 86.585 98.7959 86.5075C102.299 85.4293 107.145 86.3673 109.005 89.7907Z" fill="#1E170A"/>
<path d="M97.7525 85.5923C96.8366 84.3024 95.8749 83.0176 94.8624 81.8012C87.5051 72.8896 77.5434 68.4109 66.0067 68.4278C64.1998 68.4318 62.3839 68.5272 60.5769 68.7925C61.01 68.6454 61.454 68.5321 61.899 68.4198C70.455 66.4503 79.8701 68.076 87.1168 73.0992C91.6805 76.2364 95.3243 80.6346 97.7545 85.5923H97.7525Z" fill="#1E170A"/>
<path d="M34.6552 117.261C38.1746 115.655 41.439 113.748 44.3799 111.272C45.3367 110.463 46.2795 109.594 47.1576 108.702C49.3011 106.513 51.2175 104.119 52.8801 101.536C52.5934 102.54 52.1643 103.499 51.6904 104.429C48.3025 110.902 41.9428 116.03 34.6562 117.261H34.6552Z" fill="#1E170A"/>
<path d="M34.6552 130.764C35.5124 129.687 36.4124 128.638 37.2666 127.56C38.525 125.97 39.7237 124.334 40.7989 122.617C42.2753 120.224 43.5636 117.723 44.4407 115.038C44.4715 115.439 44.4576 115.842 44.4228 116.242C43.8394 122.036 39.5793 127.796 34.6552 130.764Z" fill="#1E170A"/>
<path d="M111.512 109.019C116.24 113.759 118.182 120.131 116.598 126.668C115.18 132.481 111.563 137.608 107.066 141.48C106.762 141.73 106.459 141.981 106.139 142.21C108.235 139.906 110.108 137.413 111.707 134.757C116.977 125.923 117.517 117.648 111.512 109.019Z" fill="#1E170A"/>
<path d="M103.781 89.2025C107.87 91.0627 110.644 94.7524 111.77 99.0462C112.584 102.288 112.599 105.844 111.513 109.019C111.657 104.219 111.029 99.2529 108.646 95.0187C108.133 94.0796 107.491 93.1724 106.832 92.3307C106.682 92.1498 106.311 91.7205 106.163 91.5397C105.99 91.3578 105.739 91.0915 105.569 90.9057C105.002 90.3085 104.386 89.7639 103.782 89.2025H103.781Z" fill="#1E170A"/>
<path d="M90.9946 70.9985C91.6656 71.7359 91.575 72.9015 91.0862 73.7114C90.6023 74.5173 89.7531 75.1334 88.7884 75.1175C89.1219 74.3056 89.4992 73.7094 89.9044 73.0178C90.3275 72.3182 90.5964 71.7955 90.9936 70.9985H90.9946Z" fill="#1E170A"/>
<path d="M96.7848 73.0575C97.9407 74.2778 98.4643 76.1052 98.079 77.7548C97.7346 79.2424 96.6116 80.5154 95.157 80.9655C94.9579 81.0261 94.7538 81.0738 94.5438 81.0838C94.8315 80.7857 95.0883 80.4975 95.3243 80.2033C96.3288 78.986 96.8834 77.5998 96.9301 76.0387C96.9301 75.9522 96.9361 75.7276 96.9391 75.6382C96.9371 75.3709 96.9262 75.0837 96.9132 74.8144C96.8843 74.2271 96.8077 73.6518 96.7848 73.0565V73.0575Z" fill="#1E170A"/>
</g>
<path d="M117.113 103.632C117.889 98.1598 115.36 92.4092 110.324 89.0663C109.02 87.0868 107.229 85.3588 105.007 84.0778C103.703 83.3266 102.34 82.781 100.957 82.4303C103.307 81.522 104.874 79.7283 104.768 77.7489C104.622 75.033 101.381 72.9979 97.5285 73.2046C96.8455 73.2414 96.1905 73.3467 95.5742 73.5087C94.9002 72.6302 94.04 71.8621 93.0106 71.2688C92.3864 70.9091 91.7363 70.6348 91.0772 70.442C91.0672 67.6189 89.5211 64.8176 86.7923 63.2455C85.2282 62.3442 83.5079 61.9825 81.8622 62.0998C81.3345 61.431 80.6695 60.8457 79.879 60.3896C77.4986 59.0173 74.6622 59.213 72.6601 60.6658C70.6003 59.3363 67.8326 58.6893 64.8957 59.057C60.8019 59.5698 57.5105 61.911 56.2262 64.8544C55.5622 65.3373 54.9897 65.9584 54.5567 66.7067C53.4874 68.556 53.5173 70.7501 54.4362 72.5915C53.9912 73.142 53.583 73.7322 53.2186 74.3623C52.234 76.0645 51.6556 77.8949 51.4525 79.7492C47.5459 78.8996 43.0469 81.0778 40.5858 85.3339C39.3911 87.3999 38.8605 89.6367 38.9391 91.7295C34.0688 91.8139 30.1433 96.5341 30.1433 102.348C30.1433 103.949 30.4429 105.467 30.9756 106.828C28.8928 108.518 27.5219 111.393 27.5219 114.657C27.5219 117.623 28.6549 120.266 30.424 121.993C29.9093 123.251 29.6186 124.668 29.6186 126.168C29.6186 129.181 30.7884 131.861 32.6063 133.585C32.1195 134.815 31.8467 136.193 31.8467 137.649C31.8467 141.648 33.9055 145.062 36.8096 146.429C36.6493 147.181 36.5647 147.97 36.5647 148.783C36.5647 152.697 38.5369 156.053 41.3435 157.475C42.2992 161.366 45.274 164.204 48.7973 164.204C53.0932 164.204 56.5747 159.988 56.5747 154.786C56.5747 150.872 54.6025 147.516 51.796 146.094C51.11 143.299 49.3817 141.05 47.1566 140.003C47.3169 139.251 47.4015 138.462 47.4015 137.649C47.4015 134.636 46.2317 131.956 44.4138 130.232C44.9006 129.002 45.1734 127.624 45.1734 126.168C45.1734 125.035 45.0081 123.95 44.7055 122.944C44.7722 122.984 44.8379 123.024 44.9046 123.062C52.1753 127.253 61.2997 125.065 65.2839 118.176C65.5488 117.719 65.7827 117.252 65.9888 116.779C69.8038 117.348 73.6507 116.475 76.7002 114.359C77.9864 116.224 79.7128 117.852 81.8313 119.074C85.8196 121.372 90.3644 121.751 94.3138 120.489C94.3317 120.525 94.3506 120.562 94.3695 120.599C93.6239 121.378 92.9608 122.255 92.4003 123.224C90.5177 126.48 90.1205 130.202 90.9916 133.666C90.0338 134.567 89.1936 135.615 88.5066 136.804C87.5608 138.439 86.9904 140.193 86.7664 141.973C83.8274 143.09 81.2738 145.143 79.6142 148.013C75.6299 154.901 78.2941 163.882 85.5647 168.072C92.8354 172.262 101.96 170.074 105.944 163.186C106.89 161.55 107.46 159.796 107.684 158.016C110.623 156.9 113.177 154.846 114.836 151.977C116.719 148.721 117.116 144.999 116.245 141.535C117.203 140.634 118.043 139.586 118.73 138.397C121.189 134.145 121.115 129.097 118.988 124.87C119.734 124.091 120.397 123.214 120.957 122.245C124.529 116.069 122.757 108.212 117.112 103.633L117.113 103.632Z" stroke="#332D24" stroke-width="0.81" stroke-miterlimit="10"/>
<g opacity="0.54">
<path d="M111.512 109.019C103.817 116.431 101.685 125.937 103.985 136.195C103.817 135.599 103.658 134.999 103.529 134.393C103.122 132.573 102.881 130.72 102.821 128.855C102.532 121.148 105.653 114.04 111.513 109.02L111.512 109.019Z" fill="#1E170A"/>
<path d="M100.636 91.5327C96.9322 99.8422 97.6241 108.361 102.429 116.061C103.073 117.103 103.79 118.104 104.59 119.039C104.155 118.603 103.755 118.133 103.372 117.651C99.7228 113.057 97.634 107.16 97.9377 101.277C97.9626 100.83 98.0143 100.338 98.0492 99.8889C98.1129 99.4457 98.1806 98.9518 98.2503 98.5116C98.315 98.2095 98.4643 97.4453 98.531 97.1492C98.6107 96.8501 98.8118 96.1128 98.8934 95.8077C98.984 95.5414 99.2429 94.7543 99.3355 94.492C99.45 94.1671 99.7267 93.5271 99.8512 93.2051C100.052 92.7043 100.405 92.0246 100.635 91.5337L100.636 91.5327Z" fill="#1E170A"/>
<path d="M84.9963 83.4905C83.6164 90.4635 84.0764 97.9392 91.1091 101.591C93.1659 102.644 95.4438 103.258 97.7515 103.418C96.5857 103.429 95.4229 103.262 94.2849 103.011C84.5512 100.685 82.6746 92.1677 84.9953 83.4905H84.9963Z" fill="#1E170A"/>
<path d="M47.061 91.5327C56.6982 96.1763 66.4279 94.3697 74.1515 87.1066C75.1789 86.1547 76.1456 85.1321 77.0118 84.0261C76.6156 84.6065 76.1755 85.157 75.7156 85.6906C74.3367 87.2945 72.7746 88.7393 71.0623 89.9864C63.6901 95.3843 55.0764 95.8385 47.061 91.5327Z" fill="#1E170A"/>
<path d="M37.9037 103.418C43.3037 104.09 48.7704 102.969 53.7911 100.989C58.8217 98.9826 63.5576 96.225 67.8545 92.9338C61.9995 97.9293 54.1923 102.136 46.5513 103.41C46.2058 103.481 45.3875 103.569 45.03 103.621C44.5591 103.679 43.9757 103.709 43.5008 103.751C43.0289 103.758 42.4366 103.795 41.9667 103.788C41.8303 103.782 40.8198 103.755 40.6894 103.749C40.4952 103.735 40.1159 103.7 39.9258 103.684C39.2458 103.646 38.5748 103.516 37.9037 103.42V103.418Z" fill="#1E170A"/>
<path d="M67.8545 91.0795C71.0324 93.5181 75.0893 94.4085 79.0248 94.5854C81.4102 94.6937 83.7996 94.5665 86.17 94.2356C84.615 94.6182 83.0171 94.8149 81.4182 94.9083C76.6862 95.1448 71.4684 94.3856 67.8545 91.0795Z" fill="#1E170A"/>
<path d="M56.8505 83.739C60.0283 86.1775 64.0853 87.0679 68.0208 87.2448C70.4072 87.3531 72.7955 87.2259 75.166 86.895C73.6109 87.2776 72.013 87.4743 70.4141 87.5677C65.6822 87.8043 60.4644 87.0451 56.8505 83.739Z" fill="#1E170A"/>
<path d="M80.0861 79.0247C74.7797 76.5504 68.7137 76.3665 63.0399 77.4875C61.1404 77.8641 59.2548 78.355 57.4349 79.0247C58.316 78.6104 59.2329 78.2745 60.1578 77.9714C66.5951 75.9124 74.043 75.665 80.0861 79.0247Z" fill="#1E170A"/>
<path d="M109.005 89.7907C107.928 88.8149 106.647 88.0666 105.271 87.6016C102.971 86.8116 100.505 86.6456 98.083 86.7847C99.0417 86.5651 100.032 86.4886 101.019 86.4955C103.951 86.5204 107.103 87.4426 109.004 89.7907H109.005Z" fill="#1E170A"/>
<path d="M97.7525 85.5922C91.7781 75.8478 82.9275 69.6132 71.4356 68.3781C67.8256 68.0014 64.144 68.0819 60.5759 68.7934C61.458 68.5619 62.358 68.4029 63.261 68.2757C71.4017 67.1449 80.0224 68.8372 86.852 73.4907C91.4067 76.5574 95.0724 80.8274 97.7525 85.5932V85.5922Z" fill="#1E170A"/>
<path d="M34.6552 117.261C41.2778 115.031 46.9605 110.588 50.896 104.844C51.6197 103.78 52.3037 102.689 52.8791 101.535C51.6765 104.399 49.8516 106.98 47.7609 109.268C44.2446 113.067 39.6769 115.943 34.6552 117.261Z" fill="#1E170A"/>
<path d="M34.6552 130.764C38.9013 126.739 42.6118 121.893 44.1858 116.189C44.2854 115.809 44.379 115.428 44.4407 115.038C44.3899 115.826 44.2236 116.604 44.0235 117.367C42.5391 122.721 38.972 127.344 34.6552 130.764Z" fill="#1E170A"/>
<path d="M37.2766 143.1C42.0224 138.695 43.908 132.705 43.2788 126.345C43.1952 125.465 43.0688 124.587 42.8687 123.726C43.01 124.147 43.1206 124.578 43.2181 125.011C43.8871 128.059 43.8463 131.27 43.0499 134.29C42.1081 137.794 40.1199 140.841 37.2766 143.1Z" fill="#1E170A"/>
<path d="M111.512 109.019C118.512 116.995 117.959 126.588 112.282 135.126C110.546 137.74 108.499 140.152 106.139 142.21C107.271 141.131 108.323 139.972 109.304 138.758C113.184 133.979 116.272 128.14 116.312 121.867C116.365 117.137 114.43 112.68 111.512 109.019Z" fill="#1E170A"/>
<path d="M103.781 89.2024C104.141 89.434 104.633 89.7211 104.968 89.9736C105.177 90.1296 105.63 90.4505 105.818 90.6155C106.066 90.8301 106.39 91.0845 106.623 91.3131C106.806 91.4939 107.22 91.8775 107.382 92.0633C107.611 92.3247 107.876 92.593 108.087 92.8663L108.531 93.4237C108.802 93.8043 109.088 94.2018 109.328 94.6053C109.434 94.7861 109.6 95.0336 109.693 95.2184C111.979 99.3552 112.518 104.434 111.512 109.019C112.141 104.417 111.599 99.5172 109.383 95.3883C109.236 95.1011 109.019 94.7623 108.859 94.4801C108.565 94.02 108.194 93.4824 107.858 93.0471C107.623 92.7252 107.329 92.4111 107.076 92.1021C106.914 91.9272 106.514 91.5108 106.352 91.3379C106.116 91.1193 105.817 90.8381 105.582 90.6175C105.461 90.5121 105.027 90.1584 104.905 90.054C104.585 89.7808 104.114 89.4598 103.78 89.2004L103.781 89.2024Z" fill="#1E170A"/>
<path d="M90.9946 70.9985C91.5371 72.6669 90.3156 74.4705 88.7894 75.1174C89.092 74.8303 89.3748 74.5391 89.6366 74.233C90.437 73.3248 90.9667 72.2257 90.9956 70.9985H90.9946Z" fill="#1E170A"/>
<path d="M96.7848 73.0575C97.9765 75.1592 98.2025 77.8641 96.4832 79.7542C95.9525 80.3405 95.2885 80.8194 94.5448 81.0848C96.1915 80.099 97.3443 78.3808 97.3782 76.4401C97.4111 75.2834 97.1442 74.1635 96.7848 73.0585V73.0575Z" fill="#1E170A"/>
</g>
<path d="M41.2359 143.54C46.8971 143.54 51.4863 138.926 51.4863 133.234C51.4863 127.542 46.8971 122.928 41.2359 122.928C35.5748 122.928 30.9855 127.542 30.9855 133.234C30.9855 138.926 35.5748 143.54 41.2359 143.54Z" fill="#AFA48E"/>
<path d="M102.326 143.289C100.777 142.553 99.5376 141.51 98.6057 140.314C98.312 139.938 98.4892 139.394 98.9333 139.22C99.5884 138.964 100.168 138.471 100.531 137.752C101.001 136.819 100.942 135.668 100.38 134.79C99.671 133.684 98.4454 133.232 97.3145 133.434C96.8545 133.515 96.4453 133.097 96.5061 132.631C96.7868 130.447 97.7565 128.335 99.4231 126.66C103.428 122.631 109.916 122.634 113.914 126.655C118.176 130.942 117.903 138.066 113.084 141.988C110.069 144.443 105.833 144.954 102.326 143.289Z" fill="#AFA48E"/>
<path d="M108.078 131.711V135.478C108.078 153.382 93.6358 167.9 75.8211 167.9H72.0807C54.265 167.9 39.8312 153.382 39.8312 135.478V131.711C39.8312 122.325 43.7965 113.87 50.1353 107.952C50.1353 107.952 50.1353 107.951 50.1383 107.95C51.336 106.83 52.6193 105.803 53.9762 104.876C55.5473 103.8 57.2168 102.865 58.971 102.086C60.4783 101.406 62.0424 100.847 63.6552 100.408C66.3392 99.6782 69.1637 99.2887 72.0807 99.2887H75.8211C82.5203 99.2887 88.7545 101.343 93.9106 104.862C100.302 109.218 105.053 115.821 107.045 123.542C107.719 126.152 108.078 128.89 108.078 131.711Z" fill="#E5D9BF"/>
<path d="M62.3122 132.349C63.347 132.349 64.1858 131.505 64.1858 130.465C64.1858 129.424 63.347 128.581 62.3122 128.581C61.2774 128.581 60.4385 129.424 60.4385 130.465C60.4385 131.505 61.2774 132.349 62.3122 132.349Z" fill="#686053"/>
<path d="M86.2915 132.349C87.3263 132.349 88.1652 131.505 88.1652 130.465C88.1652 129.424 87.3263 128.581 86.2915 128.581C85.2567 128.581 84.4178 129.424 84.4178 130.465C84.4178 131.505 85.2567 132.349 86.2915 132.349Z" fill="#686053"/>
<path d="M76.1018 137.299C76.1018 137.908 75.0385 138.401 73.7264 138.401C72.4142 138.401 71.351 137.909 71.351 137.299C71.351 136.69 72.4142 136.197 73.7264 136.197C75.0385 136.197 76.1018 136.69 76.1018 137.299Z" fill="#686053"/>
<path d="M65.499 124.56C62.4177 124.112 59.2558 125.224 56.3626 126.211C55.1729 126.617 54.2789 126.036 53.9763 125.053C53.6736 124.07 53.9394 123.121 55.2118 122.661C58.308 121.542 62.0464 120.397 65.3795 120.839C66.7494 121.021 67.3418 121.761 67.3747 122.825C67.4085 123.888 66.7644 124.745 65.498 124.561L65.499 124.56Z" fill="#686053"/>
<path d="M82.8836 124.56C85.9649 124.112 89.1269 125.224 92.02 126.211C93.2097 126.617 94.1037 126.036 94.4064 125.053C94.709 124.07 94.4432 123.121 93.1709 122.661C90.0747 121.542 86.3363 120.397 83.0031 120.839C81.6332 121.021 81.0408 121.761 81.008 122.825C80.9741 123.888 81.6183 124.745 82.8846 124.561L82.8836 124.56Z" fill="#686053"/>
<path d="M73.9544 152.912C71.4057 152.986 69.6037 152.302 68.8949 151.168C68.5106 150.554 68.9706 149.757 69.6953 149.757H78.2134C78.9392 149.757 79.3992 150.554 79.0139 151.168C78.304 152.302 76.5021 152.985 73.9534 152.912H73.9544Z" fill="#686053"/>
<path d="M72.4083 99.6315L73.9584 94.9213L75.5005 99.6335" fill="#D1C6B0"/>
<path d="M107.045 123.542C78.5967 88.5963 50.4609 107.728 50.1383 107.95C51.336 106.83 52.6193 105.803 53.9763 104.876C55.5473 103.8 57.2168 102.865 58.971 102.086C60.4783 101.406 62.0424 100.847 63.6552 100.408C66.3393 99.6782 69.1637 99.2887 72.0807 99.2887H75.8211C82.5203 99.2887 88.7545 101.343 93.9106 104.862C100.302 109.218 105.053 115.821 107.045 123.542Z" fill="#D1C6B0"/>
<path opacity="0.2" d="M68 140C67.9946 140.284 67.9471 140.579 67.8536 140.855C67.8156 140.997 67.7614 141.131 67.7071 141.267C67.6556 141.406 67.5919 141.535 67.5295 141.666C67.276 142.191 66.9669 142.682 66.6374 143.156C65.9703 144.098 65.2097 144.962 64.4057 145.777C63.599 146.59 62.7448 147.35 61.8486 148.062C60.9497 148.77 60.0155 149.438 59 150C59.7294 149.11 60.5036 148.282 61.2832 147.463C62.0655 146.648 62.8573 145.849 63.6478 145.053C64.4369 144.255 65.2273 143.463 65.9879 142.65C66.3676 142.243 66.7391 141.83 67.0889 141.4C67.4373 140.968 67.7668 140.526 67.9986 140H68Z" fill="#A0998D"/>
<path opacity="0.2" d="M80.0014 139C80.2318 139.578 80.5627 140.063 80.9111 140.54C81.2609 141.013 81.6324 141.467 82.012 141.915C82.7727 142.81 83.5631 143.681 84.3522 144.558C85.1427 145.433 85.9345 146.313 86.7168 147.209C87.4977 148.11 88.2706 149.019 89 150C87.9845 149.382 87.0503 148.647 86.1514 147.868C85.2552 147.086 84.3997 146.249 83.5943 145.354C82.7903 144.46 82.0297 143.508 81.3626 142.471C81.0331 141.95 80.724 141.408 80.4705 140.833C80.4095 140.688 80.3444 140.546 80.2929 140.394C80.2386 140.245 80.1844 140.097 80.1464 139.94C80.0542 139.637 80.0068 139.312 80 139H80.0014Z" fill="#A0998D"/>
<path d="M13.0653 188.685C11.9771 190.622 12 196.86 12 196.86H59.7785L50.3345 172.254C50.3345 172.254 19.3274 177.531 13.0643 188.686L13.0653 188.685Z" fill="#CAB080"/>
<g opacity="0.38">
<path d="M12.7327 189.504C17.8271 177.638 50.4868 172.253 50.4868 172.253L51.3529 174.911C20.6893 180.115 12.7327 189.504 12.7327 189.504Z" fill="#B59F78"/>
</g>
<path d="M47.1944 174.796C47.5996 172.559 52.463 170.29 52.463 170.29C52.463 170.29 61.8851 182.597 75.4607 188.419H55.1988C51.0453 185.741 46.5453 178.385 47.1954 174.796H47.1944Z" fill="#53483B"/>
<path d="M89.0761 177.877L57.644 175.209V161.788H89.0761V177.877Z" fill="#E5D9BF"/>
<path d="M57.6151 164.463C72.3047 177.145 92.8852 188.419 92.8852 188.419H75.4597C61.8841 182.597 52.462 170.29 52.462 170.29L57.6141 164.464L57.6151 164.463Z" fill="#E7E5DA"/>
<path d="M138.836 196.86H81.7089L96.7798 171.705C96.7798 171.705 142.067 179.453 138.837 196.86H138.836Z" fill="#CAB080"/>
<path d="M130.504 185.111C133.886 187.424 138.531 191.724 137.095 189.504C128.977 176.955 96.8166 171.705 96.8166 171.705L95.9505 174.453C106.391 176.548 123.3 180.184 130.504 185.111Z" fill="#B59F78"/>
<path d="M89.0442 165.036C74.3546 178.148 40.2503 196.806 40.2503 196.806L43.0757 196.86H65.715C79.2906 190.84 94.6513 169.674 94.6513 169.674L89.0442 165.036Z" fill="#EFEDE2"/>
<path d="M99.8492 174.411C99.444 172.097 94.5806 169.751 94.5806 169.751C94.5806 169.751 75.6687 190.981 62.0931 197.001L84.4915 196.946C88.645 194.178 100.498 178.121 99.8482 174.412L99.8492 174.411Z" fill="#53483B"/>
</g>
<defs>
<clipPath id="clip0_1743_4911">
<rect width="127" height="140" fill="white" transform="translate(12 57)"/>
</clipPath>
</defs>
</svg>
