<svg width="122" height="225" viewBox="0 0 122 225" fill="none" xmlns="http://www.w3.org/2000/svg">
<g clip-path="url(#clip0_775_11127)">
<path d="M98.2277 158.19L97.7385 158.41C97.7385 158.41 97.7079 158.42 97.6875 158.43C97.5143 158.48 97.3308 158.4 97.2594 158.24L97.0352 157.76C96.9537 157.58 97.0352 157.37 97.2085 157.29L97.6977 157.07C97.8812 156.99 98.085 157.07 98.1768 157.24L98.401 157.72C98.4724 157.88 98.4214 158.06 98.2889 158.16C98.2685 158.17 98.2583 158.18 98.2379 158.19H98.2277Z" fill="#D3BE94"/>
<path d="M98.2276 158.19L98.1562 158.04C98.1562 158.04 98.1563 158.01 98.1664 158C98.1868 158 98.197 158 98.2072 158.02L98.2786 158.17C98.2786 158.17 98.248 158.19 98.2276 158.2V158.19Z" fill="#A39071"/>
<path d="M98.1867 158.21L98.1255 158.24L98.0542 158.09C98.0542 158.09 98.0542 158.06 98.0644 158.05C98.0746 158.05 98.095 158.05 98.1052 158.07L98.1765 158.22L98.1867 158.21Z" fill="#A39071"/>
<path d="M98.0749 158.26L98.0137 158.29L97.9424 158.14C97.9424 158.14 97.9424 158.11 97.9526 158.1C97.973 158.1 97.9832 158.1 97.9933 158.12L98.0647 158.27L98.0749 158.26Z" fill="#A39071"/>
<path d="M97.9728 158.31L97.9117 158.34L97.8403 158.19C97.8403 158.19 97.8403 158.16 97.8607 158.15C97.8709 158.15 97.8913 158.15 97.9015 158.17L97.9728 158.32V158.31Z" fill="#A39071"/>
<path d="M97.8605 158.36L97.7994 158.39L97.728 158.24C97.728 158.24 97.728 158.21 97.7382 158.2C97.7484 158.19 97.7688 158.2 97.779 158.22L97.8503 158.37L97.8605 158.36Z" fill="#A39071"/>
<path d="M97.759 158.41H97.7488C97.7488 158.41 97.7182 158.43 97.6978 158.43L97.6265 158.28C97.6265 158.28 97.6265 158.25 97.6367 158.24C97.657 158.24 97.6774 158.24 97.6774 158.25L97.7488 158.4L97.759 158.41Z" fill="#A39071"/>
<path d="M92.102 157.16C91.8574 156.65 92.0816 156.04 92.6014 155.8L99.5323 152.62C100.052 152.38 100.664 152.6 100.908 153.12C101.153 153.63 100.929 154.24 100.409 154.48L93.4678 157.66C92.948 157.9 92.3364 157.68 92.0918 157.16H92.102Z" fill="#602E0D"/>
<path d="M93.804 156.38C93.1109 154.91 93.753 153.15 95.2411 152.47C96.7292 151.79 98.5027 152.43 99.206 153.9C99.9093 155.37 99.257 157.13 97.7689 157.81C96.2807 158.49 94.5072 157.85 93.804 156.38Z" fill="white"/>
<path d="M99.0228 153.98C99.6752 155.36 99.0738 157 97.6774 157.64C96.2811 158.28 94.6299 157.68 93.9775 156.3C93.3252 154.92 93.9266 153.28 95.323 152.64C96.7193 152 98.3705 152.6 99.0228 153.98ZM99.3694 153.82C98.6355 152.25 96.7397 151.56 95.1599 152.29C93.5698 153.02 92.8869 154.89 93.6208 156.46C94.3649 158.03 96.2505 158.71 97.8405 157.99C99.4305 157.27 100.113 155.39 99.3694 153.82Z" fill="#BCA175"/>
<path d="M96.4136 155.18C96.4136 155.18 96.4136 155.07 96.4645 155.05L97.8405 154.42C97.8405 154.42 97.9425 154.42 97.973 154.47C98.0036 154.52 97.973 154.58 97.9221 154.6L96.5461 155.23C96.5461 155.23 96.4442 155.23 96.4136 155.18Z" fill="#938367"/>
<path d="M95.8732 156.55C95.8732 156.55 95.863 156.5 95.8732 156.48L96.393 155.07C96.393 155.07 96.4643 154.99 96.5153 155.01C96.5663 155.03 96.5867 155.08 96.5765 155.13L96.0566 156.54C96.0566 156.54 95.9853 156.62 95.9343 156.6C95.914 156.6 95.8936 156.57 95.8834 156.55H95.8732Z" fill="#938367"/>
<path d="M96.5411 155.407C96.6915 155.386 96.7957 155.248 96.7738 155.101C96.7519 154.953 96.6122 154.851 96.4618 154.873C96.3114 154.894 96.2072 155.031 96.2291 155.179C96.251 155.326 96.3907 155.429 96.5411 155.407Z" fill="#D3BE94"/>
<path d="M98.564 154.19C98.564 154.19 98.564 154.14 98.5843 154.13L98.778 154.04C98.778 154.04 98.829 154.04 98.8392 154.06C98.8494 154.08 98.8392 154.11 98.8188 154.12L98.6251 154.21C98.6251 154.21 98.5742 154.21 98.564 154.19Z" fill="#D3BE94"/>
<path d="M98.2378 153.69C98.2378 153.69 98.2378 153.65 98.248 153.63L98.4111 153.49C98.4111 153.49 98.462 153.48 98.4824 153.49C98.5028 153.51 98.4926 153.54 98.4824 153.56L98.3193 153.7C98.3193 153.7 98.2684 153.71 98.248 153.7C98.248 153.7 98.248 153.7 98.248 153.69H98.2378Z" fill="#D3BE94"/>
<path d="M97.7895 153.28C97.7895 153.28 97.7895 153.25 97.7895 153.23L97.9118 153.06C97.9118 153.06 97.9526 153.03 97.9831 153.05C98.0035 153.07 98.0137 153.09 97.9933 153.12L97.871 153.29C97.871 153.29 97.8303 153.32 97.7997 153.3C97.7997 153.3 97.7895 153.29 97.7793 153.28H97.7895Z" fill="#D3BE94"/>
<path d="M97.249 153C97.249 153 97.249 152.98 97.249 152.96L97.3204 152.76C97.3204 152.76 97.3611 152.72 97.3815 152.73C97.4019 152.73 97.4223 152.77 97.4121 152.79L97.3408 152.99C97.3408 152.99 97.3 153.03 97.2796 153.02C97.2694 153.02 97.2592 153.01 97.249 152.99V153Z" fill="#D3BE94"/>
<path d="M96.6582 152.87V152.85L96.6786 152.64C96.6786 152.64 96.7092 152.59 96.7296 152.6C96.7601 152.6 96.7805 152.63 96.7703 152.65L96.7499 152.86C96.7499 152.86 96.7194 152.91 96.699 152.9C96.6786 152.9 96.6684 152.89 96.6582 152.87Z" fill="#D3BE94"/>
<path d="M96.0564 152.9C96.0564 152.9 96.0564 152.9 96.0564 152.89L96.0156 152.68C96.0156 152.68 96.0258 152.63 96.0564 152.62C96.087 152.62 96.1074 152.63 96.1176 152.66L96.1583 152.87C96.1583 152.87 96.1481 152.92 96.1176 152.93C96.0972 152.93 96.0768 152.93 96.0666 152.9H96.0564Z" fill="#D3BE94"/>
<path d="M95.4755 153.08L95.3838 152.89C95.3838 152.89 95.3838 152.84 95.4042 152.83C95.4246 152.82 95.4551 152.83 95.4653 152.85L95.5571 153.04C95.5571 153.04 95.5571 153.09 95.5367 153.1C95.5163 153.11 95.4857 153.1 95.4755 153.08Z" fill="#D3BE94"/>
<path d="M94.8232 153.23C94.8232 153.23 94.8232 153.19 94.8334 153.17C94.8538 153.15 94.8844 153.16 94.9048 153.17L95.0373 153.33C95.0373 153.33 95.0475 153.38 95.0373 153.4C95.0169 153.42 94.9863 153.41 94.9659 153.4L94.8334 153.24C94.8334 153.24 94.8334 153.24 94.8334 153.23H94.8232Z" fill="#D3BE94"/>
<path d="M94.3749 153.72C94.3749 153.72 94.3749 153.69 94.3749 153.67C94.3953 153.65 94.4157 153.64 94.4463 153.66L94.6196 153.78C94.6196 153.78 94.6501 153.82 94.6298 153.85C94.6094 153.87 94.589 153.88 94.5584 153.86L94.3851 153.74C94.3851 153.74 94.3749 153.73 94.3647 153.72H94.3749Z" fill="#D3BE94"/>
<path d="M94.0688 154.3C94.0688 154.3 94.0688 154.28 94.0688 154.26C94.0688 154.24 94.1096 154.22 94.13 154.23L94.3339 154.3C94.3339 154.3 94.3746 154.34 94.3644 154.36C94.3542 154.38 94.3237 154.4 94.3033 154.39L94.0994 154.32C94.0994 154.32 94.079 154.31 94.0688 154.29V154.3Z" fill="#D3BE94"/>
<path d="M93.9263 154.93V154.91C93.9263 154.88 93.9568 154.86 93.9772 154.87L94.1913 154.89C94.1913 154.89 94.232 154.92 94.232 154.94C94.232 154.97 94.2015 154.99 94.1811 154.98L93.967 154.96C93.967 154.96 93.9365 154.95 93.9263 154.93Z" fill="#D3BE94"/>
<path d="M93.957 155.59C93.957 155.59 93.957 155.59 93.957 155.58C93.957 155.55 93.9672 155.53 93.9978 155.52L94.2118 155.48C94.2118 155.48 94.2628 155.49 94.273 155.52C94.273 155.55 94.2628 155.57 94.2322 155.58L94.0182 155.62C94.0182 155.62 93.9774 155.62 93.9672 155.59H93.957Z" fill="#D3BE94"/>
<path d="M94.1606 156.21C94.1606 156.21 94.1606 156.16 94.181 156.15L94.3747 156.06C94.3747 156.06 94.4257 156.06 94.4358 156.08C94.446 156.1 94.4358 156.13 94.4155 156.14L94.2218 156.23C94.2218 156.23 94.1708 156.23 94.1606 156.21Z" fill="#D3BE94"/>
<path d="M94.5176 156.76C94.5176 156.76 94.5176 156.72 94.5278 156.7L94.6909 156.56C94.6909 156.56 94.7418 156.55 94.7622 156.56C94.7826 156.58 94.7724 156.61 94.7622 156.63L94.5991 156.77C94.5991 156.77 94.5482 156.78 94.5278 156.77C94.5278 156.77 94.5278 156.77 94.5278 156.76H94.5176Z" fill="#D3BE94"/>
<path d="M95.0068 157.21C95.0068 157.21 95.0068 157.18 95.0068 157.16L95.1291 156.99C95.1291 156.99 95.1699 156.96 95.2004 156.98C95.2208 157 95.231 157.02 95.2106 157.05L95.0883 157.22C95.0883 157.22 95.0475 157.25 95.017 157.23C95.017 157.23 95.0068 157.22 94.9966 157.21H95.0068Z" fill="#D3BE94"/>
<path d="M95.5879 157.51C95.5879 157.51 95.5879 157.49 95.5879 157.47L95.6592 157.27C95.6592 157.27 95.7 157.23 95.7204 157.24C95.7408 157.25 95.7612 157.28 95.751 157.3L95.6796 157.5C95.6796 157.5 95.6389 157.54 95.6185 157.53C95.6083 157.53 95.5981 157.52 95.5879 157.51Z" fill="#D3BE94"/>
<path d="M96.2402 157.65V157.63L96.2606 157.42C96.2606 157.42 96.2912 157.37 96.3116 157.38C96.3422 157.38 96.3625 157.41 96.3524 157.43L96.332 157.64C96.332 157.64 96.3014 157.69 96.281 157.68C96.2606 157.68 96.2504 157.67 96.2402 157.65Z" fill="#D3BE94"/>
<path d="M96.8923 157.63C96.8923 157.63 96.8923 157.63 96.8923 157.62L96.8516 157.41C96.8516 157.41 96.8618 157.36 96.8923 157.35C96.9229 157.35 96.9433 157.36 96.9535 157.39L96.9943 157.6C96.9943 157.6 96.9841 157.65 96.9535 157.66C96.9331 157.66 96.9127 157.66 96.9025 157.63H96.8923Z" fill="#D3BE94"/>
<path d="M97.5244 157.43L97.4326 157.24C97.4326 157.24 97.4326 157.19 97.453 157.18C97.4734 157.17 97.504 157.18 97.5142 157.2L97.6059 157.39C97.6059 157.39 97.6059 157.44 97.5855 157.45C97.5651 157.46 97.5345 157.45 97.5244 157.43Z" fill="#D3BE94"/>
<path d="M97.9526 156.92C97.9526 156.92 97.9526 156.88 97.9628 156.86C97.9832 156.84 98.0138 156.85 98.0342 156.86L98.1769 157.02C98.1769 157.02 98.1871 157.07 98.1769 157.09C98.1565 157.11 98.1259 157.1 98.1055 157.09L97.9628 156.93C97.9628 156.93 97.9628 156.93 97.9628 156.92H97.9526Z" fill="#D3BE94"/>
<path d="M98.3603 156.48C98.3603 156.48 98.3603 156.45 98.3603 156.43C98.3807 156.41 98.4011 156.4 98.4316 156.42L98.6049 156.54C98.6049 156.54 98.6355 156.58 98.6151 156.61C98.5947 156.63 98.5743 156.64 98.5438 156.62L98.3705 156.5C98.3705 156.5 98.3603 156.49 98.3501 156.48H98.3603Z" fill="#D3BE94"/>
<path d="M98.6353 155.95C98.6353 155.95 98.6353 155.93 98.6353 155.91C98.6353 155.89 98.676 155.87 98.6964 155.88L98.9003 155.95C98.9003 155.95 98.941 155.99 98.9308 156.01C98.9206 156.03 98.8901 156.05 98.8697 156.04L98.6658 155.97C98.6658 155.97 98.6454 155.96 98.6353 155.95Z" fill="#D3BE94"/>
<path d="M98.7681 155.36V155.34C98.7681 155.31 98.7986 155.29 98.819 155.3L99.0331 155.32C99.0331 155.32 99.084 155.35 99.0738 155.37C99.0738 155.4 99.0433 155.42 99.0229 155.41L98.8088 155.39C98.8088 155.39 98.7783 155.38 98.7681 155.36Z" fill="#D3BE94"/>
<path d="M98.7476 154.76C98.7476 154.76 98.7476 154.76 98.7476 154.75C98.7476 154.72 98.7578 154.7 98.7883 154.69L99.0024 154.65C99.0024 154.65 99.0533 154.66 99.0635 154.69C99.0635 154.72 99.0533 154.74 99.0228 154.75L98.8087 154.79C98.8087 154.79 98.7679 154.79 98.7578 154.76H98.7476Z" fill="#D3BE94"/>
</g>
<defs>
<clipPath id="clip0_775_11127">
<rect width="9" height="6.45" fill="white" transform="translate(92 152)"/>
</clipPath>
</defs>
</svg>
