<svg width="122" height="225" viewBox="0 0 122 225" fill="none" xmlns="http://www.w3.org/2000/svg">
<g clip-path="url(#clip0_775_11277)">
<g clip-path="url(#clip1_775_11277)">
<path d="M98.1299 157.71L97.3299 157.93C97.3299 157.93 97.2799 157.94 97.2499 157.95C96.9799 157.98 96.7199 157.81 96.6499 157.54L96.4399 156.75C96.3599 156.45 96.5399 156.15 96.8299 156.07L97.6299 155.86C97.9199 155.78 98.2199 155.95 98.2999 156.25L98.5099 157.04C98.5799 157.3 98.4499 157.57 98.2199 157.68C98.1899 157.69 98.1599 157.71 98.1299 157.71Z" fill="#4F4F4F"/>
<path d="M98.1301 157.71L98.0601 157.46C98.0601 157.46 98.0701 157.41 98.0901 157.4C98.1201 157.4 98.1401 157.4 98.1501 157.43L98.2201 157.67C98.2201 157.67 98.1601 157.7 98.1301 157.7V157.71Z" fill="black"/>
<path d="M98.0501 157.73L97.9601 157.76L97.8901 157.51C97.8901 157.51 97.8901 157.46 97.9201 157.45C97.9401 157.45 97.9701 157.45 97.9801 157.48L98.0501 157.73Z" fill="black"/>
<path d="M97.8802 157.78L97.7902 157.81L97.7202 157.56C97.7202 157.56 97.7302 157.51 97.7502 157.5C97.7802 157.5 97.8002 157.5 97.8102 157.53L97.8802 157.78Z" fill="black"/>
<path d="M97.6998 157.83L97.5998 157.86L97.5298 157.61C97.5298 157.61 97.5398 157.56 97.5698 157.55C97.5898 157.55 97.6198 157.55 97.6298 157.58L97.6998 157.83Z" fill="black"/>
<path d="M97.5301 157.87L97.4401 157.9L97.3701 157.65C97.3701 157.65 97.3701 157.6 97.4001 157.59C97.4301 157.58 97.4501 157.59 97.4601 157.62L97.5301 157.87Z" fill="black"/>
<path d="M97.3599 157.92H97.3399C97.3399 157.92 97.2899 157.94 97.2599 157.94L97.1899 157.69C97.1899 157.69 97.1999 157.64 97.2199 157.63C97.2499 157.63 97.2799 157.63 97.2799 157.66L97.3499 157.91L97.3599 157.92Z" fill="black"/>
<path d="M101.328 153.622L101.325 153.613C101.217 153.253 100.838 153.049 100.478 153.156L92.4794 155.552C92.1196 155.659 91.9153 156.038 92.023 156.398L92.0259 156.408C92.1336 156.767 92.5126 156.972 92.8724 156.864L100.871 154.469C101.231 154.361 101.436 153.982 101.328 153.622Z" fill="#FFEED2"/>
<path d="M97.2124 152.043L94.9437 152.655C94.2345 152.847 93.8149 153.577 94.0064 154.286L94.6789 156.777C94.8704 157.486 95.6005 157.906 96.3096 157.714L98.5784 157.102C99.2875 156.91 99.7072 156.18 99.5157 155.471L98.8432 152.98C98.6517 152.271 97.9216 151.851 97.2124 152.043Z" fill="black"/>
</g>
</g>
<defs>
<clipPath id="clip0_775_11277">
<rect width="10" height="6" fill="white" transform="translate(92 152)"/>
</clipPath>
<clipPath id="clip1_775_11277">
<rect width="9.36" height="5.95" fill="white" transform="translate(92 152)"/>
</clipPath>
</defs>
</svg>
