<svg width="119" height="225" viewBox="0 0 119 225" fill="none" xmlns="http://www.w3.org/2000/svg">
<g clip-path="url(#clip0_775_6836)">
<path d="M32.1357 153.89L32.4619 128.158C32.2376 128.71 31.2181 132.095 30.9938 132.648C27.7313 140.216 27.6293 150.29 24.3872 158.339C24.3872 158.778 24.4994 159.228 24.5605 159.74C24.7848 162.726 23.0822 169.691 20.931 168.924C19.7381 168.494 21.0024 165.723 20.1459 166.377C18.8409 167.39 19.4323 171.184 15.0789 169.793C11.327 168.607 12.061 162.593 13.3151 158.666C14.0593 156.303 15.6702 154.217 17.3116 153.307C20.0032 142.466 20.1867 139.848 23.4696 129.109C24.6013 125.427 29.9539 107.816 33.5324 103.909C33.5324 103.909 33.5936 103.837 33.7363 103.694C34.6947 102.723 39.0379 98.7647 47.1432 97.9977C47.1432 97.9977 49.9469 97.7829 53.7192 97.6193C53.7804 97.6193 53.8415 97.609 53.9129 97.6193C59.7854 97.3431 67.9111 97.1693 71.663 97.9977C79.7683 98.775 84.1013 102.723 85.0699 103.694C85.2126 103.827 85.2738 103.909 85.2738 103.909C88.8523 107.816 94.3069 125.397 95.3366 129.109C98.4666 140.369 98.803 142.476 101.495 153.307C103.136 154.217 104.757 156.303 105.491 158.666C106.735 162.593 107.479 168.597 103.727 169.793C99.3637 171.184 99.9653 167.379 98.6603 166.377C97.8038 165.723 99.0681 168.504 97.8752 168.924C95.724 169.701 94.0214 162.726 94.2457 159.74C94.2967 159.228 94.419 158.778 94.419 158.339C91.1667 150.29 90.9118 140.083 87.6595 132.525C87.425 131.973 86.5584 128.72 86.3443 128.168L86.7419 153.634" fill="#FDE2D2"/>
<path d="M44.7167 120.426C45.4994 120.426 46.1339 119.79 46.1339 119.005C46.1339 118.219 45.4994 117.583 44.7167 117.583C43.934 117.583 43.2996 118.219 43.2996 119.005C43.2996 119.79 43.934 120.426 44.7167 120.426Z" fill="#E9B7A8"/>
<path d="M75.1803 120.426C75.963 120.426 76.5975 119.79 76.5975 119.005C76.5975 118.219 75.963 117.583 75.1803 117.583C74.3977 117.583 73.7632 118.219 73.7632 119.005C73.7632 119.79 74.3977 120.426 75.1803 120.426Z" fill="#E9B7A8"/>
<path d="M62.5076 143.765C61.8143 142.936 60.7438 142.589 59.6937 142.497C58.562 142.404 57.4405 142.681 56.7064 143.591C56.0233 144.44 55.5544 145.749 56.0335 146.802C56.4719 147.764 57.5934 148.295 58.5926 148.439C59.7752 148.602 60.9375 148.275 61.8653 147.528C62.0896 147.354 62.0488 146.966 61.8653 146.782C61.641 146.557 61.3453 146.598 61.121 146.782C60.5603 147.232 59.8262 147.436 59.1125 147.426C58.4091 147.416 57.5934 147.16 57.1346 146.587C56.6351 145.953 57.0123 145.002 57.4099 144.409C57.8993 143.703 58.6537 143.509 59.4694 143.54C60.285 143.57 61.1924 143.836 61.7531 144.511C61.9366 144.726 62.3139 144.706 62.4974 144.511C62.7115 144.297 62.6809 143.979 62.4974 143.765H62.5076Z" fill="#E9B7A8"/>
<path d="M58.45 146.26C58.3786 146.26 58.3072 146.23 58.2664 146.168C58.1951 146.066 58.2257 145.933 58.3276 145.861L59.9181 144.767C60.02 144.695 60.1526 144.726 60.2239 144.828C60.2953 144.931 60.2647 145.064 60.1628 145.135L58.5723 146.23C58.5723 146.23 58.4907 146.27 58.45 146.27V146.26Z" fill="#E9B7A8"/>
<path d="M59.7957 146.516C59.7244 146.516 59.653 146.485 59.6122 146.424L58.5213 144.829C58.45 144.726 58.4805 144.593 58.5825 144.522C58.6844 144.45 58.817 144.481 58.8883 144.583L59.9793 146.178C60.0506 146.281 60.02 146.414 59.9181 146.485C59.8773 146.516 59.8365 146.526 59.7957 146.526V146.516Z" fill="#E9B7A8"/>
<path d="M66.7592 214.65C66.7286 215.274 67.0446 216.235 67.5442 216.89C69.6241 218.915 71.9282 219.232 75.6393 219.825C80.6554 220.623 84.9477 219.876 85.4268 216.849C85.8244 214.282 83.8771 211.449 79.9927 210.242C79.9927 210.242 78.8101 210.078 78.8101 209.26L79.2179 194.594L79.6767 178.527L65.2095 178.65L66.0863 194.472" fill="#FDE2D2"/>
<path d="M53.5459 214.65C53.5765 215.274 53.2604 216.235 52.7608 216.89C50.681 218.915 48.3768 219.232 44.6657 219.825C39.6496 220.623 35.3574 219.876 34.8782 216.849C34.4806 214.282 36.4279 211.449 40.3123 210.242C40.3123 210.242 41.495 210.078 41.495 209.26L41.0872 194.594L40.6284 178.527L55.0956 178.65L54.2188 194.472" fill="#FDE2D2"/>
<path d="M108.213 166.04C107.989 170.09 106.694 174.375 100.873 175.439C96.8658 176.185 92.8183 172.391 91.8395 166.991C90.8302 174.753 86.9967 202.408 81.9602 210.344C84.8353 211.173 86.9458 213.832 86.9458 217.002C86.9458 220.827 83.8668 223.936 80.0537 223.936H66.0555C66.0555 223.936 60.2544 224.192 61.6817 211.367V211.255L61.6919 211.234C61.6613 208.943 61.1617 176.748 60.3563 176.165C60.1728 176.052 59.8873 175.94 59.5305 175.878C59.1736 175.94 58.878 176.042 58.6945 176.165C57.889 176.748 57.3895 208.943 57.3589 211.234V211.367C58.7964 224.192 52.9953 223.936 52.9953 223.936H38.9971C35.184 223.936 32.105 220.827 32.105 217.002C32.105 213.842 34.2155 211.173 37.0905 210.344C32.0541 202.408 28.2104 174.743 27.2113 166.991C26.2223 172.391 22.185 176.185 18.1782 175.439C12.3567 174.365 11.0618 170.09 10.8375 166.04C10.654 162.726 10.756 161.284 11.5104 155.639C18.4331 111.938 41.1687 95.0933 41.1687 95.0933C47.6529 98.366 52.6894 98.4171 56.2986 98.9387C56.5534 98.9796 56.7879 99.0103 57.0224 99.0308C57.5628 99.1228 58.3886 99.2148 59.5305 99.2251C60.6622 99.2148 61.488 99.133 62.0283 99.0308C62.2628 99.0103 62.4973 98.9796 62.7522 98.9387C66.3614 98.4171 71.3979 98.366 77.8821 95.0933C77.8821 95.0933 100.618 111.938 107.54 155.639C108.305 161.284 108.397 162.726 108.213 166.04Z" fill="white"/>
<path d="M65.9945 225C65.6682 225 64.1491 224.908 62.7523 223.415C60.6929 221.206 59.9792 217.115 60.6317 211.255V211.152C60.4686 199.565 60.0302 180.931 59.5306 177.188C59.0005 181.115 58.5621 201.375 58.4295 211.255V211.275C59.082 217.115 58.3684 221.206 56.3089 223.415C54.8 225.031 53.1483 225.01 52.9648 225H39.0176C34.6336 225 31.0754 221.42 31.0754 217.013C31.0754 213.914 32.88 211.122 35.5818 209.812C31.524 202.04 28.3635 182.884 26.7628 171.47C25.9166 173.005 24.7951 174.283 23.4697 175.203C21.7467 176.4 19.8606 176.84 18.005 176.502C10.2871 175.081 9.9201 168.331 9.79775 166.111C9.61424 162.726 9.706 161.243 10.4808 155.506C17.3933 111.845 39.6191 94.9398 40.5571 94.2443L41.0771 93.8557L41.6582 94.1523C46.868 96.7807 51.0787 97.2614 54.4533 97.65C55.167 97.7318 55.8297 97.8034 56.4618 97.8955C56.7065 97.9364 56.9206 97.967 57.1245 97.9875C57.6241 98.0693 58.3684 98.1614 59.5408 98.1716C60.7439 98.1614 61.5085 98.0591 61.845 97.9977C62.1406 97.967 62.3445 97.9364 62.579 97.8955C63.2213 97.8034 63.8942 97.7216 64.6079 97.6398C67.9927 97.2511 72.1932 96.7705 77.403 94.1421L77.9842 93.8455L78.5041 94.2341C79.4523 94.9295 101.668 111.835 108.58 155.475C109.355 161.233 109.457 162.716 109.263 166.101C109.141 168.32 108.774 175.07 101.056 176.492C99.2109 176.83 97.3145 176.39 95.5915 175.193C94.2661 174.273 93.1446 172.994 92.2882 171.46C90.6876 182.884 87.527 202.03 83.4693 209.802C86.1812 211.111 87.9756 213.914 87.9756 217.002C87.9756 221.41 84.4072 224.99 80.0334 224.99H66.0352C66.0352 224.99 66.0047 224.99 65.9741 224.99L65.9945 225ZM59.5306 174.805L59.7141 174.835C60.1933 174.917 60.6113 175.07 60.9274 175.275C61.5085 175.694 62.2426 176.226 62.7421 211.224V211.285L62.7218 211.48C61.9979 217.984 63.1704 220.776 64.2918 221.962C65.1584 222.893 65.9945 222.893 65.9945 222.873H80.0436C83.2552 222.873 85.8754 220.234 85.8754 217.002C85.8754 214.394 84.1422 212.083 81.6545 211.367L80.2883 210.978L81.053 209.782C85.906 202.132 89.719 174.999 90.7793 166.858L91.6561 160.128L92.8694 166.807C93.3791 169.619 94.8473 172.105 96.7946 173.444C98.0486 174.303 99.3842 174.641 100.669 174.395C104.869 173.618 106.868 171.02 107.143 165.978C107.316 162.736 107.235 161.397 106.47 155.782C102.942 133.486 95.1735 118.391 89.2908 109.667C83.9994 101.833 79.2382 97.5886 77.7293 96.3409C72.4583 98.8773 68.0641 99.3784 64.8322 99.7466C64.1389 99.8284 63.4966 99.9 62.8849 99.992C62.6198 100.033 62.3649 100.064 62.11 100.094C61.7022 100.166 60.8356 100.278 59.5204 100.289C58.1848 100.278 57.3182 100.166 56.8187 100.084C56.6453 100.074 56.3905 100.033 56.1152 99.992C55.5238 99.9102 54.8815 99.8284 54.1883 99.7568C50.9563 99.3886 46.5621 98.8875 41.2912 96.3511C39.7822 97.5989 35.021 101.853 29.7296 109.677C23.8367 118.401 16.0781 133.497 12.5403 155.813C11.7858 161.407 11.7043 162.736 11.8776 165.989C12.1529 171.041 14.1512 173.628 18.3516 174.406C19.6363 174.641 20.982 174.314 22.2361 173.444C24.1834 172.105 25.6515 169.619 26.1613 166.807L27.3745 160.128L28.2513 166.868C29.3014 174.999 33.1145 202.132 37.9777 209.792L38.7423 210.989L37.3761 211.377C34.8885 212.093 33.1553 214.405 33.1553 217.013C33.1553 220.244 35.7653 222.883 38.987 222.883H52.9852C53.0668 222.883 53.9436 222.862 54.7898 221.911C55.8705 220.694 57.0124 217.902 56.2987 211.5L56.2783 211.244C56.7677 176.247 57.5425 175.684 58.0523 175.316C58.3683 175.091 58.7864 174.938 59.3267 174.845L59.5102 174.815L59.5306 174.805Z" fill="#192347"/>
<path d="M92.4105 171.041C91.8395 171.041 91.3706 170.591 91.3502 170.008C91.3502 169.732 90.3714 142.558 79.0342 120.937C78.7589 120.416 78.9628 119.772 79.4726 119.506C79.9824 119.24 80.6349 119.434 80.8999 119.945C92.4717 142.006 93.4504 169.66 93.4606 169.936C93.481 170.519 93.0222 171.01 92.4309 171.031C92.4207 171.031 92.4105 171.031 92.4003 171.031L92.4105 171.041Z" fill="#192347"/>
<path d="M26.6506 171.041C26.6506 171.041 26.6302 171.041 26.62 171.041C26.0388 171.02 25.5801 170.529 25.5903 169.947C25.5903 169.67 26.5792 142.016 38.1509 119.956C38.4262 119.434 39.0583 119.24 39.5783 119.516C40.0982 119.792 40.2919 120.426 40.0167 120.948C28.6794 142.568 27.7007 169.742 27.7007 170.018C27.6803 170.591 27.2113 171.051 26.6404 171.051L26.6506 171.041Z" fill="#192347"/>
<g opacity="0.3">
<path d="M36.6116 99.3376C36.6116 99.3376 56.1662 114.218 82.4396 99.3376L71.8671 86.6353L47.8468 82.4524L36.6116 99.3376Z" fill="#192347"/>
</g>
<path d="M117.868 52.5886L117.613 56.4546C116.767 69.208 109.253 79.8239 98.9355 84.733C96.9678 85.6739 94.8778 86.4102 92.7163 86.9011H92.7061C89.9228 87.5455 87.0171 87.7909 84.0401 87.5966L80.4004 87.3511C73.4471 86.8807 67.1974 84.0477 62.2629 79.65C54.9018 73.0841 50.5178 63 51.2519 52.0057L51.5068 48.1398C52.1491 38.5364 56.5637 30.1296 63.1295 24.4841C64.0674 23.6659 65.0564 22.9091 66.0759 22.2136H66.0861C66.4327 21.9784 66.7794 21.7534 67.1158 21.5386C67.4319 21.3341 67.7683 21.15 68.0946 20.9455C73.1311 18.0614 78.9628 16.5886 85.08 16.9977L88.7198 17.2432C91.5643 17.4375 94.2762 18.0205 96.8454 18.9511C98.3747 19.5136 99.8633 20.1784 101.28 20.9761C102.585 21.7023 103.839 22.5102 105.032 23.4307C105.297 23.625 105.542 23.8296 105.797 24.0341C105.848 24.0648 105.899 24.1159 105.95 24.1568C107.082 25.0977 108.152 26.1102 109.141 27.2046C109.263 27.3375 109.376 27.4602 109.498 27.6034C110.742 28.9943 111.863 30.508 112.842 32.1136C115.534 36.4296 117.267 41.4511 117.787 46.8205C117.97 48.7125 118.001 50.6455 117.868 52.5989V52.5886Z" fill="white"/>
<path d="M83.9587 88.65L80.319 88.4045C73.3556 87.9341 66.8611 85.1829 61.5494 80.4375C53.7091 73.442 49.4679 62.7852 50.1917 51.9341L50.4466 48.0682C51.0787 38.5772 55.4423 29.6897 62.4364 23.6761C63.3437 22.8784 64.3429 22.1113 65.4848 21.3341L65.8008 21.1295C66.0557 20.9557 66.3106 20.792 66.5655 20.6284C66.7694 20.5057 66.9733 20.3727 67.1874 20.25L67.5544 20.025C72.9579 16.9261 79.0344 15.5147 85.1618 15.9341L88.8015 16.1795C91.6766 16.3738 94.5109 16.967 97.2126 17.9488C98.8541 18.5522 100.404 19.2579 101.811 20.0454C103.228 20.8329 104.492 21.6613 105.685 22.5818C105.95 22.7863 106.215 22.9909 106.48 23.2057C106.501 23.2159 106.592 23.2977 106.674 23.3693C107.795 24.3 108.907 25.3534 109.926 26.4784L110.293 26.8875C111.557 28.3091 112.72 29.8738 113.749 31.5409C116.553 36.0511 118.327 41.2875 118.847 46.6977C119.041 48.6613 119.061 50.6659 118.929 52.65L118.674 56.5159C117.828 69.2591 110.436 80.4375 99.3945 85.6841C97.335 86.6659 95.1634 87.4227 92.951 87.9238L92.7879 87.9545C89.9026 88.6091 86.9357 88.8341 83.9689 88.6397L83.9587 88.65ZM105.175 24.8829C104.89 24.6477 104.645 24.4534 104.4 24.2693C103.279 23.4 102.096 22.6329 100.771 21.8966C99.4454 21.15 98.0385 20.5159 96.4888 19.9432C93.9705 19.0329 91.3299 18.4807 88.6588 18.2966L85.019 18.0511C79.3198 17.6727 73.6512 18.9818 68.6249 21.8557L68.2681 22.0704C68.0744 22.1829 67.8705 22.3057 67.6768 22.4284C67.3403 22.6329 67.0039 22.8579 66.6776 23.0829L66.3717 23.2875C65.4338 23.942 64.5876 24.5966 63.8229 25.2716C57.2571 30.917 53.1586 39.2727 52.5673 48.2011L52.3124 52.067C51.6293 62.2636 55.6157 72.2761 62.9665 78.842C67.9316 83.2704 73.9775 85.8477 80.4719 86.2773L84.1116 86.5227C86.9256 86.7068 89.7395 86.4818 92.4718 85.8477L92.6349 85.817C94.6434 85.3466 96.6111 84.6613 98.4871 83.7613C108.846 78.842 115.768 68.3488 116.563 56.3727L116.818 52.5068C116.941 50.6352 116.92 48.7534 116.737 46.9022C116.247 41.8193 114.586 36.9 111.945 32.6557C110.987 31.0909 109.896 29.6182 108.713 28.2886L108.346 27.8795C107.408 26.8466 106.368 25.8545 105.277 24.9545" fill="#192347"/>
<path d="M117.766 48.549L109.294 47.9762C108.713 47.9353 108.274 47.4342 108.305 46.8512C108.336 46.2683 108.845 45.8285 109.426 45.8592L117.899 46.4319C118.48 46.4728 118.918 46.974 118.888 47.5569C118.857 48.1399 118.347 48.5796 117.766 48.549Z" fill="#192347"/>
<path d="M117.257 60.2181L108.407 59.6249C107.826 59.584 107.387 59.0829 107.418 58.4999C107.449 57.917 107.958 57.4772 108.539 57.5079L117.389 58.101C117.97 58.142 118.409 58.6431 118.378 59.226C118.347 59.809 117.838 60.2488 117.257 60.2181Z" fill="#192347"/>
<path d="M117.532 47.475L113.821 47.2295C113.821 47.2295 111.466 40.6739 109.845 36.5523C108.234 32.4205 111.037 32.1852 111.037 32.1852L112.077 32.0625C114.983 36.3989 116.941 42.1159 117.522 47.4852L117.532 47.475Z" fill="#31FF7B"/>
<path d="M118.725 48.6204L113.066 48.242L112.832 47.5875C112.811 47.5261 110.466 41.0011 108.876 36.9307C108.142 35.0591 108.111 33.5659 108.784 32.4818C109.539 31.275 110.823 31.1318 110.966 31.1216L112.618 30.9272L112.975 31.4591C115.921 35.8466 117.97 41.6454 118.592 47.3522L118.735 48.6102L118.725 48.6204ZM114.585 46.217L116.319 46.3295C115.625 41.6454 113.892 36.8488 111.557 33.1875L111.16 33.2386C111.16 33.2386 110.752 33.3 110.558 33.6272C110.283 34.0875 110.385 35.0182 110.834 36.1636C112.139 39.4977 113.943 44.4579 114.575 46.217H114.585Z" fill="#192347"/>
<path d="M117.145 60.3614C116.594 62.9592 114.993 66.9683 114.269 68.7171C114.066 69.208 113.525 69.4739 113.015 69.3308L111.374 68.8808C110.803 68.7274 110.467 68.1239 110.64 67.5512L113.015 59.6967C113.158 59.2262 113.607 58.9092 114.096 58.9501L116.176 59.0933C116.818 59.1342 117.277 59.7376 117.145 60.3717V60.3614Z" fill="#31FF7B"/>
<path d="M113.148 70.4249C113.005 70.4249 112.873 70.3942 112.73 70.3533L111.088 69.9033C110.538 69.7499 110.069 69.3919 109.794 68.8806C109.518 68.3692 109.457 67.7863 109.62 67.234L111.996 59.3795C112.281 58.4283 113.178 57.8147 114.157 57.876L116.237 58.0192C116.849 58.0601 117.42 58.367 117.787 58.8579C118.154 59.3488 118.296 59.9726 118.164 60.576C117.613 63.184 116.094 67.0397 115.238 69.1158C114.881 69.9647 114.035 70.476 113.138 70.4147L113.148 70.4249ZM116.104 60.1363L114.025 60.0033L111.649 67.8579L113.291 68.3079C113.953 66.692 115.564 62.6726 116.104 60.1465V60.1363Z" fill="#192347"/>
<path d="M1.21316 53.458L1.57 57.3137C2.75266 70.0364 10.5317 80.458 20.9819 85.0909C22.9802 85.9807 25.0805 86.6557 27.2521 87.0955H27.2623C30.0558 87.6682 32.9716 87.8421 35.9487 87.5659L39.5782 87.2284C46.5213 86.5841 52.6894 83.5875 57.5118 79.0569C64.6995 72.2966 68.8185 62.1103 67.7989 51.1364L67.4421 47.2807C66.5551 37.6978 61.9162 29.4137 55.2179 23.9421C54.2595 23.1444 53.2502 22.4182 52.2103 21.7534H52.2001C51.8534 21.5284 51.4966 21.3034 51.1499 21.1091C50.8237 20.9148 50.4872 20.7307 50.1508 20.5466C45.0429 17.7955 39.1704 16.4762 33.0736 17.0489L29.4441 17.3864C26.6098 17.6523 23.908 18.3069 21.3693 19.2989C19.8502 19.9023 18.3821 20.5978 16.9854 21.4364C15.7007 22.1932 14.4671 23.0319 13.3048 23.983C13.05 24.1875 12.8053 24.3921 12.5504 24.6069C12.4994 24.6478 12.4484 24.6887 12.4076 24.7398C11.2964 25.7114 10.2564 26.7546 9.29807 27.8694C9.18592 28.0125 9.06357 28.1353 8.95142 28.2784C7.74837 29.7 6.66767 31.2444 5.7195 32.8705C3.14008 37.258 1.53941 42.3205 1.15199 47.7C1.01945 49.6023 1.03984 51.525 1.22336 53.4784L1.21316 53.458Z" fill="white"/>
<path d="M39.6802 88.2819L36.0506 88.6194C33.0838 88.8955 30.117 88.7421 27.2011 88.1591L27.0482 88.1285C24.8256 87.6785 22.6438 86.983 20.5537 86.0523C9.36944 81.1126 1.69235 70.1285 0.51989 57.416L0.163054 53.5603C-0.0204626 51.5762 -0.0408533 49.5819 0.0916861 47.608C0.479109 42.1876 2.11036 36.9001 4.80193 32.3182C5.77049 30.6307 6.90217 29.0353 8.13581 27.5728L8.47226 27.1739C9.4714 26.008 10.5623 24.9239 11.7042 23.9217C11.745 23.8807 11.8265 23.7989 11.9081 23.7376C12.1018 23.5637 12.3669 23.3489 12.632 23.1342C13.7942 22.1932 15.0381 21.3239 16.4348 20.5057C17.8112 19.6876 19.3405 18.941 20.9615 18.2967C23.6429 17.2432 26.4568 16.5785 29.3319 16.3126L32.9615 15.9751C39.0685 15.4023 45.1857 16.6603 50.6402 19.5955L51.0378 19.8205C51.2519 19.9432 51.466 20.066 51.6801 20.1887C51.935 20.3319 52.1899 20.4955 52.4549 20.6592L52.771 20.8535C53.9231 21.6001 54.9426 22.3364 55.8806 23.1239C63.0071 28.9432 67.6052 37.7182 68.482 47.1887L68.8389 51.0444C69.8482 61.8751 65.872 72.6342 58.2153 79.8342C53.0259 84.7228 46.6028 87.6478 39.6598 88.2921L39.6802 88.2819ZM27.3132 86.0217L27.4764 86.0523C30.2291 86.6148 33.043 86.7682 35.8467 86.5023L39.4763 86.1648C45.9503 85.5614 51.935 82.8307 56.788 78.2694C63.9655 71.5194 67.6868 61.4046 66.7488 51.2285L66.392 47.3728C65.5662 38.4648 61.2535 30.2217 54.5552 24.7501C53.7294 24.0648 52.8526 23.4205 51.8534 22.766L51.6291 22.633C51.2927 22.4182 50.9562 22.2035 50.6198 22.0092C50.4159 21.8864 50.2222 21.7739 50.0183 21.6614L49.6308 21.4467C44.5638 18.716 38.8646 17.5501 33.1756 18.0819L29.546 18.4194C26.8748 18.6648 24.2546 19.2887 21.7568 20.2705C20.2173 20.8842 18.8307 21.5489 17.5257 22.3262C16.2207 23.0932 15.0584 23.9012 13.9675 24.791C13.7127 24.9955 13.4782 25.1898 13.2437 25.3944L13.0907 25.5273C12.0202 26.458 11.0109 27.4705 10.0831 28.5444L9.75687 28.933C8.5946 30.3035 7.54448 31.7967 6.6269 33.3819C4.08826 37.6876 2.56915 42.658 2.20212 47.7512C2.06958 49.6023 2.10017 51.4944 2.27349 53.3557L2.63033 57.2114C3.74162 69.1671 10.9395 79.4762 21.4101 84.1194C23.3065 84.9682 25.2946 85.6126 27.3132 86.0217Z" fill="#192347"/>
<path d="M9.655 48.6307L1.20307 49.4182C0.621932 49.4693 0.101969 49.0398 0.0509928 48.4568C1.60746e-05 47.8739 0.42822 47.3523 1.00935 47.3012L9.46129 46.5137C10.0424 46.4625 10.5624 46.8921 10.6134 47.475C10.6643 48.058 10.2361 48.5796 9.655 48.6307Z" fill="#192347"/>
<path d="M10.8479 60.2386L2.01874 61.067C1.43761 61.1182 0.917643 60.6886 0.866667 60.1057C0.81569 59.5227 1.24389 59.0011 1.82503 58.95L10.6542 58.1216C11.2353 58.0704 11.7553 58.5 11.8063 59.0829C11.8572 59.6659 11.429 60.1875 10.8479 60.2386Z" fill="#192347"/>
<path d="M1.41718 48.334L5.11809 47.9863C5.11809 47.9863 7.29989 41.3795 8.8088 37.2067C10.3177 33.034 7.5038 32.8704 7.5038 32.8704L6.45367 32.7783C3.66015 37.1863 1.85558 42.9545 1.40698 48.334H1.41718Z" fill="#31FF7B"/>
<path d="M5.9031 48.9784L0.254883 49.5102L0.356836 48.2522C0.836017 42.525 2.73235 36.675 5.56666 32.2159L5.9133 31.6738L7.60572 31.8272C7.71787 31.8272 9.00249 31.9397 9.78753 33.1261C10.4808 34.1897 10.491 35.6829 9.80792 37.575C8.3194 41.6863 6.14779 48.2625 6.1274 48.3341L5.9133 48.9886L5.9031 48.9784ZM2.59981 47.1579L4.33302 46.9943C4.92435 45.2147 6.59638 40.2136 7.81983 36.8386C8.24803 35.6625 8.3194 34.7318 8.02373 34.2818C7.83002 33.975 7.45279 33.9238 7.45279 33.9238L7.02459 33.8829C4.79181 37.6159 3.18095 42.4431 2.61001 47.1477L2.59981 47.1579Z" fill="#192347"/>
<path d="M2.14105 61.2103C2.76297 63.7876 4.45539 67.7557 5.23024 69.4842C5.44434 69.9751 5.99489 70.2205 6.50466 70.0671L8.13591 69.566C8.70685 69.3921 9.02291 68.7785 8.82919 68.216L6.24977 60.433C6.09684 59.9626 5.63805 59.666 5.14868 59.7069L3.07902 59.9012C2.43672 59.9626 1.99832 60.5762 2.14105 61.2103Z" fill="#31FF7B"/>
<path d="M6.38216 71.1614C5.49517 71.2432 4.62857 70.7523 4.25134 69.9137C3.34395 67.8682 1.72289 64.0432 1.10098 61.4557C0.958244 60.8523 1.08059 60.2284 1.43742 59.7273C1.79426 59.2262 2.35501 58.9091 2.96673 58.8477L5.03638 58.6534C6.02533 58.5614 6.93271 59.1546 7.23857 60.0955L9.81799 67.8784C10.0015 68.4307 9.95053 69.0137 9.68545 69.525C9.42037 70.0364 8.97178 70.4148 8.42123 70.5784L6.78998 71.0796C6.64724 71.1205 6.5147 71.1512 6.37197 71.1614H6.38216ZM3.16044 60.9546C3.76196 63.4705 5.47478 67.4489 6.18845 69.0443L7.81971 68.5432L5.24029 60.7602L3.17063 60.9546H3.16044Z" fill="#192347"/>
<path d="M108.285 47.2603V52.6296C108.285 64.5035 103.809 75.3342 96.4684 83.516C94.5619 84.5898 92.533 85.4591 90.4021 86.0932H90.392C87.6596 86.9216 84.7743 87.3717 81.7871 87.3717H78.1372C71.1635 87.3717 64.7405 84.958 59.5307 80.8978C54.3106 84.958 47.8672 87.3717 40.914 87.3717H37.264C34.2768 87.3717 31.3915 86.9216 28.649 86.0932H28.6388C26.5182 85.4591 24.4893 84.5898 22.5726 83.516C15.2319 75.3342 10.7664 64.5035 10.7664 52.6296V47.2603C10.7664 39.3648 12.7341 31.9398 16.2107 25.4455C17.2608 23.4716 18.4434 21.5898 19.7688 19.8103C21.4715 17.5091 23.3678 15.3819 25.4476 13.4387C27.1605 11.8228 29.016 10.3501 30.9735 9.01029C31.4425 8.68301 31.9013 8.38642 32.3907 8.0796C34.2054 6.93415 36.1222 5.91142 38.1001 5.03188C40.2615 4.07051 42.4942 3.28301 44.7984 2.65915C48.642 1.61597 52.6692 1.05347 56.8493 1.05347H62.1916C71.1737 1.05347 79.5747 3.62051 86.6605 8.0796C87.1294 8.38642 87.578 8.68301 88.0368 8.98983C90.0045 10.3398 91.8703 11.8126 93.5933 13.4387C95.6731 15.3819 97.5797 17.4989 99.2721 19.8103C100.587 21.5796 101.77 23.4614 102.82 25.4251C106.307 31.9194 108.275 39.3648 108.275 47.2603H108.285Z" fill="white"/>
<path d="M81.7971 88.435H78.1472C71.4386 88.435 65.0156 86.2975 59.5407 82.2271C54.0556 86.2873 47.6427 88.435 40.924 88.435H37.2741C34.3072 88.435 31.3608 88.0055 28.5061 87.1566L28.3429 87.1157C26.1815 86.4611 24.0711 85.5714 22.0728 84.4464L21.9199 84.3645L21.7975 84.2316C14.0083 75.5486 9.71606 64.3293 9.71606 52.6396V47.2702C9.71606 39.4771 11.643 31.7657 15.2929 24.9543C16.3634 22.9396 17.5869 20.9964 18.9327 19.1861C20.6659 16.8441 22.6234 14.6452 24.744 12.6714C26.4568 11.0657 28.3531 9.54183 30.3922 8.15092C30.8612 7.82365 31.3404 7.51683 31.84 7.19978C33.6853 6.03387 35.653 4.99069 37.6819 4.08046C39.8331 3.1191 42.1474 2.30092 44.5331 1.64637C48.5501 0.552055 52.6996 0.0100098 56.8593 0.0100098H62.2017C71.1022 0.0100098 79.758 2.49524 87.2312 7.19978L87.639 7.46569C87.9755 7.69069 88.3119 7.90546 88.6382 8.13046C90.7078 9.55205 92.6246 11.0759 94.3272 12.6816C96.4784 14.6861 98.4359 16.885 100.139 19.1964C101.474 20.9964 102.698 22.9293 103.768 24.9441C107.418 31.735 109.355 39.4566 109.355 47.2805V52.6498C109.355 64.3396 105.063 75.5589 97.2634 84.2418L97.1513 84.3748L96.9984 84.4566C95.0103 85.5816 92.8896 86.4816 90.718 87.1259L90.5549 87.1668C87.7206 88.0157 84.7742 88.4452 81.7971 88.4452V88.435ZM59.5407 79.5577L60.1932 80.0589C65.4438 84.1498 71.6528 86.3077 78.1574 86.3077H81.8073C84.6212 86.3077 87.4147 85.8986 90.1063 85.0805L90.2694 85.0396C92.1862 84.4566 94.0519 83.6589 95.8157 82.677C103.187 74.393 107.245 63.7361 107.245 52.6293V47.26C107.245 39.7941 105.399 32.4202 101.913 25.9361C100.893 24.0236 99.7307 22.1725 98.4461 20.4543C96.825 18.2452 94.9593 16.1486 92.8896 14.2259C91.2584 12.6918 89.4334 11.2293 87.4555 9.87933C87.1293 9.66455 86.8132 9.44978 86.4768 9.23501L86.0893 8.97933C78.973 4.49978 70.7046 2.12706 62.2017 2.12706H56.8593C52.8831 2.12706 48.9171 2.65887 45.0837 3.69183C42.7999 4.31569 40.5977 5.09296 38.5383 6.01342C36.591 6.88274 34.715 7.88501 32.9614 8.98955C32.4925 9.28615 32.0439 9.57251 31.5851 9.88955C29.6276 11.2293 27.8128 12.6816 26.1815 14.2259C24.1527 16.118 22.2869 18.2146 20.6251 20.4543C19.3405 22.1827 18.1782 24.0339 17.1587 25.9566C13.6719 32.4611 11.8367 39.8248 11.8367 47.2702V52.6396C11.8367 63.7464 15.8944 74.4134 23.2555 82.6873C25.0397 83.6691 26.9054 84.4668 28.8119 85.0498L28.9649 85.0907C31.6666 85.9089 34.4602 86.318 37.2741 86.318H40.924C47.4388 86.318 53.6478 84.16 58.8984 80.0691L59.5509 79.568L59.5407 79.5577Z" fill="#192347"/>
<path d="M104.288 52.0056V56.9453C104.288 80.3658 85.3451 99.3476 61.9774 99.3476H57.0836C36.3973 99.3476 19.1977 84.4874 15.507 64.8408C15.0278 62.284 14.7729 59.6453 14.7729 56.9453V52.0056C14.7729 39.7533 19.9522 28.7078 28.2512 20.976C29.8315 19.5033 31.5341 18.1328 33.3183 16.9158C33.7567 16.6192 34.1849 16.3431 34.6335 16.0669C36.3055 15.0033 38.0591 14.0726 39.8841 13.2647C41.8518 12.3749 43.901 11.6488 46.0217 11.076C49.5493 10.1249 53.2502 9.61353 57.0836 9.61353H61.9774C70.2152 9.61353 77.9433 11.9658 84.4377 16.0669C84.8557 16.3431 85.2941 16.609 85.7121 16.8953C87.5065 18.1226 89.2295 19.4931 90.8098 20.9863C93.6849 23.6863 96.1929 26.7647 98.232 30.1703C102.076 36.5522 104.288 44.0283 104.288 52.026V52.0056Z" fill="#232D60"/>
<path d="M61.9774 100.401H57.0837C36.2444 100.401 18.3108 85.5308 14.4672 65.0353C13.9676 62.366 13.7229 59.6455 13.7229 56.9455V52.016C13.7229 39.9887 18.7594 28.391 27.5376 20.2092C29.1586 18.6853 30.9122 17.2842 32.727 16.0467C33.1756 15.7398 33.6242 15.4535 34.0728 15.1773C35.755 14.1137 37.5698 13.1421 39.4457 12.3035C41.4032 11.4137 43.5137 10.6671 45.7363 10.0637C49.4066 9.07167 53.2298 8.5603 57.0837 8.5603H61.9774C70.1745 8.5603 78.1371 10.8512 84.9985 15.1773L85.4267 15.4535C85.7224 15.6478 86.0181 15.8319 86.3137 16.0364C88.1693 17.3046 89.9229 18.716 91.5337 20.2194C94.521 23.0114 97.08 26.1819 99.1497 29.6285C103.207 36.3683 105.348 44.1103 105.348 52.0262V56.9558C105.348 80.9183 85.8957 100.422 61.9774 100.422V100.401ZM57.0837 10.6671C53.4134 10.6671 49.7838 11.1478 46.297 12.0989C44.1866 12.6717 42.1781 13.3876 40.3225 14.2262C38.5282 15.0239 36.8051 15.9444 35.2045 16.9569C34.7661 17.233 34.3481 17.4989 33.9199 17.7853C32.1867 18.9717 30.5248 20.3012 28.9751 21.7535C20.6251 29.5467 15.8333 40.5717 15.8333 52.016V56.9455C15.8333 59.5126 16.078 62.1103 16.547 64.6467C20.2071 84.1398 37.2537 98.2842 57.0837 98.2842H61.9774C84.7233 98.2842 103.228 79.7421 103.228 56.9455V52.016C103.228 44.4887 101.189 37.1251 97.3247 30.7126C95.357 27.4296 92.9203 24.4228 90.0758 21.7535C88.5465 20.3217 86.8745 18.9819 85.1005 17.7648C84.8252 17.5808 84.5499 17.3967 84.2848 17.2228L83.8566 16.9467C77.3418 12.8455 69.7769 10.6671 61.9672 10.6671H57.0735H57.0837Z" fill="#192347"/>
<path d="M104.563 55.6977C104.563 79.0159 85.0292 98.9591 61.7635 98.9591H56.8901C36.3057 98.9591 19.1673 84.1704 15.497 64.6159V60.8522L15.0178 57.4159C15.0178 56.8227 15.028 56.2295 15.0586 55.6466C18.8003 75.1091 36.3669 89.867 56.8799 89.867H61.7533C67.3301 89.867 72.6725 88.7829 77.5764 86.8193C76.404 84.0886 78.2595 80.0488 82.0726 77.3795C85.9978 74.6488 90.5653 74.3522 92.6349 76.6227C99.8023 69.1568 104.237 59.1341 104.36 48.0784L104.553 55.6977H104.563Z" fill="#192347"/>
<path d="M30.9834 40.192C32.3179 37.8733 32.1821 35.2886 30.6802 34.4187C29.1783 33.5489 26.879 34.7233 25.5445 37.042C24.21 39.3606 24.3457 41.9454 25.8476 42.8152C27.3496 43.6851 29.6489 42.5106 30.9834 40.192Z" fill="#313E88"/>
<path d="M104.288 52.5681V57.5078C104.288 58.0294 104.278 58.551 104.258 59.0726C103.982 51.6987 101.811 44.7851 98.2423 38.8431C96.2032 35.4374 93.6952 32.359 90.8201 29.659C89.2296 28.176 87.5168 26.8056 85.7224 25.5681C85.3146 25.2817 84.8762 25.0158 84.448 24.7397C77.9536 20.6385 70.2255 18.2863 61.9877 18.2863H57.0939C53.2503 18.2863 49.5494 18.7976 46.032 19.7488C45.8485 19.7999 45.6751 19.8408 45.5018 19.9124C46.8986 22.4999 45.512 26.6624 42.0864 29.7203C38.3141 33.0851 33.4713 33.8113 31.2997 31.3465C30.5045 30.4465 30.168 29.2499 30.2598 27.9203C29.5767 28.4828 28.914 29.0556 28.2717 29.659C20.3295 37.0635 15.2421 47.5056 14.824 59.134C14.8037 58.5919 14.7935 58.0499 14.7935 57.5078V52.5681C14.7935 40.3158 19.9727 29.2703 28.2717 21.5385C29.852 20.0658 31.5546 18.6953 33.3388 17.4783C33.7772 17.1817 34.2054 16.9056 34.654 16.6294C36.326 15.5658 38.0796 14.6351 39.9046 13.8272C41.8723 12.9374 43.9215 12.2113 46.0422 11.6385C49.5698 10.6874 53.2707 10.176 57.1041 10.176H61.9979C70.2357 10.176 77.9638 12.5283 84.4582 16.6294C84.8762 16.9056 85.3146 17.1715 85.7326 17.4578C87.527 18.6851 89.25 20.0556 90.8303 21.5488C93.7054 24.2488 96.2134 27.3272 98.2525 30.7328C102.096 37.1147 104.309 44.5908 104.309 52.5885L104.288 52.5681Z" fill="#313E88"/>
<path d="M54.7897 132.28H47.4286C46.4602 132.28 45.675 133.067 45.675 134.039V143.305C45.675 144.276 46.4602 145.064 47.4286 145.064H54.7897C55.7582 145.064 56.5433 144.276 56.5433 143.305V134.039C56.5433 133.067 55.7582 132.28 54.7897 132.28Z" fill="white"/>
<path d="M54.7898 146.127H47.4389C45.8892 146.127 44.625 144.859 44.625 143.304V134.049C44.625 132.494 45.8892 131.226 47.4389 131.226H54.7898C56.3394 131.226 57.6037 132.494 57.6037 134.049V143.304C57.6037 144.859 56.3394 146.127 54.7898 146.127ZM47.4389 133.343C47.0515 133.343 46.7456 133.66 46.7456 134.039V143.294C46.7456 143.683 47.0617 143.99 47.4389 143.99H54.7898C55.1772 143.99 55.483 143.673 55.483 143.294V134.039C55.483 133.65 55.167 133.343 54.7898 133.343H47.4389Z" fill="#192347"/>
<g opacity="0.3">
<path d="M56.6454 134.57V143.826C56.6454 144.798 55.8502 145.585 54.8918 145.585H47.541C46.5724 145.585 45.7874 144.798 45.7874 143.826V142.854H52.5163C53.4848 142.854 54.2699 142.067 54.2699 141.095V132.822H54.8918C55.8502 132.822 56.6454 133.609 56.6454 134.581V134.57Z" fill="#192347"/>
</g>
<path d="M51.1091 139.95C52.4718 139.95 53.5764 138.842 53.5764 137.475C53.5764 136.108 52.4718 135 51.1091 135C49.7465 135 48.6418 136.108 48.6418 137.475C48.6418 138.842 49.7465 139.95 51.1091 139.95Z" fill="#31FF7B"/>
<path d="M45.2978 203.165C46.6605 203.165 47.7651 202.057 47.7651 200.69C47.7651 199.323 46.6605 198.215 45.2978 198.215C43.9352 198.215 42.8306 199.323 42.8306 200.69C42.8306 202.057 43.9352 203.165 45.2978 203.165Z" fill="#31FF7B"/>
<path d="M74.5278 203.165C75.8905 203.165 76.9951 202.057 76.9951 200.69C76.9951 199.323 75.8905 198.215 74.5278 198.215C73.1652 198.215 72.0605 199.323 72.0605 200.69C72.0605 202.057 73.1652 203.165 74.5278 203.165Z" fill="#31FF7B"/>
<path d="M75.8839 120.232H66.1983C65.8267 120.232 65.5254 120.534 65.5254 120.907V126.941C65.5254 127.314 65.8267 127.616 66.1983 127.616H75.8839C76.2555 127.616 76.5567 127.314 76.5567 126.941V120.907C76.5567 120.534 76.2555 120.232 75.8839 120.232Z" fill="white"/>
<path d="M75.8838 127.871H66.188C65.6783 127.871 65.2603 127.452 65.2603 126.941V120.896C65.2603 120.385 65.6783 119.966 66.188 119.966H75.8838C76.3936 119.966 76.8218 120.385 76.8218 120.896V126.941C76.8218 127.452 76.4038 127.871 75.8838 127.871ZM66.188 120.487C65.9637 120.487 65.7802 120.671 65.7802 120.896V126.941C65.7802 127.166 65.9637 127.35 66.188 127.35H75.8838C76.1081 127.35 76.2916 127.166 76.2916 126.941V120.896C76.2916 120.671 76.1081 120.487 75.8838 120.487H66.188Z" fill="#192347"/>
<path d="M73.4686 121.184L73.2227 121.349L74.2471 122.889L74.493 122.724L73.4686 121.184Z" fill="#1D1D1B"/>
<path d="M74.2426 122.901V122.881L73.2026 121.326L73.4779 121.142V121.163L74.5178 122.717L74.2426 122.901ZM73.2536 121.347L74.2528 122.85L74.4669 122.707L73.4677 121.203L73.2536 121.347Z" fill="#1D1D1B"/>
<path d="M74.4139 121.766L74.168 121.93L74.6321 122.628L74.878 122.463L74.4139 121.766Z" fill="#1D1D1B"/>
<path d="M74.6298 122.646L74.1506 121.919L74.4259 121.735L74.9051 122.461L74.6298 122.646ZM74.2016 121.93L74.64 122.594L74.8541 122.451L74.4157 121.786L74.2016 121.93Z" fill="#1D1D1B"/>
<path d="M73.8446 120.922L73.5986 121.086L74.0627 121.784L74.3087 121.619L73.8446 120.922Z" fill="#1D1D1B"/>
<path d="M74.069 121.807L73.5898 121.081L73.8651 120.896L74.3443 121.623L74.069 121.807ZM73.6408 121.091L74.0792 121.756L74.2933 121.612L73.8549 120.948L73.6408 121.091Z" fill="#1D1D1B"/>
<path d="M73.6529 122.279L73.407 122.444L73.8711 123.141L74.117 122.977L73.6529 122.279Z" fill="#1D1D1B"/>
<path d="M73.8652 123.167L73.386 122.441L73.6613 122.257L74.1404 122.983L73.8652 123.167ZM73.437 122.451L73.8754 123.116L74.0895 122.973L73.6511 122.308L73.437 122.451Z" fill="#1D1D1B"/>
<path d="M73.0894 121.434L72.8435 121.598L73.3076 122.296L73.5535 122.131L73.0894 121.434Z" fill="#1D1D1B"/>
<path d="M73.3044 122.318L72.8252 121.592L73.1005 121.408L73.5796 122.134L73.3044 122.318ZM72.8762 121.602L73.3146 122.267L73.5287 122.124L73.0903 121.459L72.8762 121.602Z" fill="#1D1D1B"/>
<path d="M68.2033 124.712L67.9573 124.876L68.9812 126.417L69.2271 126.252L68.2033 124.712Z" fill="#1D1D1B"/>
<path d="M68.9918 126.43V126.409L67.9519 124.855L68.2272 124.67V124.691L69.2671 126.245L68.9918 126.43ZM68.0029 124.875L69.002 126.378L69.2161 126.235L68.217 124.732L68.0029 124.875Z" fill="#1D1D1B"/>
<path d="M67.4517 125.209L67.2058 125.373L68.2305 126.913L68.4764 126.748L67.4517 125.209Z" fill="#1D1D1B"/>
<path d="M68.2169 126.941V126.921L67.177 125.366L67.4523 125.182V125.202L68.4922 126.757L68.2169 126.941ZM67.228 125.386L68.2271 126.89L68.4412 126.747L67.4421 125.243L67.228 125.386Z" fill="#1D1D1B"/>
<path d="M68.9927 121.423L67.9685 122.962L68.2229 123.133L69.2471 121.593L68.9927 121.423Z" fill="#1D1D1B"/>
<path d="M68.2271 123.167L67.9417 122.983V122.963L68.9816 121.408H69.002L69.267 121.592V121.613L68.2271 123.167ZM67.9926 122.973L68.2169 123.116L69.2161 121.613L68.9918 121.469L67.9926 122.973Z" fill="#1D1D1B"/>
<path d="M68.2217 120.9L67.1975 122.44L67.4435 122.605L68.4676 121.065L68.2217 120.9Z" fill="#1D1D1B"/>
<path d="M67.4525 122.646H67.4321L67.167 122.461V122.441L68.2069 120.886H68.2273L68.4924 121.071V121.091L67.4525 122.646ZM67.2282 122.451L67.4423 122.594L68.4414 121.091L68.2273 120.948L67.2282 122.451Z" fill="#1D1D1B"/>
<path d="M68.6081 121.16L67.5842 122.7L67.8302 122.865L68.8541 121.325L68.6081 121.16Z" fill="#1D1D1B"/>
<path d="M67.8397 122.901H67.8193L67.5542 122.717V122.697L68.5941 121.142H68.6145L68.8796 121.326V121.347L67.8397 122.901ZM67.6154 122.707L67.8295 122.85L68.8286 121.347L68.6145 121.203L67.6154 122.707Z" fill="#1D1D1B"/>
<path d="M67.8379 124.946L67.592 125.111L68.0563 125.808L68.3022 125.643L67.8379 124.946Z" fill="#1D1D1B"/>
<path d="M68.0436 125.847L67.5645 125.12L67.8397 124.936L68.3189 125.662L68.0436 125.847ZM67.6154 125.131L68.0538 125.795L68.2679 125.652L67.8295 124.987L67.6154 125.131Z" fill="#1D1D1B"/>
<path d="M68.39 125.783L68.144 125.948L68.6081 126.645L68.8541 126.48L68.39 125.783Z" fill="#1D1D1B"/>
<path d="M68.6044 126.685L68.1252 125.959L68.4005 125.775L68.8797 126.501L68.6044 126.685ZM68.1762 125.969L68.6146 126.634L68.8287 126.491L68.3903 125.826L68.1762 125.969Z" fill="#1D1D1B"/>
<path d="M74.6361 125.2L74.1721 125.897L74.4266 126.067L74.8905 125.37L74.6361 125.2Z" fill="#1D1D1B"/>
<path d="M74.4261 126.102L74.1406 125.918V125.898L74.63 125.182H74.6504L74.9155 125.366V125.386L74.4261 126.102ZM74.1916 125.908L74.4159 126.051L74.8543 125.386L74.63 125.243L74.1916 125.908Z" fill="#1D1D1B"/>
<path d="M74.0712 126.041L73.6062 126.738L73.8604 126.908L74.3254 126.211L74.0712 126.041Z" fill="#1D1D1B"/>
<path d="M73.8653 126.941L73.5798 126.757L74.059 126.031H74.0794L74.3445 126.215V126.235L73.8653 126.951V126.941ZM73.6308 126.747L73.8551 126.89L74.2935 126.225L74.0692 126.082L73.6308 126.747Z" fill="#1D1D1B"/>
<path d="M73.3053 125.536L72.8413 126.234L73.0873 126.398L73.5512 125.701L73.3053 125.536Z" fill="#1D1D1B"/>
<path d="M73.1007 126.419H73.0803L72.8152 126.235V126.215L73.2944 125.509H73.3148L73.5798 125.693V125.714L73.1007 126.419ZM72.8764 126.225L73.0905 126.368L73.5289 125.703L73.3148 125.56L72.8764 126.225Z" fill="#1D1D1B"/>
<path d="M73.8636 124.714L73.3997 125.411L73.6456 125.576L74.1096 124.878L73.8636 124.714Z" fill="#1D1D1B"/>
<path d="M73.6512 125.581H73.6308L73.3657 125.397L73.8551 124.67H73.8755L74.1406 124.855L73.6512 125.581ZM73.4269 125.386L73.641 125.529L74.0794 124.865L73.8653 124.722L73.4269 125.386Z" fill="#1D1D1B"/>
<path d="M73.6875 125.798L73.2236 126.496L73.4696 126.66L73.9335 125.962L73.6875 125.798Z" fill="#1D1D1B"/>
<path d="M73.4779 126.675L73.2026 126.491V126.47L73.6818 125.765H73.7022L73.9673 125.949V125.969L73.4881 126.675H73.4779ZM73.2536 126.481L73.4677 126.624L73.9061 125.959L73.692 125.816L73.2536 126.481Z" fill="#1D1D1B"/>
<path d="M74.2488 124.967L73.7847 125.664L74.0306 125.829L74.4947 125.131L74.2488 124.967Z" fill="#1D1D1B"/>
<path d="M74.0386 125.836H74.0183L73.7532 125.652V125.632L74.2426 124.916H74.2629L74.528 125.1V125.121L74.0386 125.836ZM73.8144 125.642L74.0285 125.785L74.4669 125.121L74.2528 124.977L73.8144 125.642Z" fill="#1D1D1B"/>
<path d="M69.5219 123.893C69.5219 123.893 69.7055 124.19 70.0623 124.272C70.0623 124.272 70.2764 124.343 70.5415 124.272C70.5415 124.272 70.7658 124.22 70.9391 124.036C70.9391 124.036 70.9595 124.016 71.0308 123.914C71.0308 123.914 71.092 123.822 71.1532 123.77C71.1532 123.77 71.3061 123.617 71.51 123.556C71.51 123.556 71.7037 123.484 71.9382 123.525C71.9382 123.525 72.1727 123.556 72.3664 123.719C72.3664 123.719 72.5602 123.873 72.6519 124.118C72.6519 124.118 72.7335 124.333 72.7029 124.548C72.7029 124.548 72.6927 124.732 72.5907 124.885C72.5907 124.885 72.5703 124.926 72.55 124.947C72.7539 124.65 72.8762 124.292 72.8762 123.903C72.8762 122.891 72.0504 122.062 71.041 122.062C70.4089 122.062 69.8482 122.38 69.5219 122.87C69.4812 122.932 69.3588 123.136 69.369 123.402C69.369 123.402 69.369 123.648 69.5219 123.883V123.893Z" fill="#E20613"/>
<path d="M72.5399 124.977C72.5399 124.977 72.5399 124.967 72.5501 124.957C72.5705 124.926 72.5909 124.895 72.5909 124.895C72.6929 124.732 72.7031 124.558 72.7031 124.558C72.7438 124.343 72.6521 124.128 72.6521 124.128C72.5705 123.883 72.3666 123.73 72.3666 123.73C72.1729 123.566 71.9384 123.535 71.9384 123.535C71.7039 123.494 71.5102 123.566 71.5102 123.566C71.3063 123.627 71.1534 123.781 71.1534 123.781C71.0922 123.832 71.031 123.924 71.031 123.924C70.9597 124.026 70.9393 124.047 70.9393 124.047C70.7659 124.231 70.5416 124.282 70.5416 124.282C70.2766 124.364 70.0625 124.282 70.0625 124.282C69.6954 124.2 69.5221 123.903 69.5221 123.903C69.3692 123.668 69.3692 123.423 69.3692 123.423C69.3692 123.157 69.4813 122.942 69.5221 122.891C69.3182 123.187 69.2061 123.545 69.2061 123.924C69.2061 124.936 70.0319 125.765 71.0412 125.765C71.6529 125.765 72.2035 125.458 72.5297 124.998L72.5399 124.977Z" fill="#312782"/>
<path d="M81.0325 152.775H78.9119C78.9119 144.154 87.894 141.719 87.9857 141.689L88.5159 143.744C88.21 143.826 81.0223 145.81 81.0223 152.775H81.0325Z" fill="#192347"/>
<path d="M39.7006 152.775H37.58C37.58 145.81 30.3923 143.826 30.0864 143.744L30.6166 141.689C30.7083 141.709 39.6904 144.154 39.6904 152.775H39.7006Z" fill="#192347"/>
<path d="M57.1856 197.887C44.5433 191.71 33.0634 197.806 32.9512 197.867L31.9419 196.006C32.4517 195.729 44.5127 189.327 58.1133 195.985L57.1856 197.887Z" fill="#192347"/>
<path d="M85.7734 197.887C73.1312 191.71 61.6513 197.806 61.5391 197.867L60.5298 196.006C61.0396 195.729 73.1006 189.327 86.7012 195.985L85.7734 197.887Z" fill="#192347"/>
<path d="M86.3546 125.376C86.008 125.376 85.6715 125.202 85.4676 124.895C85.1516 124.405 85.2841 123.75 85.7735 123.423C89.0054 121.295 96.0402 119.281 96.3359 119.199C96.8966 119.035 97.4777 119.362 97.6409 119.935C97.804 120.498 97.4777 121.081 96.9068 121.244C96.8354 121.265 89.8924 123.259 86.9256 125.202C86.7421 125.325 86.5483 125.376 86.3444 125.376H86.3546Z" fill="#192347"/>
<path d="M96.1624 137.516C95.6221 137.516 95.1633 137.107 95.1123 136.565C94.5516 131.042 90.7283 122.38 90.6875 122.298C90.453 121.766 90.6875 121.132 91.2177 120.897C91.758 120.651 92.38 120.897 92.6144 121.428C92.7776 121.797 96.611 130.479 97.2125 136.34C97.2737 136.923 96.8455 137.444 96.2644 137.506C96.2236 137.506 96.193 137.506 96.1522 137.506L96.1624 137.516Z" fill="#192347"/>
<path d="M32.8697 125.376C32.6658 125.376 32.4721 125.325 32.2886 125.202C29.332 123.259 22.3787 121.265 22.3074 121.244C21.7466 121.081 21.4204 120.498 21.5733 119.935C21.7364 119.373 22.3176 119.046 22.8783 119.199C23.174 119.281 30.2088 121.296 33.4407 123.423C33.9301 123.74 34.0626 124.405 33.7465 124.896C33.5426 125.202 33.2062 125.376 32.8596 125.376H32.8697Z" fill="#192347"/>
<path d="M23.0617 137.516C23.0617 137.516 22.9904 137.516 22.9496 137.516C22.3685 137.455 21.9403 136.933 22.0014 136.35C22.5928 130.48 26.4262 121.797 26.5893 121.439C26.8238 120.907 27.4457 120.661 27.9861 120.907C28.5162 121.142 28.7609 121.776 28.5162 122.308C28.4755 122.39 24.6624 131.052 24.1017 136.575C24.0507 137.117 23.5817 137.526 23.0515 137.526L23.0617 137.516Z" fill="#192347"/>
<path d="M62.2119 57.3546C62.2119 58.2648 60.6113 59.0012 58.6436 59.0012C56.6759 59.0012 55.0752 58.2648 55.0752 57.3546C55.0752 56.4444 56.6759 55.708 58.6436 55.708C60.6113 55.708 62.2119 56.4444 62.2119 57.3546Z" fill="#192347"/>
<path d="M41.4951 49.9399C43.0491 49.9399 44.309 48.6761 44.309 47.1172C44.309 45.5582 43.0491 44.2944 41.4951 44.2944C39.941 44.2944 38.6812 45.5582 38.6812 47.1172C38.6812 48.6761 39.941 49.9399 41.4951 49.9399Z" fill="#192347"/>
<path d="M77.5151 49.9399C79.0692 49.9399 80.329 48.6761 80.329 47.1172C80.329 45.5582 79.0692 44.2944 77.5151 44.2944C75.961 44.2944 74.7012 45.5582 74.7012 47.1172C74.7012 48.6761 75.961 49.9399 77.5151 49.9399Z" fill="#192347"/>
<path d="M44.9819 41.1853C41.0567 38.6387 36.0508 38.158 31.4833 37.6773C29.6074 37.483 28.751 36.1228 28.9447 34.5989C29.1486 33.0751 30.0968 31.9501 32.1256 32.1239C37.05 32.5535 42.8613 33.3512 47.1332 36.0512C48.8868 37.166 49.2334 38.5364 48.6217 40.0092C47.9998 41.4819 46.5928 42.2387 44.9819 41.1853Z" fill="#192347"/>
<path d="M73.4677 40.8681C77.5254 38.526 82.5518 38.3215 87.1295 38.0862C89.0156 37.984 89.9434 36.6851 89.821 35.151C89.6987 33.6169 88.8117 32.4408 86.7726 32.5124C81.8381 32.676 75.9859 33.1669 71.5714 35.6317C69.7566 36.6442 69.3386 38.0044 69.8789 39.5078C70.4193 41.0112 71.7855 41.8397 73.4575 40.8783L73.4677 40.8681Z" fill="#192347"/>
<path d="M50.2224 78.3818C50.5282 78.3818 50.8341 78.4637 51.1094 78.6477C58.3277 83.3012 68.0744 79.0977 68.1662 79.0466C68.992 78.6784 69.9707 79.0466 70.3378 79.8852C70.7048 80.7137 70.3378 81.6955 69.5018 82.0637C69.043 82.2682 58.0626 87.0341 49.3354 81.4193C48.5707 80.9284 48.3464 79.9057 48.8358 79.1387C49.1519 78.6477 49.682 78.3818 50.2224 78.3818Z" fill="#192347"/>
<g opacity="0.3">
<path d="M90.6671 160.578C90.6671 160.578 79.3503 166.275 76.2407 166.643C76.2407 166.643 75.7717 170.99 69.7361 171.46H48.6725C42.6267 170.99 42.1679 166.643 42.1679 166.643C39.0583 166.285 27.7415 160.578 27.7415 160.578L28.4755 156.753C41.6683 163.268 57.7871 163.882 59.1635 163.933H59.2552C60.6316 163.892 76.7505 163.278 89.9432 156.753L90.6773 160.578H90.6671Z" fill="#192347"/>
</g>
<path d="M58.664 165.252C47.2962 165.252 36.9479 162.481 27.9148 156.999L27.2827 156.62L29.179 146.516L31.8502 148.387C37.9674 152.08 60.0098 162.849 88.8524 147.682L90.0962 147.027L92.0537 156.59L91.3502 156.958C80.4616 162.685 70.3784 165.242 58.664 165.242V165.252ZM29.6378 155.557C38.1815 160.578 47.9487 163.125 58.664 163.125C66.1677 163.125 76.4446 162.245 89.6578 155.444L88.5873 150.198C59.3267 164.945 36.9479 153.951 30.7287 150.177L30.6574 150.126L29.6378 155.547V155.557Z" fill="#192347"/>
<path d="M69.8585 151.374H48.5502C46.5739 151.374 44.9717 152.981 44.9717 154.964V164.956C44.9717 166.938 46.5739 168.545 48.5502 168.545H69.8585C71.8349 168.545 73.4371 166.938 73.4371 164.956V154.964C73.4371 152.981 71.8349 151.374 69.8585 151.374Z" fill="white"/>
<path d="M69.8585 169.609H48.5401C45.981 169.609 43.9114 167.523 43.9114 164.966V154.964C43.9114 152.397 45.9912 150.321 48.5401 150.321H69.8585C72.4175 150.321 74.4872 152.407 74.4872 154.964V164.966C74.4872 167.533 72.4073 169.609 69.8585 169.609ZM48.5401 152.427C47.1535 152.427 46.0218 153.563 46.0218 154.954V164.956C46.0218 166.347 47.1535 167.482 48.5401 167.482H69.8585C71.2451 167.482 72.3768 166.347 72.3768 164.956V154.954C72.3768 153.563 71.2451 152.427 69.8585 152.427H48.5401Z" fill="#192347"/>
<g opacity="0.3">
<path d="M72.8559 155.035V164.639C72.8559 166.531 71.3266 168.085 69.4201 168.085H48.9682C47.5205 168.085 46.2767 167.175 45.7771 165.907C46.1747 166.07 46.6029 166.162 47.0413 166.162H67.5034C69.3997 166.162 70.9392 164.628 70.9392 162.726V153.123C70.9392 152.673 70.8474 152.243 70.6843 151.854C71.9485 152.345 72.8457 153.583 72.8457 155.045L72.8559 155.035Z" fill="#192347"/>
</g>
<path d="M59.9385 157.285H49.4883C48.9072 157.285 48.428 156.815 48.428 156.222C48.428 155.628 48.897 155.158 49.4883 155.158H59.9385C60.5197 155.158 60.9988 155.628 60.9988 156.222C60.9988 156.815 60.5298 157.285 59.9385 157.285Z" fill="#192347"/>
<path d="M59.9385 162.675H49.4883C48.9072 162.675 48.428 162.205 48.428 161.611C48.428 161.018 48.897 160.548 49.4883 160.548H59.9385C60.5197 160.548 60.9988 161.018 60.9988 161.611C60.9988 162.205 60.5298 162.675 59.9385 162.675Z" fill="#192347"/>
<g opacity="0.3">
<path d="M92.3697 154.186C94.7146 161.765 96.2133 163.156 98.8947 162.624C103.727 161.673 106.562 157.766 103.727 142.497C104.92 146.905 105.848 151.139 106.643 156.375C107.316 161.56 107.398 162.88 107.234 165.917C107.041 169.64 105.889 173.557 100.771 174.549C97.9669 175.091 95.153 173.005 93.6747 169.65C93.43 169.087 93.2771 168.484 93.2261 167.86C93.012 165.119 92.176 155.577 90.3408 147.15L92.3595 154.186H92.3697Z" fill="#192347"/>
</g>
<g opacity="0.3">
<path d="M26.7016 154.186C24.3566 161.765 22.8579 163.156 20.1765 162.624C15.344 161.673 12.5097 157.766 15.344 142.497C14.1511 146.905 13.2233 151.139 12.4281 156.375C11.7552 161.56 11.6736 162.88 11.8368 165.917C12.0305 169.64 13.1825 173.557 18.3006 174.549C21.1043 175.091 23.9182 173.005 25.3966 169.65C25.6412 169.087 25.7942 168.484 25.8452 167.86C26.0593 165.119 26.8953 155.577 28.7304 147.15L26.7118 154.186H26.7016Z" fill="#192347"/>
</g>
<g opacity="0.3">
<path d="M87.8023 218.107C87.2823 221.41 84.4378 223.936 81.0122 223.936H67.014C67.014 223.936 61.2129 224.192 62.6402 211.367V211.255L62.6504 211.234C62.6198 208.943 62.1202 176.748 61.3148 176.165C61.1517 176.063 60.9274 175.971 60.6317 175.909L60.0608 175.296C60.0608 175.296 60.2239 176.38 67.6767 174.805C74.6197 173.332 72.1525 178.527 72.1525 178.527C72.1525 178.527 70.0012 185.328 69.3284 204.74C68.8288 219.027 81.2263 219.078 87.8125 218.107H87.8023Z" fill="#192347"/>
</g>
<g opacity="0.3">
<path d="M31.1874 218.107C31.7074 221.41 34.5519 223.936 37.9775 223.936H51.9757C51.9757 223.936 57.7769 224.192 56.3495 211.367V211.255L56.3393 211.234C56.3699 208.943 56.8695 176.748 57.6749 176.165C57.8381 176.063 58.0624 175.971 58.358 175.909L58.929 175.296C58.929 175.296 58.7658 176.38 51.313 174.805C44.37 173.332 46.8373 178.527 46.8373 178.527C46.8373 178.527 48.9885 185.328 49.6614 204.74C50.161 219.027 37.7634 219.078 31.1772 218.107H31.1874Z" fill="#192347"/>
</g>
<path d="M58.5518 176.799C52.1491 176.799 48.6419 175.316 48.4278 175.224C47.8875 174.989 47.6428 174.365 47.8773 173.833C48.1118 173.291 48.7337 173.056 49.2639 173.281C49.3556 173.322 56.839 176.41 69.9706 173.23C70.5415 173.086 71.1125 173.444 71.245 174.007C71.3775 174.58 71.0309 175.152 70.4702 175.285C65.7905 176.42 61.8041 176.799 58.5518 176.799Z" fill="#192347"/>
</g>
<defs>
<clipPath id="clip0_775_6836">
<rect width="119" height="225" fill="white"/>
</clipPath>
</defs>
</svg>
